<svg xmlns:xlink="http://www.w3.org/1999/xlink" viewBox="0 0 53.56 53.56" style="shape-rendering:geometricPrecision; text-rendering:geometricPrecision; image-rendering:optimizeQuality; fill-rule:evenodd; clip-rule:evenodd" version="1.1" height="614px" width="614px" xml:space="preserve" xmlns="http://www.w3.org/2000/svg">
 <defs>
  <style type="text/css">
   
    .str0 {stroke:#F8D63A;stroke-width:0.7;stroke-miterlimit:2.61313}
    .str1 {stroke:#4F2A22;stroke-width:0.08;stroke-miterlimit:2.61313}
    .str4 {stroke:#FEFEFE;stroke-width:0.7;stroke-linecap:round;stroke-linejoin:round;stroke-miterlimit:2.61313}
    .str2 {stroke:#4F2A22;stroke-width:0.36;stroke-miterlimit:10}
    .str3 {stroke:#4F2A22;stroke-width:0.36;stroke-miterlimit:10}
    .fil0 {fill:none}
    .fil5 {fill:none;fill-rule:nonzero}
    .fil1 {fill:#4F2A22}
    .fil2 {fill:#FEFEFE;fill-rule:nonzero}
    .fil3 {fill:#4F2A22;fill-rule:nonzero}
    .fil4 {fill:black;fill-rule:nonzero}
   
  </style>
    <clipPath style="clip-rule:nonzero" id="id0">
     <path d="M9.03 26.78c0,-9.79 7.96,-17.75 17.75,-17.75 9.79,0 17.75,7.96 17.75,17.75 0,9.79 -7.96,17.75 -17.75,17.75 -9.79,0 -17.75,-7.96 -17.75,-17.75z"></path>
    </clipPath>
 </defs>
 <g id="Layer_x0020_1">
  <metadata id="CorelCorpID_0Corel-Layer"></metadata>
  <circle r="26.43" cy="26.78" cx="26.78" class="fil0 str0"></circle>
  <g id="_2002954471600">
   <path d="M1.18 26.78c0,-7.06 2.87,-13.46 7.5,-18.1 4.64,-4.63 11.04,-7.5 18.1,-7.5 7.06,0 13.46,2.87 18.1,7.5 4.63,4.64 7.5,11.04 7.5,18.1 0,7.06 -2.87,13.46 -7.5,18.1 -4.64,4.63 -11.04,7.5 -18.1,7.5 -7.06,0 -13.46,-2.87 -18.1,-7.5 -4.63,-4.64 -7.5,-11.04 -7.5,-18.1zm7.85 0c0,-9.79 7.96,-17.75 17.75,-17.75 9.79,0 17.75,7.96 17.75,17.75 0,9.79 -7.96,17.75 -17.75,17.75 -9.79,0 -17.75,-7.96 -17.75,-17.75z" class="fil1"></path>
   <circle r="19.82" cy="26.78" cx="26.78" class="fil0"></circle>
   <path d="M12.59 10.56l0.82 0.78c0.08,0.07 0.12,0.14 0.13,0.2 0.01,0.07 0.01,0.15 -0.02,0.24 -0.03,0.11 -0.09,0.25 -0.19,0.41 -0.09,0.16 -0.2,0.31 -0.33,0.45 -0.24,0.25 -0.5,0.44 -0.78,0.56 -0.28,0.11 -0.57,0.14 -0.86,0.09 -0.3,-0.06 -0.6,-0.23 -0.89,-0.51 -0.28,-0.26 -0.46,-0.54 -0.53,-0.84 -0.08,-0.3 -0.07,-0.59 0.02,-0.88 0.1,-0.3 0.26,-0.57 0.49,-0.81 0.16,-0.17 0.31,-0.29 0.45,-0.38 0.15,-0.09 0.29,-0.14 0.41,-0.14 0.12,-0.01 0.22,0.02 0.3,0.1 0.06,0.05 0.1,0.12 0.11,0.19 0.02,0.08 0.02,0.14 0.01,0.21 -0.11,0.03 -0.23,0.07 -0.36,0.14 -0.13,0.06 -0.26,0.16 -0.39,0.3 -0.13,0.14 -0.22,0.3 -0.27,0.48 -0.05,0.17 -0.04,0.34 0.02,0.52 0.05,0.17 0.16,0.33 0.32,0.49 0.18,0.16 0.35,0.27 0.53,0.32 0.17,0.04 0.34,0.04 0.5,-0.02 0.16,-0.05 0.31,-0.15 0.44,-0.29 0.06,-0.07 0.11,-0.13 0.15,-0.2 0.04,-0.07 0.06,-0.12 0.08,-0.16l-0.47 -0.44 -0.43 0.46c-0.05,-0.01 -0.09,-0.02 -0.15,-0.05 -0.05,-0.02 -0.1,-0.06 -0.15,-0.1 -0.08,-0.08 -0.12,-0.16 -0.12,-0.23 0,-0.08 0.02,-0.14 0.08,-0.21l0.63 -0.66c0.07,-0.08 0.14,-0.11 0.22,-0.12 0.08,0 0.15,0.03 0.23,0.1z" class="fil2"></path>
   <path d="M13.02 9.43l0.67 -0.48 1.32 1.83 -0.29 0.26c-0.11,0.08 -0.21,0.11 -0.33,0.09 -0.11,-0.01 -0.2,-0.08 -0.28,-0.19l-1.09 -1.51zm1.7 1.61l-0.39 -0.55 1.39 -1c0.04,0.02 0.08,0.04 0.13,0.08 0.05,0.03 0.09,0.08 0.13,0.13 0.07,0.1 0.1,0.18 0.09,0.26 0,0.08 -0.04,0.14 -0.12,0.2l-1.23 0.88zm-0.42 -1.25l-0.68 0.48 -1.2 -1.66c0.03,-0.03 0.07,-0.07 0.12,-0.12 0.05,-0.06 0.11,-0.1 0.16,-0.14 0.13,-0.1 0.24,-0.14 0.33,-0.14 0.09,0.01 0.18,0.07 0.27,0.19l1 1.39z" class="fil2" id="_1"></path>
   <path d="M17.89 9.17c-0.27,0.13 -0.52,0.2 -0.76,0.2 -0.23,0.01 -0.45,-0.05 -0.64,-0.17 -0.19,-0.12 -0.34,-0.29 -0.46,-0.52l-0.16 -0.32 0.74 -0.39 0.15 0.31c0.09,0.17 0.21,0.29 0.36,0.33 0.15,0.05 0.3,0.04 0.46,-0.04 0.15,-0.08 0.26,-0.2 0.3,-0.35 0.05,-0.15 0.03,-0.31 -0.06,-0.49l-0.16 -0.3 0.75 -0.38 0.16 0.32c0.12,0.23 0.17,0.46 0.16,0.68 -0.01,0.22 -0.09,0.43 -0.23,0.62 -0.14,0.2 -0.35,0.36 -0.61,0.5zm-1.21 -1.05l-0.74 0.38 -0.88 -1.71c0.03,-0.02 0.08,-0.06 0.14,-0.1 0.06,-0.04 0.12,-0.08 0.19,-0.11 0.13,-0.08 0.25,-0.1 0.34,-0.09 0.08,0.02 0.16,0.09 0.23,0.23l0.72 1.4zm1.81 -0.91l-0.75 0.38 -0.88 -1.72c0.03,-0.03 0.08,-0.06 0.14,-0.11 0.06,-0.04 0.12,-0.08 0.18,-0.11 0.14,-0.07 0.26,-0.1 0.34,-0.08 0.09,0.01 0.17,0.09 0.24,0.23l0.73 1.41z" class="fil2" id="_2"></path>
   <path d="M19.81 5.42l-0.18 -0.64 1.62 -0.46c0.03,0.03 0.06,0.07 0.09,0.12 0.04,0.05 0.06,0.11 0.08,0.17 0.03,0.11 0.03,0.2 -0.01,0.27 -0.03,0.07 -0.09,0.12 -0.18,0.14l-1.42 0.4zm0.56 -0.85l0.19 0.64 -1.62 0.45c-0.04,-0.02 -0.07,-0.06 -0.1,-0.11 -0.03,-0.05 -0.06,-0.11 -0.07,-0.17 -0.04,-0.12 -0.04,-0.21 0,-0.28 0.04,-0.06 0.1,-0.11 0.18,-0.13l1.42 -0.4zm-0.64 0.72l0.8 -0.23 0.75 2.68c-0.03,0.02 -0.08,0.04 -0.15,0.07 -0.06,0.03 -0.13,0.05 -0.21,0.07 -0.16,0.05 -0.27,0.05 -0.36,0.01 -0.07,-0.03 -0.13,-0.12 -0.17,-0.26l-0.66 -2.34z" class="fil2" id="_3"></path>
   <path d="M22.41 5.03l0.8 -0.11 0.29 2.26c-0.03,0.01 -0.08,0.03 -0.14,0.05 -0.07,0.02 -0.14,0.03 -0.21,0.04 -0.14,0.02 -0.25,-0.01 -0.34,-0.07 -0.09,-0.07 -0.14,-0.17 -0.16,-0.31l-0.24 -1.86zm0.97 1.2l-0.8 0.11 -0.24 -1.86c-0.02,-0.13 0,-0.25 0.07,-0.33 0.07,-0.09 0.17,-0.14 0.31,-0.16 0.07,-0.01 0.14,-0.02 0.21,-0.01 0.07,0 0.12,0 0.15,0l0.3 2.25zm-0.41 -0.31l-0.09 -0.65 1.64 -0.21c0.02,0.03 0.05,0.07 0.07,0.12 0.03,0.05 0.04,0.11 0.05,0.18 0.02,0.11 0,0.2 -0.04,0.26 -0.05,0.06 -0.11,0.1 -0.2,0.11l-1.43 0.19zm0.18 1.35l-0.09 -0.65 1.81 -0.24c0.03,0.03 0.05,0.08 0.08,0.13 0.02,0.06 0.04,0.12 0.05,0.18 0.01,0.12 0,0.2 -0.05,0.27 -0.04,0.06 -0.11,0.09 -0.19,0.1l-1.61 0.21zm-0.35 -2.63l-0.08 -0.65 1.78 -0.24c0.03,0.03 0.06,0.07 0.08,0.13 0.02,0.05 0.04,0.11 0.05,0.17 0.01,0.12 0,0.21 -0.05,0.27 -0.04,0.06 -0.11,0.1 -0.2,0.11l-1.58 0.21z" class="fil2" id="_4"></path>
   <path d="M25.73 4.58l0.76 0.01c0.01,0.16 0.01,0.31 0.01,0.46 0,0.16 0,0.3 0,0.45 0,0.14 -0.01,0.27 -0.01,0.41l-0.04 1.05c-0.03,0.01 -0.08,0.01 -0.15,0.02 -0.07,0.01 -0.14,0.01 -0.22,0.01 -0.16,-0.01 -0.27,-0.04 -0.33,-0.1 -0.06,-0.05 -0.09,-0.15 -0.09,-0.29l0.07 -2.02zm2.86 1.49l-0.76 -0.02c-0.01,-0.26 -0.02,-0.52 -0.02,-0.76 0.01,-0.23 0.01,-0.46 0.02,-0.68l0.03 -0.92c0.04,0 0.09,-0.01 0.16,-0.02 0.07,-0.01 0.14,-0.01 0.22,-0.01 0.16,0.01 0.27,0.04 0.33,0.1 0.06,0.06 0.09,0.16 0.09,0.29l-0.07 2.02zm0.01 -0.26l-0.04 1.12c-0.05,0.04 -0.12,0.07 -0.2,0.1 -0.09,0.02 -0.19,0.03 -0.31,0.03 -0.12,-0.01 -0.23,-0.03 -0.34,-0.07 -0.11,-0.05 -0.19,-0.14 -0.25,-0.28l-0.62 -1.27c-0.04,-0.09 -0.08,-0.17 -0.11,-0.25 -0.04,-0.08 -0.07,-0.16 -0.1,-0.24 -0.04,-0.09 -0.07,-0.17 -0.1,-0.26l-0.81 0.16 0.04 -1.08c0.05,-0.06 0.12,-0.1 0.21,-0.13 0.09,-0.03 0.2,-0.04 0.3,-0.04 0.12,0.01 0.24,0.03 0.34,0.07 0.11,0.05 0.19,0.14 0.26,0.27l0.62 1.28c0.04,0.08 0.07,0.16 0.11,0.24 0.04,0.09 0.07,0.17 0.11,0.25 0.03,0.08 0.06,0.16 0.09,0.25l0.8 -0.15z" class="fil2" id="_5"></path>
   <path d="M30.59 6.25l-1.18 -0.22c-0.01,-0.04 -0.02,-0.08 -0.03,-0.14 -0.01,-0.06 -0.01,-0.12 0.01,-0.19 0.02,-0.11 0.06,-0.19 0.12,-0.23 0.07,-0.04 0.14,-0.06 0.23,-0.04l1.18 0.21c0.01,0.04 0.02,0.09 0.03,0.15 0.01,0.06 0.01,0.12 0,0.18 -0.02,0.11 -0.07,0.19 -0.13,0.24 -0.07,0.04 -0.14,0.05 -0.23,0.04z" class="fil2" id="_6"></path>
   <path d="M32.43 6.37l-0.79 -0.23 0.41 -1.44c0.03,-0.14 0.1,-0.23 0.2,-0.28 0.1,-0.06 0.21,-0.07 0.34,-0.03 0.07,0.02 0.14,0.05 0.21,0.08 0.06,0.03 0.11,0.05 0.15,0.07l-0.52 1.83zm-0.41 0.01l0.18 -0.64 1.58 0.45c0.01,0.04 0.01,0.09 0.02,0.15 0,0.06 -0.01,0.12 -0.03,0.18 -0.03,0.11 -0.08,0.19 -0.14,0.23 -0.07,0.04 -0.15,0.04 -0.23,0.02l-1.38 -0.39zm0.39 -1.35l0.18 -0.64 1.75 0.49c0.01,0.04 0.01,0.09 0.02,0.15 0,0.06 -0.01,0.12 -0.03,0.19 -0.03,0.11 -0.08,0.18 -0.14,0.22 -0.07,0.04 -0.15,0.05 -0.23,0.03l-1.55 -0.44zm-0.69 0.8l0.8 0.23 -0.45 1.61c-0.04,0 -0.09,0 -0.16,-0.01 -0.08,-0.02 -0.15,-0.03 -0.22,-0.05 -0.16,-0.05 -0.26,-0.11 -0.31,-0.18 -0.05,-0.07 -0.06,-0.18 -0.02,-0.32l0.36 -1.28z" class="fil2" id="_7"></path>
   <path d="M35.5 7.05l0.32 0.15c0.17,0.08 0.32,0.1 0.45,0.07 0.14,-0.02 0.24,-0.11 0.3,-0.26 0.07,-0.14 0.07,-0.27 0.01,-0.39 -0.06,-0.11 -0.19,-0.22 -0.39,-0.31 -0.06,-0.03 -0.11,-0.05 -0.16,-0.07 -0.04,-0.01 -0.09,-0.03 -0.14,-0.04l-0.39 0.85zm0.12 0.77l-1.14 -0.53 0.8 -1.72c0.03,-0.07 0.07,-0.11 0.12,-0.13 0.05,-0.02 0.12,-0.02 0.18,-0.02 0.13,0.01 0.27,0.05 0.43,0.1 0.15,0.05 0.31,0.11 0.47,0.18 0.44,0.21 0.73,0.46 0.87,0.75 0.14,0.29 0.14,0.59 -0.01,0.91 -0.09,0.2 -0.23,0.35 -0.41,0.46 -0.18,0.11 -0.38,0.16 -0.61,0.16 -0.22,0 -0.46,-0.05 -0.7,-0.16zm-0.06 -0.24l0.75 0.15c0.03,0.14 0.06,0.28 0.09,0.42 0.04,0.14 0.07,0.27 0.1,0.4 0.03,0.13 0.05,0.25 0.08,0.36 0.02,0.11 0.04,0.2 0.05,0.27 -0.08,0.09 -0.17,0.14 -0.27,0.16 -0.1,0.02 -0.2,0 -0.29,-0.04 -0.13,-0.06 -0.21,-0.13 -0.25,-0.21 -0.03,-0.08 -0.06,-0.18 -0.08,-0.3l-0.18 -1.21zm-0.95 -0.57l0.76 0.35 -0.6 1.28c-0.03,0 -0.08,-0.01 -0.15,-0.03 -0.07,-0.03 -0.14,-0.05 -0.21,-0.09 -0.15,-0.06 -0.24,-0.14 -0.28,-0.22 -0.04,-0.08 -0.02,-0.19 0.04,-0.32l0.44 -0.97z" class="fil2" id="_8"></path>
   <path d="M38.35 7.86l0.65 0.47 -1.34 1.84c-0.03,-0.01 -0.07,-0.03 -0.13,-0.06 -0.06,-0.03 -0.13,-0.07 -0.19,-0.11 -0.11,-0.08 -0.17,-0.18 -0.19,-0.29 -0.02,-0.11 0.02,-0.22 0.09,-0.33l1.11 -1.52zm-0.12 1.54l-0.66 -0.47 1.1 -1.52c0.08,-0.11 0.18,-0.17 0.29,-0.19 0.11,-0.02 0.22,0.01 0.33,0.09 0.06,0.05 0.11,0.09 0.16,0.14 0.05,0.05 0.08,0.09 0.11,0.11l-1.33 1.84zm-0.08 -0.51l0.38 -0.53 1.33 0.96c0,0.05 -0.01,0.09 -0.03,0.15 -0.02,0.05 -0.05,0.11 -0.08,0.16 -0.07,0.1 -0.14,0.15 -0.22,0.16 -0.07,0.01 -0.14,0 -0.22,-0.05l-1.16 -0.85zm-0.81 1.11l0.39 -0.54 1.48 1.07c0,0.04 -0.01,0.09 -0.03,0.15 -0.02,0.06 -0.05,0.11 -0.09,0.16 -0.07,0.1 -0.14,0.15 -0.21,0.17 -0.08,0.01 -0.15,-0.01 -0.22,-0.06l-1.32 -0.95zm1.56 -2.16l0.39 -0.53 1.45 1.06c0,0.04 0,0.09 -0.02,0.14 -0.02,0.05 -0.05,0.11 -0.09,0.16 -0.07,0.09 -0.14,0.15 -0.21,0.16 -0.08,0.02 -0.15,0 -0.22,-0.05l-1.3 -0.94z" class="fil2" id="_9"></path>
   <path d="M41 9.76l0.59 0.56 -1.56 1.65c-0.03,-0.01 -0.08,-0.04 -0.13,-0.08 -0.06,-0.04 -0.11,-0.08 -0.17,-0.13 -0.1,-0.1 -0.15,-0.2 -0.15,-0.31 -0.01,-0.12 0.04,-0.22 0.13,-0.32l1.29 -1.37zm-0.32 1.52l-0.58 -0.56 1.28 -1.36c0.09,-0.1 0.2,-0.15 0.31,-0.15 0.11,0 0.22,0.04 0.31,0.14 0.06,0.05 0.11,0.1 0.15,0.16 0.04,0.05 0.07,0.09 0.09,0.12l-1.56 1.65zm-0.01 -0.52l0.45 -0.47 1.19 1.12c-0.01,0.05 -0.02,0.09 -0.05,0.14 -0.02,0.06 -0.05,0.11 -0.1,0.15 -0.08,0.09 -0.16,0.13 -0.23,0.14 -0.08,0 -0.15,-0.03 -0.21,-0.09l-1.05 -0.99zm-0.94 1l0.45 -0.48 1.33 1.25c-0.01,0.04 -0.02,0.08 -0.05,0.14 -0.03,0.05 -0.06,0.11 -0.11,0.15 -0.08,0.09 -0.15,0.13 -0.23,0.13 -0.08,0.01 -0.15,-0.02 -0.21,-0.08l-1.18 -1.11zm1.82 -1.94l0.45 -0.47 1.31 1.23c0,0.04 -0.02,0.09 -0.04,0.14 -0.03,0.05 -0.06,0.1 -0.11,0.15 -0.08,0.08 -0.16,0.13 -0.23,0.13 -0.08,0.01 -0.15,-0.02 -0.21,-0.08l-1.17 -1.1z" class="fil2" id="_10"></path>
   <circle r="23.42" cy="27.14" cx="26.78" class="fil0 str1"></circle>
   <path d="M14.26 45l-0.7 0.9c-0.06,0.08 -0.12,0.12 -0.19,0.14 -0.06,0.02 -0.14,0.02 -0.24,0 -0.11,-0.01 -0.25,-0.06 -0.42,-0.15 -0.17,-0.08 -0.33,-0.18 -0.48,-0.29 -0.27,-0.22 -0.48,-0.46 -0.62,-0.72 -0.15,-0.27 -0.2,-0.56 -0.17,-0.86 0.03,-0.3 0.17,-0.61 0.42,-0.93 0.24,-0.3 0.5,-0.5 0.79,-0.61 0.29,-0.1 0.58,-0.12 0.89,-0.05 0.3,0.07 0.58,0.21 0.84,0.42 0.18,0.13 0.32,0.27 0.42,0.41 0.1,0.14 0.16,0.27 0.18,0.39 0.02,0.12 -0.01,0.23 -0.07,0.31 -0.05,0.07 -0.11,0.11 -0.19,0.13 -0.07,0.03 -0.14,0.04 -0.2,0.02 -0.04,-0.1 -0.09,-0.21 -0.17,-0.34 -0.08,-0.12 -0.19,-0.24 -0.34,-0.36 -0.15,-0.12 -0.32,-0.2 -0.5,-0.23 -0.17,-0.03 -0.35,-0.01 -0.52,0.07 -0.16,0.07 -0.32,0.19 -0.45,0.37 -0.15,0.19 -0.24,0.37 -0.27,0.55 -0.04,0.18 -0.02,0.34 0.05,0.5 0.07,0.15 0.19,0.29 0.34,0.41 0.07,0.06 0.14,0.1 0.21,0.13 0.07,0.03 0.13,0.05 0.17,0.06l0.39 -0.5 -0.5 -0.39c0.01,-0.04 0.02,-0.09 0.04,-0.15 0.02,-0.05 0.05,-0.11 0.09,-0.16 0.07,-0.09 0.14,-0.14 0.22,-0.14 0.07,-0.01 0.14,0.01 0.21,0.06l0.72 0.57c0.08,0.06 0.12,0.13 0.13,0.21 0.01,0.07 -0.01,0.15 -0.08,0.23zm0.91 -0.18l0.72 0.42 -1.13 1.96 -0.36 -0.16c-0.11,-0.06 -0.19,-0.15 -0.22,-0.26 -0.02,-0.11 -0.01,-0.22 0.06,-0.34l0.93 -1.62zm-0.77 2.22l0.34 -0.58 1.49 0.85c0,0.05 -0.01,0.1 -0.02,0.15 -0.01,0.06 -0.03,0.12 -0.07,0.18 -0.06,0.1 -0.12,0.16 -0.19,0.19 -0.08,0.02 -0.15,0.01 -0.23,-0.03l-1.32 -0.76zm0.97 -0.9l-0.72 -0.42 1.03 -1.78c0.03,0.01 0.09,0.03 0.16,0.06 0.07,0.03 0.13,0.06 0.19,0.09 0.14,0.08 0.23,0.16 0.26,0.24 0.03,0.09 0.01,0.19 -0.07,0.33l-0.85 1.48zm2.51 2.76c-0.28,-0.11 -0.49,-0.25 -0.65,-0.43 -0.16,-0.18 -0.26,-0.38 -0.29,-0.6 -0.04,-0.22 -0.01,-0.45 0.08,-0.69l0.14 -0.34 0.77 0.31 -0.12 0.31c-0.08,0.19 -0.08,0.36 -0.02,0.5 0.06,0.14 0.18,0.25 0.34,0.31 0.16,0.07 0.31,0.07 0.46,0 0.14,-0.06 0.25,-0.18 0.32,-0.37l0.13 -0.31 0.77 0.3 -0.13 0.34c-0.09,0.24 -0.23,0.43 -0.4,0.56 -0.18,0.14 -0.39,0.22 -0.62,0.24 -0.24,0.02 -0.5,-0.02 -0.78,-0.13zm-0.01 -1.6l-0.77 -0.3 0.7 -1.79c0.04,0 0.1,0.02 0.17,0.03 0.07,0.02 0.14,0.04 0.21,0.07 0.14,0.05 0.24,0.12 0.29,0.2 0.04,0.08 0.04,0.18 -0.02,0.33l-0.58 1.46zm1.88 0.75l-0.78 -0.3 0.71 -1.8c0.04,0.01 0.1,0.02 0.17,0.04 0.08,0.01 0.15,0.03 0.21,0.06 0.15,0.06 0.24,0.12 0.29,0.2 0.04,0.08 0.04,0.19 -0.02,0.33l-0.58 1.47zm1.74 -0.81l0.15 -0.65 1.64 0.38c0.01,0.04 0.02,0.09 0.03,0.15 0,0.06 0,0.12 -0.02,0.18 -0.02,0.12 -0.07,0.2 -0.13,0.24 -0.07,0.04 -0.14,0.05 -0.23,0.03l-1.44 -0.33zm0.9 -0.47l-0.14 0.65 -1.64 -0.38c-0.02,-0.04 -0.03,-0.09 -0.03,-0.15 -0.01,-0.06 0,-0.12 0.01,-0.19 0.03,-0.11 0.08,-0.19 0.14,-0.23 0.06,-0.05 0.14,-0.06 0.22,-0.04l1.44 0.34zm-0.9 0.32l0.81 0.19 -0.63 2.7c-0.04,0.01 -0.09,0 -0.16,0 -0.08,-0.01 -0.15,-0.02 -0.22,-0.04 -0.16,-0.04 -0.27,-0.09 -0.32,-0.16 -0.05,-0.07 -0.06,-0.18 -0.03,-0.32l0.55 -2.37zm2.04 0.96l0.81 0.06 -0.17 2.28c-0.04,0 -0.09,0.01 -0.16,0.01 -0.06,0.01 -0.14,0.01 -0.21,0 -0.14,-0.01 -0.24,-0.06 -0.31,-0.14 -0.08,-0.09 -0.11,-0.2 -0.1,-0.33l0.14 -1.88zm0.71 1.38l-0.81 -0.06 0.15 -1.87c0.01,-0.13 0.05,-0.24 0.14,-0.31 0.09,-0.07 0.2,-0.1 0.33,-0.09 0.08,0 0.15,0.01 0.21,0.03 0.07,0.01 0.12,0.03 0.15,0.04l-0.17 2.26zm-0.34 -0.39l0.05 -0.66 1.64 0.13c0.02,0.04 0.04,0.08 0.05,0.14 0.02,0.06 0.02,0.12 0.02,0.18 -0.01,0.12 -0.05,0.2 -0.1,0.25 -0.06,0.05 -0.13,0.07 -0.22,0.07l-1.44 -0.11zm-0.1 1.36l0.05 -0.66 1.82 0.14c0.02,0.04 0.04,0.08 0.05,0.14 0.01,0.06 0.02,0.12 0.01,0.19 -0.01,0.12 -0.04,0.2 -0.1,0.25 -0.05,0.05 -0.12,0.07 -0.21,0.06l-1.62 -0.12zm0.2 -2.65l0.05 -0.65 1.79 0.13c0.03,0.04 0.04,0.08 0.06,0.14 0.01,0.05 0.01,0.11 0.01,0.18 -0.01,0.11 -0.04,0.2 -0.1,0.25 -0.05,0.05 -0.13,0.08 -0.22,0.07l-1.59 -0.12zm2.39 0.53l0.75 -0.07c0.02,0.16 0.05,0.31 0.06,0.46 0.02,0.15 0.04,0.3 0.05,0.44 0.01,0.14 0.03,0.28 0.04,0.41l0.08 1.05c-0.04,0.01 -0.09,0.02 -0.16,0.04 -0.07,0.01 -0.14,0.02 -0.21,0.03 -0.16,0.01 -0.27,-0.01 -0.34,-0.06 -0.07,-0.05 -0.11,-0.14 -0.12,-0.28l-0.15 -2.02zm3 1.18l-0.75 0.06c-0.05,-0.26 -0.08,-0.51 -0.1,-0.75 -0.03,-0.24 -0.05,-0.47 -0.06,-0.69l-0.07 -0.91c0.03,-0.01 0.09,-0.02 0.15,-0.04 0.07,-0.02 0.14,-0.03 0.22,-0.03 0.16,-0.02 0.27,0 0.34,0.06 0.07,0.05 0.11,0.14 0.12,0.28l0.15 2.02zm-0.02 -0.26l0.09 1.11c-0.05,0.05 -0.11,0.09 -0.19,0.12 -0.09,0.03 -0.19,0.06 -0.3,0.06 -0.13,0.01 -0.24,0 -0.35,-0.03 -0.11,-0.03 -0.21,-0.11 -0.29,-0.25l-0.75 -1.2c-0.05,-0.07 -0.09,-0.15 -0.13,-0.23 -0.05,-0.07 -0.09,-0.15 -0.13,-0.23 -0.05,-0.08 -0.09,-0.16 -0.13,-0.24l-0.78 0.24 -0.08 -1.07c0.04,-0.07 0.1,-0.12 0.19,-0.16 0.09,-0.04 0.19,-0.06 0.3,-0.07 0.12,-0.01 0.23,0 0.34,0.04 0.11,0.03 0.21,0.11 0.29,0.24l0.75 1.2c0.05,0.07 0.1,0.15 0.14,0.23 0.05,0.08 0.09,0.16 0.13,0.23 0.05,0.08 0.09,0.16 0.13,0.24l0.77 -0.23zm1.99 -0.18l-1.18 0.21c-0.03,-0.03 -0.06,-0.07 -0.09,-0.13 -0.02,-0.05 -0.04,-0.11 -0.05,-0.17 -0.03,-0.12 -0.01,-0.2 0.03,-0.26 0.05,-0.07 0.11,-0.1 0.2,-0.12l1.18 -0.21c0.03,0.03 0.05,0.07 0.08,0.12 0.03,0.06 0.05,0.11 0.06,0.17 0.02,0.12 0.01,0.21 -0.03,0.27 -0.05,0.07 -0.12,0.1 -0.2,0.12zm1.7 -0.73l-0.79 0.22 -0.41 -1.45c-0.04,-0.13 -0.03,-0.24 0.02,-0.34 0.06,-0.1 0.15,-0.17 0.28,-0.2 0.08,-0.02 0.15,-0.04 0.22,-0.05 0.07,-0.01 0.12,-0.01 0.16,-0.01l0.52 1.83zm-0.34 0.22l-0.18 -0.64 1.57 -0.44c0.03,0.02 0.07,0.06 0.1,0.11 0.03,0.05 0.06,0.11 0.08,0.17 0.03,0.11 0.03,0.2 -0.01,0.27 -0.03,0.07 -0.1,0.12 -0.18,0.14l-1.38 0.39zm-0.38 -1.35l-0.18 -0.64 1.75 -0.5c0.03,0.03 0.06,0.07 0.09,0.12 0.04,0.05 0.06,0.1 0.08,0.17 0.03,0.11 0.03,0.2 -0.01,0.27 -0.03,0.07 -0.09,0.11 -0.18,0.14l-1.55 0.44zm-0.16 1.04l0.8 -0.23 0.46 1.62c-0.03,0.01 -0.08,0.04 -0.15,0.07 -0.07,0.03 -0.14,0.05 -0.21,0.07 -0.16,0.05 -0.28,0.05 -0.36,0.01 -0.08,-0.04 -0.14,-0.12 -0.18,-0.26l-0.36 -1.28zm3.45 -1.29l0.33 -0.15c0.16,-0.07 0.28,-0.17 0.35,-0.29 0.06,-0.12 0.06,-0.25 0,-0.4 -0.07,-0.14 -0.16,-0.23 -0.29,-0.26 -0.13,-0.03 -0.3,0 -0.5,0.09 -0.05,0.02 -0.1,0.05 -0.15,0.07 -0.04,0.03 -0.08,0.05 -0.12,0.08l0.38 0.86zm0.66 0.41l-1.14 0.51 -0.78 -1.73c-0.03,-0.06 -0.04,-0.12 -0.02,-0.18 0.02,-0.05 0.06,-0.1 0.11,-0.14 0.09,-0.09 0.21,-0.18 0.34,-0.26 0.14,-0.09 0.29,-0.16 0.45,-0.24 0.45,-0.2 0.83,-0.26 1.14,-0.17 0.31,0.08 0.54,0.29 0.68,0.61 0.09,0.2 0.12,0.4 0.08,0.61 -0.04,0.2 -0.13,0.39 -0.27,0.56 -0.15,0.18 -0.35,0.32 -0.59,0.43zm-0.22 -0.12l0.61 -0.46c0.12,0.07 0.25,0.14 0.37,0.2 0.13,0.07 0.25,0.13 0.37,0.19 0.12,0.07 0.23,0.12 0.32,0.18 0.1,0.05 0.18,0.1 0.24,0.14 0.01,0.11 0,0.21 -0.05,0.3 -0.06,0.09 -0.13,0.16 -0.23,0.2 -0.12,0.06 -0.22,0.07 -0.31,0.05 -0.09,-0.03 -0.19,-0.07 -0.28,-0.14l-1.04 -0.66zm-1.05 0.35l0.76 -0.34 0.58 1.29c-0.03,0.02 -0.07,0.05 -0.13,0.09 -0.06,0.04 -0.13,0.08 -0.2,0.11 -0.15,0.06 -0.27,0.09 -0.35,0.06 -0.09,-0.03 -0.16,-0.1 -0.22,-0.24l-0.44 -0.97zm2.5 -2.23l0.68 -0.44 1.23 1.92c-0.02,0.02 -0.06,0.06 -0.11,0.1 -0.05,0.05 -0.11,0.09 -0.17,0.13 -0.12,0.08 -0.23,0.1 -0.34,0.08 -0.11,-0.03 -0.2,-0.1 -0.27,-0.21l-1.02 -1.58zm1.39 0.67l-0.68 0.44 -1.01 -1.58c-0.07,-0.11 -0.09,-0.22 -0.07,-0.33 0.03,-0.11 0.09,-0.2 0.21,-0.28 0.06,-0.04 0.13,-0.07 0.19,-0.1 0.06,-0.03 0.11,-0.04 0.14,-0.06l1.22 1.91zm-0.5 -0.11l-0.35 -0.55 1.38 -0.89c0.04,0.02 0.08,0.05 0.13,0.09 0.04,0.03 0.08,0.08 0.12,0.13 0.06,0.1 0.08,0.19 0.07,0.26 -0.02,0.08 -0.06,0.14 -0.14,0.18l-1.21 0.78zm0.74 1.15l-0.36 -0.55 1.54 -0.99c0.03,0.02 0.08,0.05 0.12,0.09 0.05,0.04 0.09,0.08 0.13,0.14 0.06,0.1 0.08,0.18 0.07,0.26 -0.02,0.07 -0.06,0.13 -0.13,0.18l-1.37 0.87zm-1.44 -2.23l-0.35 -0.56 1.51 -0.97c0.04,0.02 0.08,0.04 0.13,0.08 0.04,0.04 0.08,0.08 0.11,0.14 0.07,0.1 0.09,0.18 0.08,0.26 -0.01,0.07 -0.06,0.13 -0.13,0.18l-1.35 0.87zm2.19 -1.11l0.61 -0.53 1.49 1.73c-0.02,0.02 -0.05,0.06 -0.1,0.11 -0.04,0.06 -0.09,0.11 -0.15,0.16 -0.1,0.09 -0.21,0.13 -0.32,0.12 -0.11,-0.01 -0.21,-0.06 -0.3,-0.17l-1.23 -1.42zm1.47 0.47l-0.61 0.53 -1.22 -1.41c-0.09,-0.11 -0.14,-0.22 -0.13,-0.33 0.01,-0.11 0.07,-0.21 0.17,-0.3 0.06,-0.05 0.12,-0.09 0.17,-0.13 0.06,-0.03 0.11,-0.06 0.14,-0.07l1.48 1.71zm-0.52 -0.04l-0.42 -0.49 1.24 -1.08c0.04,0.01 0.09,0.04 0.14,0.06 0.04,0.03 0.09,0.07 0.13,0.12 0.08,0.09 0.12,0.17 0.11,0.25 0,0.07 -0.04,0.14 -0.1,0.2l-1.1 0.94zm0.9 1.04l-0.43 -0.5 1.38 -1.2c0.04,0.01 0.08,0.04 0.13,0.07 0.06,0.03 0.1,0.07 0.15,0.12 0.07,0.09 0.11,0.17 0.1,0.24 0,0.08 -0.04,0.15 -0.1,0.2l-1.23 1.07zm-1.74 -2.01l-0.43 -0.5 1.36 -1.18c0.04,0.01 0.09,0.03 0.13,0.06 0.05,0.03 0.1,0.07 0.14,0.12 0.08,0.09 0.11,0.17 0.11,0.25 0,0.07 -0.04,0.14 -0.1,0.2l-1.21 1.05z" class="fil2"></path>
   <path d="M9.03 26.78c0,-9.79 7.96,-17.75 17.75,-17.75 9.79,0 17.75,7.96 17.75,17.75 0,9.79 -7.96,17.75 -17.75,17.75 -9.79,0 -17.75,-7.96 -17.75,-17.75z" class="fil2"></path>
   <g style="clip-path:url(#id0)">
    <g>
     <path d="M16.14 16.03l7.04 7.04c-0.09,0.07 -0.17,0.15 -0.25,0.23 -0.08,0.09 -0.16,0.17 -0.24,0.26l-7.04 -7.05 0.49 -0.48z" class="fil3 str2" id="_1_0"></path>
     <path d="M37.46 37.35l-0.48 0.49 -7.04 -7.04c0.08,-0.07 0.17,-0.16 0.25,-0.24 0.08,-0.08 0.16,-0.16 0.24,-0.25l7.03 7.04z" class="fil3 str3"></path>
     <path d="M18.7 35.95l-1.08 -1.1 3.34 -3.23c-1.46,-2.49 -1.37,-4.19 0.28,-5.11 1.13,2.38 1.66,4.42 0.04,5.25l0.44 0.45c0.94,-1.57 2.65,-1.56 5.12,0.03 -0.73,1.81 -2.66,1.37 -4.95,0.27l-3.19 3.44zm10.06 -5.67c-2.56,-1.65 -4.3,-1.6 -5.22,0.14 2.4,1.2 4.46,1.74 5.22,-0.14zm-5.74 -0.39c-1.61,-2.62 -1.57,-4.39 0.14,-5.33 1.17,2.45 1.7,4.55 -0.14,5.33zm7.62 -1.54c-2.56,-1.64 -4.3,-1.59 -5.22,0.15 2.41,1.2 4.46,1.73 5.22,-0.15zm-5.74 -0.38c-1.61,-2.62 -1.56,-4.4 0.14,-5.34 1.17,2.46 1.7,4.56 -0.14,5.34zm7.57 -1.49c-2.55,-1.65 -4.29,-1.6 -5.21,0.14 2.4,1.2 4.45,1.74 5.21,-0.14zm-5.74 -0.39c-1.61,-2.61 -1.56,-4.39 0.15,-5.33 1.17,2.45 1.69,4.55 -0.15,5.33zm7.71 -1.62c-2.56,-1.64 -4.3,-1.59 -5.22,0.15 2.4,1.19 4.46,1.73 5.22,-0.15zm-5.74 -0.39c-1.61,-2.61 -1.57,-4.39 0.14,-5.33 1.17,2.46 1.69,4.56 -0.14,5.33zm3.4 -3.45c0.31,-2.74 1.51,-3.75 3.6,-3.02 -0.58,2.33 -1.49,3.95 -3.6,3.02zm4.24 1.9c-2.56,-1.65 -4.3,-1.6 -5.22,0.14 2.41,1.2 4.46,1.74 5.22,-0.14zm-5.74 -0.39c-1.61,-2.62 -1.56,-4.39 0.14,-5.33 1.17,2.45 1.7,4.55 -0.14,5.33z" class="fil4"></path>
    </g>
   </g>
   <path d="M9.03 26.78c0,-9.79 7.96,-17.75 17.75,-17.75 9.79,0 17.75,7.96 17.75,17.75 0,9.79 -7.96,17.75 -17.75,17.75 -9.79,0 -17.75,-7.96 -17.75,-17.75z" class="fil5"></path>
   <path d="M44.95 14.96c2.42,3.6 3.71,7.84 3.71,12.18 0,4.95 -1.68,9.76 -4.77,13.63" class="fil0 str4"></path>
   <path d="M9.6 40.68c-3.04,-3.85 -4.69,-8.63 -4.69,-13.54 0,-4.34 1.29,-8.58 3.7,-12.19" class="fil0 str4"></path>
  </g>
 </g>
</svg>
