<svg xmlns:xlink="http://www.w3.org/1999/xlink" viewBox="0 0 67.67 67.67" style="shape-rendering:geometricPrecision; text-rendering:geometricPrecision; image-rendering:optimizeQuality; fill-rule:evenodd; clip-rule:evenodd" version="1.1" height="614px" width="614px" xml:space="preserve" xmlns="http://www.w3.org/2000/svg">
 <defs>
  <style type="text/css">
   
    .str0 {stroke:#F8D63A;stroke-width:0.88;stroke-miterlimit:2.61313}
    .str1 {stroke:#FEFEFE;stroke-width:0.88;stroke-linecap:round;stroke-linejoin:round;stroke-miterlimit:2.61313}
    .fil0 {fill:none}
    .fil4 {fill:none;fill-rule:nonzero}
    .fil1 {fill:#4F2A22}
    .fil2 {fill:#FEFEFE;fill-rule:nonzero}
    .fil3 {fill:black;fill-rule:nonzero}
   
  </style>
   <clipPath style="clip-rule:nonzero" id="id0">
    <path d="M11.41 33.84c0,-12.37 10.06,-22.43 22.42,-22.43 12.37,0 22.43,10.06 22.43,22.43 0,12.36 -10.06,22.42 -22.43,22.42 -12.36,0 -22.42,-10.06 -22.42,-22.42z"></path>
   </clipPath>
 </defs>
 <g id="Layer_x0020_1">
  <metadata id="CorelCorpID_0Corel-Layer"></metadata>
  <circle r="33.39" cy="33.83" cx="33.83" class="fil0 str0"></circle>
  <path d="M1.49 33.84c0,-8.93 3.62,-17.01 9.48,-22.87 5.86,-5.85 13.94,-9.48 22.86,-9.48 8.93,0 17.01,3.63 22.87,9.48 5.85,5.86 9.48,13.94 9.48,22.87 0,8.92 -3.63,17 -9.48,22.86 -5.86,5.85 -13.94,9.48 -22.87,9.48 -8.92,0 -17,-3.63 -22.86,-9.48 -5.86,-5.86 -9.48,-13.94 -9.48,-22.86zm9.92 0c0,-12.37 10.06,-22.43 22.42,-22.43 12.37,0 22.43,10.06 22.43,22.43 0,12.36 -10.06,22.42 -22.43,22.42 -12.36,0 -22.42,-10.06 -22.42,-22.42z" class="fil1"></path>
  <circle r="25.04" cy="33.83" cx="33.83" class="fil0"></circle>
  <path d="M10.49 22.16l-0.43 0.93 -1.96 -0.9 -0.06 0.77c-0.07,0.05 -0.15,0.08 -0.24,0.11 -0.09,0.02 -0.2,0.01 -0.32,-0.05 -0.22,-0.1 -0.31,-0.3 -0.27,-0.61l0.06 -0.87 0.1 -0.21c0.07,-0.15 0.17,-0.25 0.31,-0.3 0.13,-0.05 0.27,-0.04 0.43,0.03l2.38 1.1zm-1.12 0.61l0.43 -0.93 1.64 0.76c-0.01,0.04 -0.02,0.11 -0.04,0.19 -0.02,0.08 -0.06,0.16 -0.09,0.25 -0.09,0.18 -0.18,0.29 -0.28,0.34 -0.1,0.06 -0.23,0.05 -0.4,-0.03l-1.26 -0.58z" class="fil2"></path>
  <path d="M11.37 18.58c-0.26,-0.16 -0.49,-0.27 -0.7,-0.32 -0.21,-0.06 -0.38,-0.07 -0.53,-0.02 -0.14,0.04 -0.26,0.13 -0.34,0.26 -0.08,0.13 -0.11,0.27 -0.09,0.42 0.03,0.15 0.11,0.31 0.25,0.47 0.14,0.16 0.33,0.32 0.59,0.48 0.39,0.25 0.71,0.38 0.98,0.39 0.26,0.01 0.46,-0.09 0.59,-0.29 0.13,-0.21 0.13,-0.43 0.01,-0.67 -0.12,-0.23 -0.38,-0.47 -0.76,-0.72zm1.44 1.82c-0.19,0.3 -0.42,0.52 -0.7,0.66 -0.28,0.14 -0.6,0.18 -0.96,0.14 -0.36,-0.05 -0.74,-0.2 -1.15,-0.46 -0.41,-0.26 -0.71,-0.54 -0.9,-0.85 -0.19,-0.31 -0.28,-0.61 -0.28,-0.93 0.01,-0.31 0.1,-0.62 0.29,-0.91 0.18,-0.28 0.41,-0.5 0.69,-0.64 0.29,-0.14 0.61,-0.19 0.97,-0.15 0.36,0.04 0.74,0.19 1.15,0.45 0.41,0.26 0.71,0.54 0.91,0.85 0.19,0.3 0.28,0.61 0.27,0.93 0,0.31 -0.1,0.62 -0.29,0.91z" class="fil2" id="_1"></path>
  <path d="M14.15 15.12c-0.23,-0.2 -0.45,-0.34 -0.64,-0.42 -0.2,-0.09 -0.37,-0.12 -0.52,-0.1 -0.16,0.02 -0.28,0.09 -0.38,0.21 -0.1,0.11 -0.15,0.25 -0.15,0.4 0.01,0.16 0.06,0.32 0.18,0.5 0.11,0.18 0.28,0.37 0.51,0.57 0.35,0.3 0.65,0.47 0.91,0.52 0.26,0.05 0.47,-0.02 0.63,-0.2 0.16,-0.19 0.19,-0.4 0.11,-0.65 -0.09,-0.25 -0.31,-0.53 -0.65,-0.83zm1.16 2.01c-0.23,0.27 -0.5,0.45 -0.79,0.55 -0.3,0.1 -0.63,0.1 -0.97,0 -0.35,-0.1 -0.7,-0.31 -1.07,-0.63 -0.37,-0.31 -0.63,-0.64 -0.77,-0.97 -0.14,-0.33 -0.19,-0.65 -0.14,-0.96 0.06,-0.31 0.19,-0.59 0.42,-0.85 0.22,-0.26 0.48,-0.44 0.78,-0.54 0.3,-0.09 0.63,-0.1 0.98,0 0.35,0.09 0.71,0.29 1.07,0.61 0.37,0.32 0.63,0.64 0.77,0.97 0.15,0.33 0.2,0.65 0.14,0.96 -0.05,0.31 -0.19,0.6 -0.42,0.86z" class="fil2" id="_2"></path>
  <path d="M16.53 11.54c0.2,0.26 0.28,0.53 0.24,0.8 -0.04,0.28 -0.18,0.51 -0.43,0.71 -0.24,0.19 -0.5,0.27 -0.78,0.25 -0.27,-0.03 -0.52,-0.17 -0.72,-0.43 -0.21,-0.26 -0.29,-0.52 -0.24,-0.8 0.04,-0.27 0.18,-0.5 0.43,-0.69 0.24,-0.2 0.5,-0.28 0.78,-0.26 0.27,0.02 0.51,0.16 0.72,0.42zm-1.1 0.87c0.09,0.11 0.18,0.18 0.28,0.2 0.09,0.02 0.18,0.01 0.25,-0.05 0.07,-0.06 0.11,-0.14 0.11,-0.23 0,-0.1 -0.04,-0.21 -0.13,-0.32 -0.09,-0.11 -0.18,-0.18 -0.28,-0.2 -0.09,-0.02 -0.17,0 -0.25,0.06 -0.07,0.05 -0.11,0.13 -0.11,0.23 0,0.09 0.04,0.2 0.13,0.31zm1.8 1.72l-0.29 -4.27c0.12,-0.07 0.25,-0.12 0.37,-0.14 0.12,-0.03 0.21,-0.01 0.27,0.07 0.04,0.05 0.07,0.12 0.09,0.19 0.01,0.08 0.02,0.16 0.03,0.25l0.29 4.27c-0.13,0.09 -0.26,0.14 -0.38,0.15 -0.12,0.02 -0.21,-0.01 -0.26,-0.08 -0.05,-0.05 -0.07,-0.11 -0.09,-0.19 -0.02,-0.07 -0.03,-0.15 -0.03,-0.25zm2.86 -2.64c0.2,0.26 0.29,0.53 0.25,0.8 -0.04,0.28 -0.19,0.51 -0.43,0.71 -0.25,0.19 -0.51,0.27 -0.79,0.25 -0.28,-0.02 -0.52,-0.16 -0.72,-0.42 -0.21,-0.26 -0.29,-0.53 -0.24,-0.8 0.04,-0.28 0.19,-0.51 0.43,-0.7 0.25,-0.2 0.51,-0.28 0.78,-0.26 0.28,0.02 0.52,0.16 0.72,0.42zm-1.1 0.87c0.09,0.12 0.18,0.19 0.28,0.21 0.09,0.02 0.18,0 0.25,-0.06 0.08,-0.06 0.11,-0.14 0.11,-0.23 0.01,-0.1 -0.04,-0.21 -0.13,-0.32 -0.09,-0.11 -0.18,-0.18 -0.27,-0.2 -0.1,-0.02 -0.18,0 -0.25,0.06 -0.08,0.06 -0.12,0.13 -0.12,0.23 0,0.1 0.04,0.2 0.13,0.31z" class="fil2" id="_3"></path>
  <path d="M22.71 9l0.37 -0.18c0.21,-0.09 0.36,-0.22 0.44,-0.38 0.07,-0.15 0.07,-0.33 -0.02,-0.51 -0.08,-0.19 -0.21,-0.31 -0.37,-0.35 -0.16,-0.04 -0.35,-0.01 -0.57,0.09 -0.08,0.03 -0.14,0.07 -0.2,0.1 -0.06,0.03 -0.12,0.06 -0.17,0.1l0.52 1.13zm0.78 0.55l-1.39 0.63 -1.02 -2.24c-0.04,-0.08 -0.04,-0.15 -0.02,-0.22 0.03,-0.07 0.07,-0.13 0.13,-0.19 0.12,-0.11 0.27,-0.22 0.45,-0.33 0.18,-0.11 0.35,-0.2 0.5,-0.27 0.57,-0.26 1.05,-0.34 1.45,-0.23 0.4,0.11 0.69,0.37 0.88,0.78 0.12,0.27 0.17,0.53 0.13,0.79 -0.03,0.26 -0.14,0.5 -0.33,0.72 -0.19,0.22 -0.45,0.4 -0.78,0.56zm-1.58 0.21l0.95 -0.44 0.75 1.64c-0.03,0.03 -0.09,0.07 -0.16,0.11 -0.08,0.05 -0.17,0.1 -0.25,0.14 -0.19,0.08 -0.34,0.11 -0.45,0.08 -0.1,-0.03 -0.2,-0.13 -0.27,-0.3l-0.57 -1.23z" class="fil2" id="_4"></path>
  <path d="M25.97 8.63l-0.11 -0.48 0.99 -0.23 0.11 0.48c0.05,0.2 0.13,0.34 0.26,0.4 0.13,0.07 0.28,0.08 0.48,0.03 0.12,-0.02 0.22,-0.06 0.29,-0.1 0.08,-0.04 0.13,-0.08 0.17,-0.11l-0.22 -0.95 1 -0.23 0.24 1.07c0.03,0.11 0.03,0.21 0,0.3 -0.02,0.08 -0.07,0.16 -0.15,0.24 -0.13,0.12 -0.29,0.24 -0.48,0.33 -0.2,0.1 -0.42,0.18 -0.68,0.24 -0.32,0.07 -0.61,0.09 -0.87,0.05 -0.26,-0.04 -0.48,-0.14 -0.66,-0.31 -0.17,-0.17 -0.3,-0.41 -0.37,-0.73zm3.04 -0.89l-1 0.23 -0.41 -1.77c0.04,-0.02 0.1,-0.05 0.18,-0.08 0.08,-0.03 0.16,-0.06 0.26,-0.08 0.19,-0.05 0.34,-0.05 0.44,0 0.1,0.04 0.17,0.16 0.22,0.34l0.31 1.36zm-2.09 0.48l-0.99 0.23 -0.41 -1.77c0.04,-0.03 0.1,-0.05 0.17,-0.09 0.08,-0.03 0.17,-0.05 0.26,-0.08 0.19,-0.04 0.34,-0.04 0.44,0.01 0.11,0.04 0.18,0.16 0.22,0.34l0.31 1.36z" class="fil2" id="_5"></path>
  <path d="M30.82 6.54l0.11 0.85 -1.01 0.13 -0.13 -0.97c-0.01,-0.13 0,-0.24 0.05,-0.34 0.05,-0.1 0.13,-0.19 0.23,-0.27 0.14,-0.11 0.31,-0.2 0.51,-0.28 0.21,-0.08 0.43,-0.14 0.66,-0.17 0.46,-0.06 0.71,0.06 0.76,0.37 0,0.08 0,0.14 -0.01,0.21 -0.01,0.07 -0.03,0.13 -0.05,0.18 -0.05,-0.01 -0.1,-0.01 -0.17,-0.01 -0.07,0 -0.14,0.01 -0.22,0.02 -0.13,0.02 -0.27,0.05 -0.4,0.1 -0.13,0.05 -0.24,0.11 -0.33,0.18zm-0.93 0.72l1.01 -0.11 0.23 1.78c-0.04,0.02 -0.1,0.04 -0.18,0.06 -0.08,0.02 -0.17,0.04 -0.27,0.05 -0.19,0.03 -0.33,0.01 -0.43,-0.05 -0.1,-0.05 -0.16,-0.17 -0.18,-0.35l-0.18 -1.38z" class="fil2" id="_6"></path>
  <path d="M33.29 7.61l-0.02 -0.68 1.72 -0.22c-0.01,-0.13 -0.06,-0.25 -0.16,-0.36 -0.09,-0.11 -0.24,-0.17 -0.44,-0.18 -0.2,-0.01 -0.38,0.06 -0.52,0.19 -0.14,0.14 -0.22,0.33 -0.24,0.59l0.02 0.48c0.03,0.25 0.13,0.43 0.3,0.55 0.17,0.11 0.38,0.17 0.62,0.18 0.19,0.01 0.37,-0.01 0.54,-0.06 0.17,-0.05 0.31,-0.11 0.42,-0.16 0.07,0.04 0.12,0.1 0.16,0.18 0.05,0.07 0.06,0.15 0.06,0.23 0,0.14 -0.06,0.25 -0.17,0.34 -0.11,0.09 -0.26,0.15 -0.46,0.19 -0.19,0.04 -0.41,0.06 -0.65,0.05 -0.35,-0.01 -0.67,-0.09 -0.95,-0.23 -0.27,-0.15 -0.49,-0.35 -0.64,-0.62 -0.15,-0.28 -0.22,-0.61 -0.21,-1.01 0.01,-0.29 0.07,-0.55 0.17,-0.76 0.1,-0.21 0.23,-0.39 0.4,-0.52 0.16,-0.13 0.34,-0.23 0.55,-0.29 0.2,-0.07 0.41,-0.09 0.62,-0.09 0.32,0.01 0.59,0.09 0.82,0.22 0.24,0.14 0.42,0.31 0.54,0.53 0.13,0.22 0.18,0.47 0.18,0.76 -0.01,0.14 -0.05,0.25 -0.13,0.32 -0.08,0.07 -0.19,0.11 -0.33,0.12l-2.2 0.25z" class="fil2" id="_7"></path>
  <path d="M36.92 9.53c-0.15,0.16 -0.33,0.22 -0.53,0.2 -0.18,-0.03 -0.32,-0.1 -0.43,-0.22 0.08,-0.16 0.16,-0.33 0.24,-0.51 0.08,-0.19 0.15,-0.37 0.22,-0.54 0.07,-0.18 0.12,-0.35 0.17,-0.49 0.07,-0.03 0.15,-0.05 0.25,-0.06 0.09,-0.01 0.19,-0.02 0.29,0 0.12,0.01 0.23,0.06 0.32,0.13 0.08,0.07 0.11,0.18 0.09,0.32 -0.01,0.12 -0.05,0.25 -0.12,0.4 -0.07,0.16 -0.15,0.3 -0.24,0.44 -0.09,0.14 -0.18,0.25 -0.26,0.33z" class="fil2" id="_8"></path>
  <path d="M40.25 6.52l0.92 0.25c-0.03,0.19 -0.07,0.39 -0.12,0.57 -0.04,0.19 -0.09,0.37 -0.13,0.55 -0.05,0.17 -0.09,0.34 -0.14,0.5l-0.36 1.28c-0.04,0 -0.11,-0.01 -0.2,-0.02 -0.09,-0.02 -0.18,-0.04 -0.26,-0.06 -0.2,-0.06 -0.33,-0.13 -0.38,-0.22 -0.06,-0.08 -0.07,-0.21 -0.02,-0.39l0.69 -2.46zm3.06 2.7l-0.93 -0.25c0.06,-0.33 0.13,-0.64 0.21,-0.94 0.08,-0.29 0.15,-0.57 0.23,-0.83l0.31 -1.11c0.05,0 0.12,0.01 0.2,0.02 0.09,0.01 0.18,0.02 0.27,0.05 0.19,0.05 0.32,0.13 0.38,0.22 0.06,0.09 0.07,0.22 0.02,0.39l-0.69 2.45zm0.08 -0.31l-0.38 1.35c-0.07,0.04 -0.16,0.06 -0.28,0.06 -0.11,0.01 -0.24,-0.01 -0.38,-0.05 -0.15,-0.04 -0.28,-0.11 -0.4,-0.19 -0.12,-0.09 -0.19,-0.22 -0.23,-0.42l-0.37 -1.75c-0.02,-0.11 -0.04,-0.22 -0.06,-0.33 -0.02,-0.11 -0.04,-0.22 -0.05,-0.33 -0.02,-0.11 -0.04,-0.23 -0.05,-0.34l-1.03 -0.05 0.37 -1.31c0.07,-0.06 0.17,-0.09 0.29,-0.1 0.13,-0.01 0.26,0.01 0.39,0.04 0.15,0.04 0.28,0.11 0.39,0.19 0.12,0.09 0.2,0.22 0.23,0.41l0.38 1.76c0.02,0.11 0.05,0.22 0.07,0.33 0.02,0.11 0.04,0.22 0.05,0.33 0.02,0.11 0.03,0.22 0.04,0.34l1.02 0.06z" class="fil2" id="_9"></path>
  <path d="M45.28 10.84c0.1,0.04 0.19,0.08 0.3,0.11 0.1,0.03 0.17,0.04 0.23,0.04l0.3 -0.59 -0.54 -0.21c-0.14,-0.07 -0.26,-0.1 -0.37,-0.09 -0.11,0.01 -0.19,0.06 -0.24,0.16 -0.05,0.1 -0.05,0.19 0,0.29 0.04,0.1 0.15,0.2 0.32,0.29zm1.23 -2.47c0.43,0.22 0.72,0.48 0.88,0.79 0.16,0.31 0.14,0.65 -0.05,1.02l-0.71 1.39c-0.06,0.1 -0.13,0.17 -0.21,0.2 -0.09,0.04 -0.18,0.06 -0.29,0.06 -0.16,0.01 -0.34,-0.01 -0.54,-0.06 -0.21,-0.05 -0.42,-0.14 -0.66,-0.26 -0.41,-0.21 -0.7,-0.46 -0.86,-0.75 -0.17,-0.29 -0.17,-0.6 0,-0.92 0.14,-0.28 0.34,-0.45 0.59,-0.51 0.25,-0.06 0.55,-0.02 0.9,0.12l0.86 0.34 0.04 -0.08c0.07,-0.13 0.07,-0.26 -0.01,-0.38 -0.07,-0.12 -0.21,-0.23 -0.41,-0.33 -0.16,-0.08 -0.32,-0.14 -0.49,-0.18 -0.16,-0.04 -0.32,-0.07 -0.46,-0.08 -0.04,-0.06 -0.05,-0.13 -0.05,-0.21 0,-0.09 0.02,-0.17 0.06,-0.24 0.08,-0.17 0.24,-0.25 0.47,-0.23 0.14,0.01 0.3,0.05 0.47,0.11 0.17,0.06 0.32,0.12 0.47,0.2z" class="fil2" id="_10"></path>
  <path d="M47.99 11l0.85 0.55 -0.39 0.62c-0.07,0.11 -0.09,0.21 -0.05,0.3 0.04,0.1 0.12,0.18 0.25,0.27 0.06,0.03 0.13,0.07 0.2,0.1 0.08,0.02 0.15,0.04 0.21,0.05 0,0.06 0.01,0.12 0,0.19 -0.01,0.06 -0.03,0.13 -0.07,0.19 -0.09,0.14 -0.21,0.21 -0.37,0.23 -0.17,0.01 -0.38,-0.06 -0.63,-0.22 -0.33,-0.21 -0.53,-0.44 -0.62,-0.7 -0.09,-0.27 -0.02,-0.56 0.19,-0.9l0.43 -0.68zm0.88 -0.18l0.42 -0.66 1.12 0.71c0,0.04 -0.01,0.1 -0.03,0.17 -0.02,0.07 -0.05,0.14 -0.09,0.21 -0.08,0.11 -0.16,0.18 -0.24,0.2 -0.09,0.02 -0.18,0.01 -0.27,-0.05l-0.91 -0.58zm-0.12 0.87l-0.85 -0.54 1.32 -2.09c0.04,0.01 0.11,0.04 0.19,0.07 0.07,0.03 0.15,0.07 0.23,0.12 0.17,0.1 0.27,0.21 0.31,0.31 0.03,0.11 0,0.24 -0.1,0.39l-1.1 1.74z" class="fil2" id="_11"></path>
  <path d="M50.07 13.07l0.33 -0.37 0.77 0.66 -0.32 0.37c-0.14,0.16 -0.2,0.31 -0.18,0.45 0.03,0.14 0.11,0.28 0.26,0.41 0.1,0.08 0.18,0.14 0.26,0.17 0.08,0.04 0.14,0.06 0.18,0.07l0.64 -0.74 0.78 0.67 -0.72 0.84c-0.07,0.08 -0.15,0.14 -0.23,0.17 -0.09,0.03 -0.19,0.03 -0.3,0.02 -0.17,-0.03 -0.35,-0.09 -0.55,-0.19 -0.2,-0.1 -0.39,-0.24 -0.59,-0.41 -0.25,-0.21 -0.43,-0.43 -0.56,-0.67 -0.12,-0.23 -0.16,-0.47 -0.13,-0.71 0.03,-0.25 0.15,-0.49 0.36,-0.74zm2.52 1.93l-0.78 -0.67 1.19 -1.38c0.04,0.02 0.1,0.05 0.17,0.1 0.07,0.04 0.14,0.09 0.22,0.15 0.15,0.13 0.23,0.25 0.26,0.36 0.02,0.11 -0.03,0.24 -0.15,0.38l-0.91 1.06zm-1.62 -1.4l-0.78 -0.67 1.19 -1.37c0.04,0.01 0.1,0.04 0.17,0.09 0.07,0.04 0.14,0.09 0.22,0.16 0.15,0.12 0.23,0.24 0.26,0.35 0.02,0.11 -0.03,0.24 -0.15,0.38l-0.91 1.06z" class="fil2" id="_12"></path>
  <path d="M54.63 15.92l-0.65 0.57 -0.66 -0.78 0.74 -0.64c0.1,-0.08 0.2,-0.13 0.31,-0.14 0.11,-0.01 0.23,0 0.35,0.04 0.17,0.05 0.34,0.14 0.52,0.27 0.18,0.13 0.35,0.28 0.5,0.46 0.3,0.35 0.34,0.63 0.1,0.84 -0.05,0.04 -0.11,0.08 -0.18,0.11 -0.06,0.02 -0.11,0.04 -0.17,0.05 -0.02,-0.04 -0.05,-0.09 -0.09,-0.14 -0.04,-0.06 -0.08,-0.11 -0.13,-0.17 -0.09,-0.11 -0.19,-0.2 -0.31,-0.29 -0.11,-0.08 -0.22,-0.14 -0.33,-0.18zm-1.11 -0.38l0.64 0.79 -1.35 1.16c-0.04,-0.02 -0.09,-0.06 -0.16,-0.12 -0.06,-0.05 -0.12,-0.12 -0.19,-0.19 -0.12,-0.15 -0.19,-0.27 -0.19,-0.39 -0.01,-0.11 0.06,-0.23 0.19,-0.34l1.06 -0.91z" class="fil2" id="_13"></path>
  <path d="M55.19 19.56c0.05,0.09 0.12,0.17 0.19,0.25 0.07,0.07 0.13,0.12 0.18,0.15l0.56 -0.35 -0.35 -0.46c-0.1,-0.13 -0.19,-0.22 -0.28,-0.27 -0.1,-0.05 -0.19,-0.04 -0.29,0.02 -0.09,0.06 -0.14,0.14 -0.15,0.25 -0.01,0.11 0.03,0.25 0.14,0.41zm2.3 -1.51c0.26,0.41 0.38,0.78 0.36,1.13 -0.02,0.35 -0.2,0.63 -0.55,0.86l-1.33 0.83c-0.09,0.06 -0.19,0.08 -0.28,0.07 -0.09,-0.01 -0.18,-0.04 -0.27,-0.09 -0.15,-0.07 -0.29,-0.18 -0.44,-0.33 -0.15,-0.15 -0.3,-0.33 -0.44,-0.55 -0.25,-0.4 -0.37,-0.76 -0.36,-1.1 0,-0.33 0.16,-0.59 0.47,-0.79 0.26,-0.16 0.52,-0.21 0.76,-0.14 0.25,0.08 0.48,0.27 0.72,0.57l0.57 0.72 0.07 -0.04c0.13,-0.09 0.19,-0.2 0.19,-0.34 -0.01,-0.14 -0.07,-0.3 -0.19,-0.49 -0.1,-0.15 -0.2,-0.28 -0.33,-0.4 -0.12,-0.12 -0.24,-0.22 -0.36,-0.31 0,-0.06 0.02,-0.13 0.07,-0.21 0.04,-0.07 0.09,-0.13 0.16,-0.17 0.17,-0.1 0.34,-0.09 0.53,0.04 0.12,0.08 0.23,0.19 0.35,0.33 0.11,0.14 0.22,0.27 0.3,0.41z" class="fil2" id="_14"></path>
  <path d="M57.48 21.08l0.45 0.92 -1.59 0.82c-0.03,-0.04 -0.08,-0.09 -0.12,-0.16 -0.05,-0.06 -0.1,-0.14 -0.14,-0.23 -0.09,-0.17 -0.13,-0.31 -0.11,-0.42 0.02,-0.12 0.11,-0.21 0.27,-0.3l1.24 -0.63zm-0.02 1.16l-0.45 -0.92 2.84 -1.46c0.03,0.03 0.07,0.09 0.12,0.15 0.05,0.07 0.1,0.15 0.14,0.23 0.09,0.18 0.13,0.32 0.11,0.43 -0.02,0.11 -0.11,0.21 -0.28,0.29l-2.48 1.28z" class="fil2" id="_15"></path>
  <circle r="29.58" cy="34.29" cx="33.83" class="fil0"></circle>
  <path d="M22.2 60.69l-0.51 0.13c-0.25,0.09 -0.51,0.11 -0.77,0.07 -0.27,-0.04 -0.52,-0.12 -0.75,-0.24 -0.31,-0.16 -0.55,-0.35 -0.71,-0.57 -0.16,-0.22 -0.25,-0.45 -0.28,-0.7 -0.02,-0.24 0.03,-0.48 0.15,-0.72 0.11,-0.21 0.24,-0.36 0.4,-0.47 0.16,-0.11 0.34,-0.18 0.52,-0.22 0.19,-0.03 0.37,-0.03 0.55,-0.01l0.14 0.77c-0.09,-0.02 -0.18,-0.02 -0.28,0 -0.09,0.02 -0.18,0.05 -0.25,0.1 -0.08,0.05 -0.14,0.13 -0.19,0.22 -0.08,0.17 -0.1,0.34 -0.04,0.5 0.05,0.17 0.19,0.31 0.4,0.42 0.09,0.04 0.21,0.08 0.37,0.11 0.16,0.04 0.33,0.02 0.53,-0.05l0.49 -0.27c0.12,-0.11 0.23,-0.25 0.34,-0.41 0.1,-0.16 0.19,-0.32 0.27,-0.47 0.08,0.01 0.16,0.02 0.23,0.04 0.07,0.01 0.13,0.04 0.19,0.07 0.17,0.08 0.25,0.18 0.26,0.31 0.01,0.12 -0.02,0.25 -0.1,0.4 -0.09,0.19 -0.22,0.37 -0.39,0.54 -0.16,0.18 -0.35,0.33 -0.57,0.45zm-0.26 0.85c-0.15,-0.08 -0.25,-0.22 -0.32,-0.43l-0.84 -2.68 -0.05 -0.33c-0.06,-0.24 -0.08,-0.43 -0.07,-0.57 0.02,-0.14 0.06,-0.26 0.11,-0.37 0.09,-0.16 0.21,-0.29 0.37,-0.39 0.15,-0.09 0.34,-0.14 0.54,-0.14 0.21,0.01 0.43,0.07 0.66,0.19 0.25,0.12 0.41,0.26 0.47,0.4 0.07,0.14 0.07,0.28 0,0.41 -0.03,0.06 -0.08,0.11 -0.13,0.16 -0.06,0.05 -0.13,0.08 -0.2,0.1 -0.04,-0.05 -0.08,-0.1 -0.14,-0.15 -0.06,-0.05 -0.13,-0.09 -0.2,-0.13 -0.11,-0.06 -0.22,-0.08 -0.33,-0.06 -0.1,0.01 -0.18,0.07 -0.23,0.17 -0.04,0.08 -0.05,0.17 -0.04,0.26 0.02,0.09 0.05,0.22 0.1,0.37l0.98 2.95c-0.07,0.13 -0.18,0.22 -0.31,0.26 -0.13,0.05 -0.25,0.04 -0.37,-0.02zm5.77 1.57c-0.06,0.04 -0.15,0.06 -0.28,0.07 -0.12,0 -0.25,-0.01 -0.39,-0.04 -0.16,-0.04 -0.29,-0.09 -0.4,-0.17 -0.11,-0.08 -0.18,-0.16 -0.2,-0.26 -0.03,-0.14 -0.07,-0.33 -0.11,-0.56 -0.04,-0.24 -0.08,-0.5 -0.12,-0.79 -0.04,-0.29 -0.07,-0.58 -0.11,-0.89 -0.03,-0.31 -0.06,-0.61 -0.08,-0.91 -0.02,-0.3 -0.04,-0.57 -0.05,-0.81 0.07,-0.04 0.16,-0.07 0.27,-0.09 0.12,-0.03 0.23,-0.03 0.35,0 0.15,0.04 0.26,0.1 0.34,0.18 0.07,0.08 0.11,0.21 0.11,0.38 0.03,0.51 0.07,0.99 0.11,1.46 0.03,0.47 0.08,0.95 0.13,1.45l0.03 0.01c0.16,-0.27 0.33,-0.56 0.5,-0.88 0.18,-0.31 0.35,-0.63 0.53,-0.97 0.18,-0.33 0.35,-0.66 0.52,-0.99 0.07,-0.01 0.15,-0.02 0.24,-0.02 0.08,-0.01 0.17,0 0.27,0.02 0.14,0.04 0.26,0.1 0.35,0.19 0.08,0.08 0.11,0.2 0.07,0.35 -0.02,0.09 -0.07,0.22 -0.16,0.4 -0.09,0.17 -0.21,0.37 -0.34,0.6 -0.13,0.22 -0.28,0.45 -0.43,0.69 -0.15,0.24 -0.3,0.46 -0.45,0.68 -0.15,0.21 -0.28,0.4 -0.41,0.56 -0.12,0.16 -0.22,0.27 -0.29,0.34zm3.23 -2.31l1.01 0.08 -0.21 2.87c-0.05,0 -0.11,0.01 -0.2,0.02 -0.08,0 -0.17,0 -0.27,0 -0.17,-0.02 -0.3,-0.08 -0.39,-0.18 -0.1,-0.11 -0.14,-0.25 -0.12,-0.42l0.18 -2.37zm0.89 1.74l-1.02 -0.08 0.18 -2.35c0.01,-0.18 0.07,-0.31 0.18,-0.4 0.11,-0.09 0.25,-0.13 0.42,-0.12 0.09,0.01 0.18,0.02 0.27,0.04 0.08,0.02 0.14,0.04 0.18,0.05l-0.21 2.86zm-0.43 -0.5l0.06 -0.82 2.08 0.16c0.02,0.04 0.04,0.1 0.06,0.17 0.02,0.07 0.02,0.15 0.02,0.23 -0.01,0.15 -0.05,0.25 -0.13,0.32 -0.07,0.06 -0.16,0.09 -0.27,0.08l-1.82 -0.14zm-0.13 1.73l0.06 -0.83 2.3 0.17c0.03,0.04 0.05,0.1 0.07,0.18 0.01,0.07 0.02,0.15 0.01,0.23 -0.01,0.15 -0.05,0.26 -0.12,0.32 -0.07,0.06 -0.16,0.09 -0.27,0.08l-2.05 -0.15zm0.26 -3.35l0.06 -0.83 2.26 0.17c0.03,0.05 0.06,0.1 0.07,0.17 0.02,0.07 0.02,0.15 0.01,0.23 -0.01,0.15 -0.05,0.26 -0.12,0.32 -0.07,0.07 -0.16,0.1 -0.27,0.09l-2.01 -0.15zm7.38 0.96l0.18 1.42c0.01,0.13 0,0.23 -0.04,0.3 -0.04,0.07 -0.11,0.15 -0.21,0.22 -0.11,0.08 -0.28,0.17 -0.51,0.25 -0.22,0.08 -0.45,0.14 -0.69,0.17 -0.43,0.05 -0.84,0.03 -1.2,-0.08 -0.37,-0.11 -0.68,-0.31 -0.92,-0.61 -0.24,-0.29 -0.4,-0.69 -0.46,-1.2 -0.06,-0.48 -0.01,-0.9 0.15,-1.25 0.16,-0.35 0.41,-0.63 0.74,-0.85 0.33,-0.21 0.7,-0.34 1.12,-0.39 0.29,-0.04 0.54,-0.04 0.75,-0.01 0.21,0.04 0.38,0.1 0.51,0.19 0.12,0.09 0.2,0.2 0.21,0.34 0.02,0.1 0,0.19 -0.04,0.28 -0.04,0.09 -0.1,0.15 -0.17,0.2 -0.12,-0.05 -0.27,-0.1 -0.45,-0.15 -0.18,-0.04 -0.39,-0.04 -0.62,-0.01 -0.25,0.03 -0.47,0.11 -0.66,0.24 -0.18,0.13 -0.31,0.31 -0.4,0.53 -0.08,0.21 -0.11,0.46 -0.07,0.74 0.04,0.3 0.12,0.54 0.26,0.73 0.13,0.18 0.3,0.32 0.5,0.39 0.2,0.07 0.42,0.09 0.66,0.06 0.12,-0.01 0.22,-0.04 0.31,-0.07 0.09,-0.03 0.16,-0.07 0.2,-0.1l-0.1 -0.79 -0.8 0.1c-0.03,-0.05 -0.06,-0.1 -0.09,-0.17 -0.04,-0.07 -0.06,-0.14 -0.07,-0.22 -0.02,-0.14 0,-0.25 0.06,-0.33 0.06,-0.07 0.14,-0.11 0.25,-0.13l1.15 -0.14c0.12,-0.02 0.23,0 0.3,0.06 0.08,0.06 0.13,0.15 0.15,0.28zm2.81 -2.02l-0.04 0.01c0,0.16 0,0.33 0,0.52 0,0.19 0,0.38 0,0.59 0,0.21 0.01,0.41 0.01,0.61l0.08 0.63c0.01,0.09 0.01,0.19 0.02,0.28 0,0.1 0.01,0.2 0.01,0.3 0.01,0.09 0.01,0.18 0.02,0.27 0,0.09 0,0.17 0,0.24 -0.04,0.03 -0.09,0.07 -0.14,0.1 -0.06,0.04 -0.13,0.07 -0.21,0.1 -0.18,0.06 -0.33,0.07 -0.45,0.04 -0.12,-0.03 -0.2,-0.11 -0.24,-0.24 -0.02,-0.05 -0.03,-0.11 -0.04,-0.17 0,-0.06 0,-0.13 -0.01,-0.21 -0.01,-0.16 -0.01,-0.36 -0.01,-0.6 0,-0.24 -0.01,-0.51 -0.01,-0.79 0,-0.28 0,-0.56 0.01,-0.84 0,-0.28 0.01,-0.54 0.01,-0.77 0.01,-0.23 0.02,-0.42 0.03,-0.55 0.04,-0.06 0.13,-0.13 0.25,-0.21 0.12,-0.08 0.25,-0.14 0.38,-0.18 0.18,-0.06 0.36,-0.09 0.53,-0.09 0.16,0.01 0.29,0.06 0.36,0.16 0.17,0.21 0.35,0.44 0.55,0.71 0.2,0.27 0.4,0.55 0.61,0.85 0.22,0.3 0.42,0.59 0.62,0.86 0.2,0.28 0.38,0.54 0.53,0.76 -0.03,0.07 -0.09,0.14 -0.16,0.2 -0.08,0.07 -0.19,0.13 -0.31,0.17 -0.18,0.06 -0.32,0.07 -0.41,0.03 -0.1,-0.04 -0.19,-0.12 -0.27,-0.24l-0.46 -0.66 -0.3 -0.51c-0.12,-0.18 -0.23,-0.35 -0.35,-0.52 -0.12,-0.16 -0.23,-0.31 -0.33,-0.46 -0.11,-0.15 -0.2,-0.28 -0.28,-0.39zm-0.34 2.62l0.12 -0.9 1.53 -0.51 0.39 0.72 -2.04 0.69zm3.49 -3.46l0.84 -0.45c0.1,0.17 0.21,0.34 0.3,0.51 0.1,0.16 0.19,0.33 0.27,0.49 0.08,0.15 0.17,0.31 0.24,0.46l0.61 1.18c-0.03,0.03 -0.09,0.07 -0.16,0.12 -0.08,0.05 -0.15,0.1 -0.24,0.14 -0.18,0.09 -0.32,0.13 -0.42,0.1 -0.1,-0.02 -0.2,-0.12 -0.28,-0.28l-1.16 -2.27zm4.07 -0.1l-0.85 0.45c-0.18,-0.29 -0.34,-0.56 -0.48,-0.83 -0.14,-0.27 -0.28,-0.53 -0.4,-0.77l-0.53 -1.03c0.04,-0.03 0.09,-0.07 0.16,-0.12 0.07,-0.06 0.15,-0.1 0.24,-0.15 0.17,-0.09 0.31,-0.12 0.42,-0.09 0.11,0.02 0.2,0.11 0.28,0.27l1.16 2.27zm-0.15 -0.29l0.65 1.26c-0.03,0.07 -0.09,0.15 -0.17,0.23 -0.08,0.08 -0.18,0.15 -0.31,0.22 -0.14,0.07 -0.28,0.11 -0.43,0.13 -0.14,0.02 -0.29,-0.03 -0.45,-0.15l-1.46 -1.03c-0.09,-0.06 -0.18,-0.13 -0.27,-0.2 -0.09,-0.07 -0.18,-0.14 -0.27,-0.21 -0.09,-0.07 -0.17,-0.14 -0.26,-0.21l-0.8 0.66 -0.61 -1.21c0.01,-0.1 0.06,-0.19 0.14,-0.28 0.09,-0.09 0.19,-0.16 0.32,-0.23 0.13,-0.07 0.27,-0.11 0.41,-0.13 0.15,-0.01 0.3,0.03 0.45,0.15l1.48 1.03c0.08,0.06 0.18,0.13 0.27,0.2 0.09,0.07 0.18,0.13 0.27,0.2 0.08,0.07 0.17,0.14 0.25,0.22l0.79 -0.65z" class="fil2"></path>
  <path d="M11.41 33.84c0,-12.37 10.06,-22.43 22.42,-22.43 12.37,0 22.43,10.06 22.43,22.43 0,12.36 -10.06,22.42 -22.43,22.42 -12.36,0 -22.42,-10.06 -22.42,-22.42z" class="fil2"></path>
  <g style="clip-path:url(#id0)">
   <g id="_2002954165232">
    <path d="M36.98 40.49c-0.94,1.07 -1.74,2.62 -2.03,4.84 -0.05,0.42 -0.29,0.8 -0.66,0.99 -0.28,0.15 -0.56,0.16 -0.8,0.08 -0.39,-0.13 -0.68,-0.5 -0.7,-0.95 -0.11,-2.77 -0.93,-4.78 -1.96,-6.23 -4.64,3.11 -13.9,-3.92 -9.02,-16.35 0.14,-0.36 0.6,-0.4 0.82,-0.09 0.94,1.32 2.55,3.08 4.99,4.05 4.46,1.77 7.43,5.84 5.77,9.48 -0.09,0.21 -0.37,0.23 -0.52,0.04 -2.39,-3.1 -5.63,-3.86 -5.68,-3.87 -0.34,-0.08 -0.69,0.16 -0.76,0.52 -0.08,0.37 0.15,0.72 0.5,0.8 0.03,0.01 1.46,0.35 3.08,1.59 0.68,0.52 1.39,1.2 2.05,2.09 0.9,1.12 1.7,2.55 2.2,4.36 0.51,-1.17 1.17,-2.1 1.88,-2.83 1.97,-2.17 4.29,-2.47 4.32,-2.48 0.28,-0.03 0.49,-0.29 0.46,-0.59 -0.03,-0.29 -0.29,-0.5 -0.57,-0.47 -0.04,0 -2.65,0.34 -4.77,2.59 -0.13,0.13 -0.35,0.1 -0.41,-0.08 -1.03,-3.01 1.62,-5.98 5.27,-7.01 2.04,-0.58 4.23,-1.49 5.65,-2.49 0.35,-0.24 0.81,-0.04 0.89,0.38 1.83,8.88 -6.61,14.43 -10,11.63z" class="fil3" id="_1_0"></path>
   </g>
  </g>
  <path d="M11.41 33.84c0,-12.37 10.06,-22.43 22.42,-22.43 12.37,0 22.43,10.06 22.43,22.43 0,12.36 -10.06,22.42 -22.43,22.42 -12.36,0 -22.42,-10.06 -22.42,-22.42z" class="fil4"></path>
  <path d="M59.85 24.95c1.07,3 1.62,6.15 1.62,9.34 0,7.85 -3.34,15.33 -9.19,20.58" class="fil0 str1"></path>
  <path d="M16.13 55.51c-6.3,-5.26 -9.93,-13.03 -9.93,-21.22 0,-2.4 0.31,-4.79 0.93,-7.11" class="fil0 str1"></path>
 </g>
</svg>
