<svg xmlns:xlink="http://www.w3.org/1999/xlink" viewBox="0 0 111.3 111.3" style="shape-rendering:geometricPrecision; text-rendering:geometricPrecision; image-rendering:optimizeQuality; fill-rule:evenodd; clip-rule:evenodd" version="1.1" height="614px" width="614px" xml:space="preserve" xmlns="http://www.w3.org/2000/svg">
 <defs>
  <style type="text/css">
   
    .str0 {stroke:#F8D63A;stroke-width:1.45;stroke-miterlimit:2.61313}
    .str1 {stroke:#FEFEFE;stroke-width:1.45;stroke-linecap:round;stroke-linejoin:round;stroke-miterlimit:2.61313}
    .fil0 {fill:none}
    .fil4 {fill:none;fill-rule:nonzero}
    .fil1 {fill:#4F2A22}
    .fil2 {fill:#FEFEFE;fill-rule:nonzero}
    .fil3 {fill:black;fill-rule:nonzero}
   
  </style>
   <clipPath style="clip-rule:nonzero" id="id0">
    <path d="M18.76 55.65c0,-20.34 16.55,-36.89 36.89,-36.89 20.34,0 36.89,16.55 36.89,36.89 0,20.34 -16.55,36.89 -36.89,36.89 -20.34,0 -36.89,-16.55 -36.89,-36.89z"></path>
   </clipPath>
 </defs>
 <g id="Layer_x0020_1">
  <metadata id="CorelCorpID_0Corel-Layer"></metadata>
  <circle r="54.92" cy="55.65" cx="55.65" class="fil0 str0"></circle>
  <path d="M2.45 55.65c0,-14.67 5.96,-27.98 15.59,-37.61 9.63,-9.63 22.94,-15.59 37.61,-15.59 14.67,0 27.97,5.96 37.61,15.59 9.63,9.63 15.59,22.94 15.59,37.61 0,14.67 -5.96,27.98 -15.59,37.61 -9.64,9.63 -22.94,15.59 -37.61,15.59 -14.67,0 -27.98,-5.96 -37.61,-15.59 -9.63,-9.63 -15.59,-22.94 -15.59,-37.61zm16.31 0c0,-20.34 16.55,-36.89 36.89,-36.89 20.34,0 36.89,16.55 36.89,36.89 0,20.34 -16.55,36.89 -36.89,36.89 -20.34,0 -36.89,-16.55 -36.89,-36.89z" class="fil1"></path>
  <circle r="41.19" cy="55.65" cx="55.65" class="fil0"></circle>
  <path d="M18.99 26c0.14,0.1 0.23,0.22 0.28,0.37 0.06,0.15 0.08,0.29 0.07,0.43 -0.21,0.08 -0.43,0.18 -0.65,0.32 -0.22,0.13 -0.42,0.33 -0.61,0.59 -0.24,0.33 -0.37,0.66 -0.4,1 -0.03,0.34 0.04,0.67 0.22,0.99 0.18,0.32 0.46,0.62 0.84,0.9 0.59,0.43 1.14,0.6 1.66,0.53 0.52,-0.07 0.96,-0.37 1.34,-0.88 0.19,-0.26 0.31,-0.51 0.38,-0.76 0.06,-0.24 0.11,-0.47 0.13,-0.7 0.13,-0.04 0.27,-0.05 0.42,-0.03 0.15,0.02 0.3,0.08 0.44,0.18 0.12,0.09 0.21,0.2 0.27,0.34 0.05,0.14 0.06,0.31 0.03,0.52 -0.03,0.16 -0.09,0.37 -0.19,0.62 -0.1,0.25 -0.26,0.53 -0.48,0.84 -0.39,0.54 -0.85,0.95 -1.38,1.24 -0.53,0.29 -1.11,0.41 -1.72,0.35 -0.62,-0.05 -1.27,-0.32 -1.94,-0.81 -0.63,-0.46 -1.08,-0.98 -1.33,-1.55 -0.26,-0.57 -0.34,-1.15 -0.26,-1.74 0.09,-0.59 0.32,-1.15 0.69,-1.67 0.26,-0.36 0.53,-0.64 0.8,-0.84 0.28,-0.2 0.53,-0.33 0.77,-0.37 0.24,-0.04 0.45,0 0.62,0.13z" class="fil2"></path>
  <path d="M22.29 26.7l1.13 -1.26 2.23 1.92c-0.03,0.07 -0.09,0.17 -0.16,0.28 -0.08,0.12 -0.16,0.24 -0.27,0.36 -0.2,0.24 -0.4,0.38 -0.58,0.42 -0.19,0.04 -0.39,-0.04 -0.62,-0.23l-1.73 -1.49zm1.79 -0.69l-1.13 1.25 -3.97 -3.43c0.03,-0.07 0.08,-0.17 0.15,-0.28 0.07,-0.12 0.16,-0.24 0.26,-0.36 0.22,-0.24 0.41,-0.39 0.59,-0.42 0.19,-0.04 0.39,0.04 0.62,0.24l3.48 3z" class="fil2" id="_1"></path>
  <path d="M21.81 21.36c-0.18,-0.19 -0.26,-0.41 -0.25,-0.66 0.01,-0.25 0.12,-0.46 0.31,-0.65 0.21,-0.19 0.43,-0.28 0.68,-0.27 0.24,0 0.45,0.1 0.63,0.29 0.17,0.18 0.25,0.4 0.25,0.65 0,0.25 -0.1,0.47 -0.31,0.66 -0.2,0.19 -0.42,0.27 -0.68,0.26 -0.25,-0.01 -0.46,-0.1 -0.63,-0.28zm2.82 2.85l1.22 -1.15 2.04 2.17c-0.03,0.06 -0.09,0.15 -0.18,0.25 -0.09,0.11 -0.19,0.22 -0.3,0.32 -0.24,0.23 -0.45,0.35 -0.63,0.37 -0.19,0.02 -0.38,-0.08 -0.58,-0.3l-1.57 -1.66zm1.82 -0.52l-1.22 1.15 -2.23 -2.37c0.03,-0.06 0.1,-0.15 0.18,-0.26 0.09,-0.11 0.19,-0.22 0.3,-0.33 0.24,-0.22 0.45,-0.34 0.63,-0.36 0.18,-0.02 0.37,0.08 0.58,0.31l1.76 1.86z" class="fil2" id="_2"></path>
  <path d="M30.79 18.32l0.66 0.83 -1.33 1.05 -0.62 -0.79c-0.17,-0.22 -0.36,-0.33 -0.57,-0.34 -0.21,0 -0.42,0.08 -0.63,0.24 -0.15,0.12 -0.27,0.25 -0.36,0.39 -0.1,0.13 -0.17,0.27 -0.23,0.4l0.97 1.24 -1.31 1.03 -1.1 -1.38c-0.11,-0.15 -0.18,-0.3 -0.19,-0.45 -0.02,-0.14 0,-0.3 0.06,-0.47 0.09,-0.28 0.25,-0.58 0.47,-0.9 0.23,-0.32 0.52,-0.62 0.88,-0.9 0.64,-0.51 1.25,-0.76 1.82,-0.75 0.57,0.01 1.06,0.27 1.48,0.8zm-3.74 3.64l1.31 -1.03 1.84 2.33c-0.05,0.06 -0.12,0.14 -0.21,0.24 -0.1,0.1 -0.21,0.2 -0.33,0.3 -0.25,0.19 -0.47,0.29 -0.65,0.29 -0.19,0.01 -0.37,-0.11 -0.56,-0.34l-1.4 -1.79zm2.75 -2.17l1.33 -1.04 1.83 2.32c-0.04,0.07 -0.11,0.15 -0.21,0.25 -0.09,0.1 -0.2,0.2 -0.33,0.3 -0.25,0.19 -0.46,0.29 -0.65,0.3 -0.19,0 -0.38,-0.11 -0.56,-0.34l-1.41 -1.79z" class="fil2" id="_3"></path>
  <path d="M30.64 14.45c-0.13,-0.22 -0.16,-0.45 -0.09,-0.69 0.07,-0.24 0.22,-0.43 0.46,-0.56 0.24,-0.14 0.48,-0.18 0.72,-0.12 0.23,0.07 0.41,0.21 0.54,0.44 0.13,0.21 0.16,0.44 0.1,0.69 -0.06,0.24 -0.21,0.43 -0.46,0.57 -0.23,0.13 -0.47,0.17 -0.72,0.1 -0.24,-0.07 -0.42,-0.22 -0.55,-0.43zm2.08 3.43l1.46 -0.84 1.48 2.59c-0.05,0.05 -0.13,0.12 -0.24,0.2 -0.11,0.09 -0.23,0.17 -0.37,0.25 -0.28,0.16 -0.51,0.23 -0.7,0.2 -0.18,-0.02 -0.34,-0.16 -0.49,-0.42l-1.14 -1.98zm1.89 -0.08l-1.45 0.83 -1.62 -2.82c0.05,-0.05 0.13,-0.12 0.24,-0.21 0.11,-0.09 0.23,-0.17 0.37,-0.25 0.28,-0.16 0.51,-0.23 0.69,-0.21 0.18,0.03 0.34,0.17 0.5,0.44l1.27 2.22z" class="fil2" id="_4"></path>
  <path d="M37.72 13.84c-0.37,0.17 -0.63,0.44 -0.78,0.81 -0.15,0.36 -0.12,0.78 0.09,1.24 0.21,0.46 0.5,0.75 0.86,0.87 0.36,0.12 0.73,0.09 1.12,-0.09 0.22,-0.1 0.41,-0.22 0.55,-0.36 0.14,-0.13 0.26,-0.26 0.35,-0.39 0.15,0.03 0.29,0.08 0.39,0.15 0.11,0.07 0.2,0.18 0.26,0.32 0.12,0.26 0.07,0.53 -0.13,0.81 -0.2,0.28 -0.54,0.54 -1.03,0.76 -0.54,0.25 -1.06,0.37 -1.57,0.36 -0.5,0 -0.95,-0.15 -1.36,-0.44 -0.4,-0.29 -0.73,-0.71 -0.99,-1.27 -0.28,-0.6 -0.38,-1.15 -0.31,-1.65 0.07,-0.5 0.26,-0.94 0.58,-1.32 0.32,-0.39 0.72,-0.69 1.2,-0.91 0.48,-0.22 0.89,-0.3 1.24,-0.26 0.35,0.05 0.58,0.2 0.7,0.46 0.05,0.12 0.07,0.24 0.06,0.37 -0.01,0.13 -0.04,0.25 -0.08,0.36 -0.16,-0.01 -0.34,-0.01 -0.54,0.01 -0.19,0.02 -0.39,0.08 -0.61,0.17z" class="fil2" id="_5"></path>
  <path d="M43.76 15.1c0.16,-0.05 0.33,-0.11 0.48,-0.19 0.15,-0.08 0.26,-0.15 0.32,-0.21l-0.29 -1.05 -0.89 0.35c-0.25,0.08 -0.43,0.19 -0.55,0.31 -0.12,0.13 -0.16,0.28 -0.11,0.46 0.05,0.17 0.16,0.29 0.33,0.36 0.16,0.07 0.4,0.06 0.71,-0.03zm-1.29 -4.34c0.76,-0.21 1.4,-0.22 1.94,-0.03 0.54,0.19 0.9,0.61 1.09,1.27l0.69 2.48c0.05,0.18 0.05,0.34 -0.02,0.48 -0.06,0.14 -0.15,0.27 -0.27,0.39 -0.18,0.19 -0.43,0.37 -0.73,0.54 -0.3,0.16 -0.66,0.31 -1.07,0.42 -0.75,0.21 -1.38,0.23 -1.9,0.06 -0.52,-0.17 -0.86,-0.54 -1.02,-1.11 -0.14,-0.5 -0.09,-0.92 0.14,-1.27 0.23,-0.35 0.64,-0.64 1.22,-0.87l1.41 -0.56 -0.04 -0.13c-0.06,-0.24 -0.21,-0.39 -0.43,-0.45 -0.23,-0.05 -0.52,-0.03 -0.87,0.07 -0.28,0.08 -0.54,0.19 -0.79,0.32 -0.24,0.14 -0.46,0.29 -0.65,0.43 -0.1,-0.03 -0.2,-0.1 -0.3,-0.2 -0.09,-0.1 -0.16,-0.22 -0.19,-0.35 -0.09,-0.31 0.02,-0.58 0.31,-0.81 0.19,-0.14 0.41,-0.28 0.68,-0.39 0.27,-0.12 0.54,-0.22 0.8,-0.29z" class="fil2" id="_6"></path>
  <path d="M47.27 12.27l1.66 -0.26 0.53 2.89c-0.07,0.04 -0.17,0.08 -0.31,0.12 -0.13,0.04 -0.27,0.08 -0.43,0.11 -0.31,0.05 -0.55,0.04 -0.71,-0.04 -0.18,-0.09 -0.28,-0.28 -0.34,-0.57l-0.4 -2.25zm1.82 0.59l-1.67 0.27 -0.93 -5.17c0.07,-0.04 0.17,-0.08 0.3,-0.12 0.13,-0.05 0.27,-0.09 0.43,-0.11 0.32,-0.06 0.56,-0.05 0.72,0.04 0.17,0.08 0.28,0.27 0.33,0.57l0.82 4.52z" class="fil2" id="_7"></path>
  <path d="M50.64 11.73l1.69 -0.1 0.23 2.93c-0.07,0.03 -0.17,0.06 -0.31,0.09 -0.13,0.03 -0.28,0.05 -0.43,0.06 -0.32,0.03 -0.56,-0.01 -0.72,-0.11 -0.16,-0.1 -0.25,-0.3 -0.27,-0.59l-0.19 -2.28zm1.76 0.77l-1.69 0.1 -0.42 -5.24c0.07,-0.03 0.17,-0.06 0.31,-0.09 0.13,-0.03 0.28,-0.06 0.44,-0.07 0.32,-0.03 0.56,0.01 0.71,0.11 0.16,0.1 0.25,0.3 0.27,0.61l0.38 4.58z" class="fil2" id="_8"></path>
  <path d="M54.89 13.1c-0.12,-0.25 -0.23,-0.55 -0.36,-0.91 -0.13,-0.36 -0.26,-0.79 -0.4,-1.27 -0.13,-0.49 -0.27,-1.06 -0.42,-1.7 0.1,-0.09 0.22,-0.17 0.38,-0.24 0.16,-0.06 0.33,-0.09 0.51,-0.09 0.23,0.01 0.42,0.06 0.57,0.17 0.15,0.1 0.26,0.29 0.32,0.57 0.16,0.55 0.31,1.1 0.47,1.65 0.15,0.55 0.31,1.11 0.47,1.66l0.05 0c0.14,-0.33 0.28,-0.71 0.43,-1.14 0.15,-0.42 0.28,-0.86 0.41,-1.31 0.13,-0.46 0.24,-0.89 0.34,-1.31 0.11,-0.05 0.22,-0.09 0.34,-0.12 0.13,-0.03 0.25,-0.04 0.38,-0.04 0.23,0.01 0.43,0.07 0.6,0.17 0.17,0.11 0.24,0.29 0.24,0.53 -0.01,0.21 -0.05,0.47 -0.13,0.78 -0.07,0.3 -0.17,0.63 -0.29,0.99 -0.11,0.35 -0.25,0.71 -0.41,1.08 -0.15,0.37 -0.31,0.73 -0.48,1.07 -0.17,0.34 -0.33,0.65 -0.5,0.92 -0.43,0.7 -0.83,1.21 -1.18,1.55 -0.36,0.34 -0.7,0.51 -1.04,0.49 -0.27,0 -0.5,-0.09 -0.67,-0.27 -0.17,-0.17 -0.27,-0.38 -0.3,-0.64 0.17,-0.13 0.35,-0.28 0.53,-0.45 0.18,-0.18 0.35,-0.36 0.51,-0.55 0.17,-0.2 0.31,-0.39 0.44,-0.58 -0.12,-0.04 -0.25,-0.13 -0.38,-0.27 -0.14,-0.13 -0.28,-0.38 -0.43,-0.74z" class="fil2" id="_9"></path>
  <path d="M65.09 9.94l0.3 -1.35 3.41 0.78c0.03,0.08 0.05,0.18 0.06,0.31 0.01,0.12 0,0.25 -0.03,0.39 -0.06,0.23 -0.15,0.39 -0.28,0.48 -0.13,0.09 -0.29,0.12 -0.48,0.07l-2.98 -0.68zm1.87 -0.99l-0.3 1.35 -3.41 -0.79c-0.03,-0.08 -0.06,-0.18 -0.06,-0.31 -0.01,-0.12 0,-0.25 0.04,-0.38 0.05,-0.24 0.15,-0.41 0.28,-0.5 0.13,-0.08 0.28,-0.1 0.46,-0.06l2.99 0.69zm-1.88 0.67l1.68 0.39 -1.29 5.62c-0.08,0.01 -0.2,0 -0.35,-0.01 -0.15,-0.02 -0.3,-0.04 -0.46,-0.08 -0.33,-0.08 -0.55,-0.19 -0.66,-0.34 -0.11,-0.15 -0.13,-0.37 -0.06,-0.66l1.14 -4.92z" class="fil2" id="_10"></path>
  <path d="M69.08 14.59l0.35 -1.08 2.78 0.6c0.06,-0.2 0.05,-0.42 -0.04,-0.65 -0.09,-0.23 -0.29,-0.4 -0.59,-0.52 -0.32,-0.12 -0.62,-0.11 -0.92,0.02 -0.29,0.13 -0.52,0.39 -0.69,0.78l-0.23 0.75c-0.09,0.41 -0.03,0.76 0.18,1.02 0.2,0.27 0.49,0.48 0.85,0.62 0.3,0.11 0.59,0.18 0.89,0.19 0.29,0.02 0.54,0.02 0.73,-0.01 0.08,0.1 0.14,0.22 0.16,0.36 0.02,0.14 0.01,0.27 -0.04,0.4 -0.08,0.21 -0.23,0.35 -0.45,0.43 -0.22,0.08 -0.49,0.09 -0.81,0.05 -0.32,-0.04 -0.67,-0.13 -1.04,-0.28 -0.54,-0.21 -0.99,-0.5 -1.35,-0.87 -0.35,-0.37 -0.57,-0.81 -0.66,-1.31 -0.09,-0.51 -0.01,-1.06 0.22,-1.68 0.18,-0.45 0.4,-0.81 0.67,-1.09 0.27,-0.27 0.57,-0.47 0.9,-0.59 0.32,-0.12 0.66,-0.17 1.01,-0.16 0.35,0.01 0.69,0.08 1.02,0.21 0.48,0.19 0.87,0.45 1.16,0.78 0.28,0.33 0.47,0.71 0.54,1.12 0.08,0.41 0.03,0.83 -0.14,1.27 -0.08,0.21 -0.2,0.36 -0.37,0.42 -0.16,0.07 -0.35,0.08 -0.58,0.02l-3.55 -0.8z" class="fil2" id="_11"></path>
  <path d="M77.99 19.06c-0.25,0.49 -0.63,0.77 -1.15,0.86 -0.51,0.09 -1.12,-0.05 -1.82,-0.41 -0.55,-0.29 -0.96,-0.6 -1.24,-0.95 -0.27,-0.34 -0.32,-0.67 -0.16,-0.98 0.07,-0.14 0.17,-0.25 0.28,-0.33 0.12,-0.07 0.24,-0.11 0.36,-0.12 0.13,0.2 0.3,0.41 0.51,0.63 0.2,0.23 0.46,0.42 0.79,0.59 0.48,0.25 0.8,0.23 0.95,-0.05 0.06,-0.12 0.07,-0.24 0.02,-0.35 -0.05,-0.12 -0.17,-0.24 -0.36,-0.38l-0.37 -0.32c-0.47,-0.39 -0.78,-0.77 -0.93,-1.15 -0.14,-0.37 -0.1,-0.77 0.11,-1.19 0.24,-0.47 0.63,-0.74 1.15,-0.82 0.52,-0.09 1.11,0.04 1.75,0.37 0.32,0.17 0.6,0.35 0.83,0.55 0.23,0.2 0.39,0.41 0.48,0.62 0.09,0.21 0.08,0.41 -0.02,0.61 -0.07,0.13 -0.16,0.23 -0.26,0.31 -0.11,0.07 -0.22,0.12 -0.34,0.14 -0.05,-0.09 -0.14,-0.19 -0.26,-0.33 -0.13,-0.13 -0.27,-0.26 -0.43,-0.38 -0.16,-0.13 -0.32,-0.23 -0.47,-0.31 -0.24,-0.12 -0.45,-0.19 -0.61,-0.2 -0.17,0 -0.29,0.06 -0.36,0.2 -0.04,0.09 -0.04,0.18 0,0.28 0.04,0.11 0.15,0.23 0.33,0.37l0.35 0.31c0.53,0.44 0.86,0.86 0.99,1.24 0.13,0.39 0.09,0.78 -0.12,1.19z" class="fil2" id="_12"></path>
  <path d="M79.87 18.68l1.35 0.98 -0.71 0.98c-0.13,0.17 -0.16,0.34 -0.11,0.49 0.06,0.16 0.18,0.32 0.38,0.46 0.1,0.07 0.2,0.13 0.33,0.19 0.12,0.05 0.23,0.09 0.32,0.11 0.01,0.09 0.01,0.19 -0.01,0.3 -0.02,0.11 -0.06,0.22 -0.14,0.32 -0.15,0.21 -0.36,0.32 -0.63,0.33 -0.27,0.01 -0.6,-0.13 -1.01,-0.43 -0.51,-0.37 -0.83,-0.77 -0.94,-1.21 -0.12,-0.44 0.01,-0.92 0.4,-1.45l0.77 -1.07zm1.47 -0.21l0.76 -1.04 1.76 1.27c-0.01,0.07 -0.03,0.16 -0.06,0.28 -0.04,0.11 -0.1,0.22 -0.18,0.33 -0.13,0.19 -0.27,0.29 -0.41,0.32 -0.15,0.02 -0.29,-0.01 -0.43,-0.12l-1.44 -1.04zm-0.29 1.42l-1.34 -0.98 2.38 -3.29c0.08,0.03 0.18,0.07 0.3,0.13 0.13,0.05 0.25,0.13 0.37,0.21 0.26,0.2 0.42,0.38 0.47,0.55 0.05,0.18 -0.01,0.39 -0.19,0.64l-1.99 2.74z" class="fil2" id="_13"></path>
  <path d="M83.58 22.72l0.73 -0.87 2.35 1.6c0.13,-0.16 0.2,-0.37 0.2,-0.61 0.01,-0.25 -0.11,-0.48 -0.34,-0.7 -0.25,-0.24 -0.54,-0.35 -0.86,-0.34 -0.32,0.02 -0.63,0.17 -0.94,0.47l-0.49 0.61c-0.24,0.34 -0.31,0.68 -0.22,1.01 0.08,0.32 0.27,0.62 0.55,0.89 0.24,0.22 0.48,0.39 0.75,0.52 0.27,0.12 0.49,0.21 0.69,0.26 0.03,0.12 0.04,0.25 0.01,0.39 -0.04,0.14 -0.1,0.26 -0.19,0.36 -0.16,0.16 -0.35,0.24 -0.58,0.23 -0.24,-0.02 -0.49,-0.1 -0.77,-0.26 -0.28,-0.16 -0.57,-0.38 -0.86,-0.65 -0.42,-0.4 -0.73,-0.84 -0.91,-1.32 -0.19,-0.48 -0.23,-0.97 -0.12,-1.47 0.11,-0.5 0.39,-0.98 0.84,-1.46 0.33,-0.35 0.67,-0.61 1.03,-0.76 0.36,-0.15 0.71,-0.22 1.05,-0.21 0.35,0.01 0.68,0.09 1,0.23 0.32,0.15 0.6,0.34 0.86,0.58 0.38,0.36 0.64,0.75 0.78,1.17 0.14,0.41 0.17,0.83 0.08,1.24 -0.08,0.4 -0.28,0.78 -0.6,1.12 -0.17,0.17 -0.33,0.25 -0.51,0.25 -0.18,0 -0.36,-0.06 -0.54,-0.2l-2.99 -2.08z" class="fil2" id="_14"></path>
  <path d="M89.39 29.75l2.68 -2.11 1.04 1.31 -2.85 2.25c-0.14,0.11 -0.28,0.17 -0.43,0.19 -0.14,0.02 -0.31,-0.01 -0.49,-0.08 -0.23,-0.07 -0.49,-0.21 -0.77,-0.4 -0.28,-0.19 -0.56,-0.46 -0.82,-0.8 -0.39,-0.49 -0.65,-0.98 -0.76,-1.47 -0.12,-0.49 -0.09,-0.96 0.1,-1.42 0.18,-0.46 0.52,-0.88 1.02,-1.27 0.52,-0.42 1.03,-0.65 1.52,-0.72 0.49,-0.07 0.95,0 1.38,0.21 0.44,0.21 0.81,0.52 1.14,0.93 0.16,0.21 0.29,0.42 0.37,0.62 0.09,0.2 0.14,0.39 0.16,0.54l-1.09 0.86c0.01,-0.14 -0.01,-0.3 -0.06,-0.48 -0.05,-0.19 -0.14,-0.37 -0.28,-0.55 -0.17,-0.2 -0.36,-0.35 -0.57,-0.44 -0.22,-0.09 -0.45,-0.11 -0.7,-0.05 -0.26,0.05 -0.53,0.19 -0.81,0.42 -0.42,0.33 -0.65,0.66 -0.7,1 -0.05,0.34 0.06,0.67 0.31,0.99 0.1,0.13 0.21,0.23 0.32,0.31 0.11,0.07 0.21,0.13 0.29,0.16zm3.46 -0.59l-1.05 -1.31 2.32 -1.83c0.06,0.04 0.14,0.1 0.24,0.2 0.11,0.09 0.21,0.2 0.31,0.32 0.2,0.26 0.3,0.49 0.3,0.67 0,0.18 -0.11,0.37 -0.35,0.55l-1.77 1.4z" class="fil2" id="_15"></path>
  <circle r="48.66" cy="56.39" cx="55.65" class="fil0"></circle>
  <path d="M25.39 88.13l1.25 1.19 -3.3 3.46c-0.07,-0.03 -0.16,-0.09 -0.28,-0.18 -0.13,-0.09 -0.24,-0.19 -0.36,-0.3 -0.24,-0.23 -0.38,-0.44 -0.39,-0.63 -0.02,-0.18 0.07,-0.38 0.28,-0.6l2.8 -2.94zm-0.25 2.77l-1.25 -1.19 2.95 -3.09c0.06,0.04 0.16,0.1 0.29,0.19 0.12,0.09 0.24,0.19 0.35,0.3 0.24,0.22 0.37,0.42 0.39,0.6 0.03,0.18 -0.07,0.39 -0.29,0.62l-2.44 2.57zm7 4.15l-0.61 0.87 -1.38 -0.98 0.58 -0.82c0.17,-0.23 0.22,-0.45 0.16,-0.65 -0.05,-0.2 -0.19,-0.38 -0.4,-0.53 -0.16,-0.11 -0.31,-0.19 -0.47,-0.24 -0.16,-0.05 -0.31,-0.09 -0.45,-0.11l-0.92 1.28 -1.36 -0.97 1.02 -1.44c0.11,-0.15 0.23,-0.26 0.37,-0.31 0.14,-0.06 0.3,-0.08 0.48,-0.07 0.29,0 0.62,0.07 0.99,0.2 0.37,0.13 0.74,0.32 1.11,0.59 0.67,0.47 1.08,0.98 1.23,1.53 0.16,0.55 0.04,1.1 -0.35,1.65zm-4.55 -2.57l1.37 0.97 -1.72 2.42c-0.08,-0.03 -0.18,-0.07 -0.3,-0.13 -0.12,-0.07 -0.25,-0.15 -0.37,-0.24 -0.26,-0.18 -0.42,-0.36 -0.47,-0.54 -0.06,-0.18 0,-0.39 0.17,-0.63l1.32 -1.85zm2.86 2.03l1.38 0.98 -1.72 2.42c-0.08,-0.03 -0.18,-0.07 -0.3,-0.13 -0.12,-0.07 -0.24,-0.14 -0.37,-0.24 -0.26,-0.18 -0.42,-0.36 -0.48,-0.54 -0.05,-0.18 0,-0.39 0.17,-0.63l1.32 -1.86zm4.52 5.7c-0.4,-0.19 -0.74,-0.43 -1.02,-0.75 -0.28,-0.31 -0.44,-0.69 -0.49,-1.15 -0.04,-0.45 0.07,-0.98 0.33,-1.56 0.25,-0.54 0.56,-0.95 0.94,-1.22 0.39,-0.27 0.82,-0.41 1.29,-0.42 0.48,-0.02 0.98,0.09 1.5,0.33 0.37,0.17 0.69,0.37 0.97,0.62 0.27,0.24 0.47,0.46 0.6,0.66 0.08,0.14 0.14,0.28 0.16,0.43 0.03,0.15 0,0.31 -0.08,0.48l-1.46 3.24 -1.48 -0.67 1.39 -3.06c-0.06,-0.08 -0.13,-0.16 -0.22,-0.24 -0.1,-0.08 -0.22,-0.16 -0.38,-0.23 -0.33,-0.15 -0.65,-0.17 -0.95,-0.06 -0.3,0.11 -0.55,0.39 -0.75,0.83 -0.22,0.48 -0.27,0.86 -0.16,1.13 0.11,0.27 0.32,0.47 0.62,0.61 0.22,0.1 0.43,0.15 0.62,0.13 0.18,-0.01 0.35,-0.03 0.51,-0.08l-0.51 1.24c-0.19,0.02 -0.4,0.02 -0.63,-0.02 -0.23,-0.03 -0.5,-0.11 -0.8,-0.24zm1.01 0.63l0.44 -0.96 1.44 0.65 -0.45 1c-0.22,0.48 -0.51,0.83 -0.87,1.03 -0.36,0.2 -0.76,0.29 -1.21,0.26 -0.45,-0.03 -0.91,-0.15 -1.38,-0.37 -0.36,-0.16 -0.67,-0.33 -0.92,-0.52 -0.25,-0.19 -0.42,-0.36 -0.52,-0.53 -0.17,-0.25 -0.19,-0.52 -0.07,-0.8 0.07,-0.14 0.16,-0.26 0.27,-0.34 0.11,-0.09 0.22,-0.14 0.32,-0.16 0.14,0.19 0.32,0.39 0.54,0.58 0.21,0.2 0.46,0.36 0.75,0.49 0.38,0.17 0.72,0.24 1.01,0.2 0.29,-0.04 0.51,-0.22 0.65,-0.53zm7.07 -1.58l-0.38 1.36 -1.62 -0.45 0.45 -1.56c0.05,-0.21 0.15,-0.36 0.29,-0.48 0.14,-0.11 0.31,-0.2 0.52,-0.26 0.28,-0.08 0.6,-0.11 0.96,-0.1 0.36,0.02 0.73,0.08 1.1,0.18 0.74,0.21 1.04,0.56 0.9,1.06 -0.03,0.11 -0.08,0.22 -0.14,0.31 -0.06,0.09 -0.13,0.17 -0.19,0.23 -0.07,-0.03 -0.16,-0.07 -0.26,-0.11 -0.1,-0.04 -0.21,-0.08 -0.34,-0.12 -0.22,-0.06 -0.44,-0.1 -0.67,-0.11 -0.24,-0.01 -0.44,0.01 -0.62,0.05zm-1.88 0.49l1.6 0.49 -0.8 2.84c-0.08,0 -0.19,-0.01 -0.32,-0.03 -0.14,-0.02 -0.28,-0.05 -0.44,-0.09 -0.3,-0.09 -0.51,-0.21 -0.62,-0.36 -0.11,-0.15 -0.12,-0.36 -0.04,-0.65l0.62 -2.2zm6.2 2.69l0.08 -1.13 2.84 -0.09c0.01,-0.21 -0.05,-0.42 -0.19,-0.62 -0.15,-0.2 -0.38,-0.32 -0.7,-0.36 -0.34,-0.04 -0.63,0.04 -0.89,0.24 -0.25,0.2 -0.41,0.51 -0.48,0.92l-0.04 0.79c0.01,0.42 0.15,0.73 0.41,0.95 0.27,0.21 0.59,0.34 0.98,0.39 0.32,0.04 0.62,0.03 0.91,-0.02 0.29,-0.06 0.52,-0.12 0.71,-0.2 0.1,0.08 0.18,0.19 0.24,0.32 0.05,0.13 0.07,0.26 0.05,0.39 -0.02,0.23 -0.14,0.4 -0.33,0.53 -0.2,0.13 -0.45,0.21 -0.77,0.25 -0.32,0.03 -0.68,0.02 -1.08,-0.03 -0.58,-0.07 -1.08,-0.25 -1.52,-0.52 -0.43,-0.28 -0.75,-0.65 -0.96,-1.12 -0.2,-0.46 -0.26,-1.02 -0.18,-1.68 0.06,-0.48 0.19,-0.88 0.39,-1.21 0.2,-0.34 0.44,-0.6 0.73,-0.8 0.28,-0.19 0.6,-0.33 0.94,-0.4 0.34,-0.07 0.68,-0.08 1.04,-0.04 0.51,0.07 0.95,0.23 1.31,0.49 0.36,0.25 0.63,0.57 0.8,0.95 0.17,0.38 0.23,0.8 0.17,1.26 -0.03,0.24 -0.12,0.4 -0.26,0.51 -0.14,0.1 -0.33,0.15 -0.56,0.16l-3.64 0.07zm10.4 1.21l-0.09 -3.41 1.68 -0.04 0.09 3.62c0,0.18 -0.03,0.34 -0.1,0.46 -0.07,0.13 -0.19,0.24 -0.36,0.35 -0.2,0.14 -0.46,0.26 -0.79,0.37 -0.32,0.11 -0.7,0.17 -1.13,0.19 -0.63,0.01 -1.17,-0.08 -1.63,-0.28 -0.47,-0.2 -0.82,-0.51 -1.08,-0.93 -0.26,-0.42 -0.39,-0.95 -0.41,-1.58 -0.02,-0.67 0.1,-1.22 0.34,-1.65 0.24,-0.43 0.57,-0.76 1,-0.98 0.42,-0.22 0.9,-0.34 1.42,-0.36 0.27,0 0.51,0.02 0.73,0.08 0.21,0.05 0.38,0.12 0.52,0.2l0.04 1.38c-0.11,-0.09 -0.25,-0.17 -0.43,-0.24 -0.17,-0.07 -0.37,-0.1 -0.6,-0.1 -0.27,0.01 -0.5,0.07 -0.7,0.19 -0.2,0.12 -0.35,0.3 -0.46,0.53 -0.11,0.24 -0.16,0.54 -0.15,0.9 0.01,0.53 0.14,0.92 0.39,1.16 0.24,0.24 0.57,0.36 0.98,0.35 0.16,0 0.31,-0.03 0.44,-0.07 0.12,-0.05 0.22,-0.09 0.3,-0.14zm1.6 -3.12l-1.68 0.05 -0.07 -2.96c0.06,-0.02 0.16,-0.05 0.3,-0.07 0.13,-0.03 0.28,-0.04 0.44,-0.05 0.33,-0.01 0.57,0.05 0.72,0.15 0.14,0.11 0.22,0.32 0.23,0.62l0.06 2.26zm1.97 -2.84c-0.05,-0.26 0,-0.48 0.14,-0.69 0.15,-0.2 0.35,-0.32 0.62,-0.37 0.28,-0.05 0.51,0 0.72,0.14 0.2,0.14 0.32,0.33 0.37,0.59 0.04,0.24 -0.01,0.47 -0.15,0.68 -0.14,0.21 -0.34,0.34 -0.62,0.38 -0.27,0.05 -0.5,0 -0.71,-0.14 -0.21,-0.15 -0.33,-0.35 -0.37,-0.59zm0.8 3.93l1.65 -0.3 0.52 2.94c-0.06,0.03 -0.15,0.07 -0.29,0.11 -0.13,0.04 -0.27,0.08 -0.43,0.11 -0.32,0.05 -0.56,0.04 -0.72,-0.05 -0.17,-0.08 -0.28,-0.27 -0.33,-0.56l-0.4 -2.25zm1.8 0.56l-1.65 0.3 -0.57 -3.21c0.07,-0.03 0.16,-0.07 0.3,-0.12 0.13,-0.04 0.28,-0.08 0.43,-0.11 0.32,-0.06 0.56,-0.04 0.72,0.04 0.16,0.08 0.27,0.28 0.32,0.58l0.45 2.52zm3.72 -0.62l-0.37 -1.07 2.58 -1.19c-0.07,-0.2 -0.21,-0.37 -0.42,-0.5 -0.21,-0.13 -0.47,-0.15 -0.79,-0.06 -0.32,0.1 -0.56,0.28 -0.72,0.57 -0.15,0.28 -0.18,0.63 -0.08,1.04l0.27 0.74c0.18,0.38 0.43,0.61 0.75,0.71 0.33,0.09 0.68,0.08 1.06,-0.03 0.3,-0.08 0.58,-0.21 0.82,-0.37 0.25,-0.17 0.44,-0.32 0.58,-0.46 0.13,0.03 0.24,0.1 0.34,0.2 0.1,0.09 0.17,0.21 0.21,0.34 0.06,0.22 0.03,0.42 -0.1,0.61 -0.13,0.2 -0.33,0.37 -0.62,0.53 -0.28,0.16 -0.61,0.3 -0.99,0.4 -0.56,0.16 -1.1,0.2 -1.6,0.12 -0.51,-0.09 -0.95,-0.3 -1.32,-0.65 -0.38,-0.35 -0.66,-0.84 -0.83,-1.47 -0.14,-0.47 -0.18,-0.89 -0.13,-1.28 0.06,-0.38 0.18,-0.72 0.36,-1.01 0.19,-0.29 0.43,-0.54 0.71,-0.74 0.29,-0.2 0.6,-0.35 0.94,-0.44 0.5,-0.15 0.97,-0.17 1.4,-0.08 0.43,0.1 0.8,0.28 1.11,0.57 0.31,0.28 0.53,0.64 0.65,1.09 0.07,0.23 0.05,0.42 -0.04,0.57 -0.09,0.15 -0.24,0.27 -0.45,0.36l-3.32 1.5zm10.37 -5.93l0.49 0.95 -1.5 0.77 -0.46 -0.9c-0.13,-0.24 -0.3,-0.39 -0.5,-0.43 -0.21,-0.05 -0.43,-0.01 -0.66,0.11 -0.17,0.09 -0.31,0.19 -0.43,0.3 -0.12,0.12 -0.22,0.24 -0.31,0.36l0.72 1.4 -1.49 0.76 -0.81 -1.57c-0.08,-0.17 -0.12,-0.33 -0.1,-0.47 0.01,-0.15 0.06,-0.3 0.15,-0.46 0.14,-0.26 0.35,-0.52 0.64,-0.79 0.29,-0.27 0.63,-0.51 1.03,-0.71 0.73,-0.38 1.37,-0.5 1.93,-0.39 0.56,0.12 1,0.48 1.3,1.07zm-4.38 2.86l1.49 -0.76 1.36 2.64c-0.06,0.05 -0.14,0.12 -0.26,0.2 -0.11,0.08 -0.24,0.15 -0.38,0.22 -0.28,0.15 -0.51,0.2 -0.69,0.17 -0.19,-0.03 -0.35,-0.18 -0.48,-0.44l-1.04 -2.03zm3.13 -1.6l1.5 -0.77 1.35 2.64c-0.05,0.06 -0.14,0.12 -0.25,0.2 -0.11,0.08 -0.24,0.16 -0.38,0.23 -0.28,0.14 -0.52,0.2 -0.7,0.17 -0.19,-0.04 -0.35,-0.18 -0.48,-0.44l-1.04 -2.03zm3.81 -2.21l1.36 -0.97 0.7 0.99c0.12,0.18 0.27,0.26 0.44,0.26 0.16,0 0.35,-0.07 0.55,-0.21 0.1,-0.07 0.19,-0.15 0.28,-0.25 0.09,-0.1 0.17,-0.19 0.22,-0.27 0.09,0.02 0.18,0.06 0.28,0.11 0.09,0.05 0.18,0.13 0.25,0.23 0.15,0.21 0.19,0.45 0.11,0.7 -0.07,0.26 -0.32,0.54 -0.72,0.82 -0.52,0.37 -1,0.54 -1.46,0.51 -0.45,-0.03 -0.86,-0.31 -1.24,-0.84l-0.77 -1.08zm0.27 -1.46l-0.75 -1.05 1.78 -1.26c0.06,0.03 0.14,0.08 0.24,0.15 0.1,0.07 0.18,0.16 0.26,0.27 0.13,0.18 0.19,0.35 0.17,0.49 -0.02,0.15 -0.11,0.27 -0.25,0.37l-1.45 1.03zm1.25 0.73l-1.35 0.96 -2.36 -3.31c0.05,-0.07 0.12,-0.15 0.22,-0.25 0.09,-0.1 0.2,-0.19 0.32,-0.28 0.27,-0.19 0.49,-0.28 0.67,-0.27 0.19,0.01 0.37,0.14 0.54,0.38l1.96 2.77zm7.34 -4.76c0.38,0.39 0.53,0.85 0.44,1.36 -0.08,0.52 -0.41,1.05 -0.98,1.6 -0.45,0.42 -0.88,0.71 -1.3,0.85 -0.41,0.15 -0.74,0.09 -0.99,-0.16 -0.11,-0.12 -0.18,-0.24 -0.21,-0.37 -0.03,-0.13 -0.03,-0.26 0,-0.38 0.23,-0.06 0.49,-0.15 0.77,-0.27 0.27,-0.13 0.54,-0.31 0.8,-0.56 0.4,-0.38 0.49,-0.69 0.27,-0.92 -0.09,-0.1 -0.2,-0.14 -0.33,-0.13 -0.12,0.01 -0.28,0.08 -0.47,0.21l-0.42 0.25c-0.53,0.32 -0.99,0.49 -1.39,0.5 -0.4,0.01 -0.77,-0.15 -1.09,-0.49 -0.36,-0.38 -0.5,-0.84 -0.41,-1.36 0.09,-0.52 0.4,-1.03 0.93,-1.53 0.26,-0.25 0.52,-0.45 0.79,-0.6 0.27,-0.16 0.51,-0.24 0.74,-0.26 0.23,-0.01 0.42,0.06 0.57,0.22 0.1,0.11 0.17,0.23 0.2,0.35 0.04,0.13 0.05,0.25 0.03,0.37 -0.1,0.02 -0.23,0.07 -0.39,0.14 -0.17,0.07 -0.34,0.17 -0.51,0.28 -0.17,0.11 -0.32,0.22 -0.44,0.34 -0.2,0.19 -0.33,0.36 -0.39,0.52 -0.06,0.15 -0.04,0.29 0.07,0.4 0.07,0.07 0.16,0.1 0.27,0.09 0.11,-0.01 0.26,-0.07 0.45,-0.19l0.41 -0.23c0.59,-0.35 1.09,-0.53 1.5,-0.53 0.41,0 0.77,0.17 1.08,0.5z" class="fil2"></path>
  <path d="M18.76 55.65c0,-20.34 16.55,-36.89 36.89,-36.89 20.34,0 36.89,16.55 36.89,36.89 0,20.34 -16.55,36.89 -36.89,36.89 -20.34,0 -36.89,-16.55 -36.89,-36.89z" class="fil2"></path>
  <g style="clip-path:url(#id0)">
   <g id="_2292497097600">
    <g>
     <path d="M43.49 58.65c0.33,0.43 0.62,0.79 0.93,1.19 0.21,-0.23 0.36,-0.39 0.5,-0.55 0.16,-0.16 0.31,-0.32 0.46,-0.48 -0.82,-1.07 -0.82,-1.07 -1.75,-0.25 -0.07,0.05 -0.15,0.09 -0.14,0.09zm21.6 -25.53l0 0 5 5.05c-0.52,0.51 -1.12,1.14 -1.75,1.73 -0.28,0.25 -0.4,0.44 -0.04,0.7 0.37,0.25 0.22,0.45 -0.04,0.71 -2.26,2.25 -4.52,4.52 -6.82,6.82 0.13,0.09 0.26,0.18 0.39,0.26 4.8,3.08 7.27,7.44 7.05,13.16 -0.25,6.69 -5.28,12.31 -11.85,13.38 -5.5,0.89 -10.1,-0.87 -13.69,-5.14 -0.49,-0.58 -0.9,-1.24 -1.3,-1.9 -0.17,-0.27 -0.33,-0.37 -0.63,-0.37 -1.28,0.01 -2.55,0.01 -3.82,0.01 -0.2,0 -0.4,0 -0.67,0l0 -2.57 12.42 0c0,0.78 0.01,1.58 -0.02,2.37 0,0.07 -0.25,0.19 -0.38,0.19 -0.94,0.01 -1.88,0 -2.82,0 -0.19,0 -0.39,0 -0.58,0 -0.03,0.04 -0.05,0.09 -0.08,0.14 0.2,0.22 0.41,0.44 0.62,0.66 4.97,5.41 13.26,5 17.62,-0.86 3.95,-5.3 2.39,-12.86 -3.4,-16.4 -1.12,-0.69 -1.12,-0.7 -2.05,0.23 -3.31,3.32 -6.63,6.63 -9.94,9.95 -0.06,0.06 -0.13,0.11 -0.29,0.25 -0.29,-0.38 -0.57,-0.75 -0.9,-1.19 -0.46,0.46 -0.81,0.81 -1.16,1.16 -0.4,0.41 -0.81,0.8 -1.19,1.22 -0.21,0.22 -0.37,0.28 -0.62,0.04 -1.23,-1.23 -2.47,-2.46 -3.71,-3.68 -0.24,-0.23 -0.1,-0.38 0.06,-0.54 0.66,-0.66 1.32,-1.33 2,-1.98 0.28,-0.26 0.32,-0.41 0,-0.7 -0.94,-0.82 -0.77,-0.63 -0.05,-1.35 5.65,-5.65 11.3,-11.29 16.95,-16.94 0.82,-0.82 1.65,-1.62 2.45,-2.46 0.32,-0.34 0.58,-0.49 0.89,-0.01 0.05,0.07 0.16,0.11 0.25,0.18l2.1 -2.12zm0.06 3.09c-0.16,0.38 -0.72,0.48 -0.34,0.9 0.43,0.47 0.88,0.91 1.36,1.33 0.09,0.09 0.4,0.08 0.48,-0.01 0.11,-0.12 0.2,-0.45 0.13,-0.53 -0.49,-0.56 -1.03,-1.08 -1.63,-1.69zm-2.83 1.64c-0.07,0.05 -0.1,0.07 -0.12,0.09 -3.87,3.87 -7.74,7.74 -11.61,11.6 -1.78,1.77 -3.56,3.54 -5.35,5.31 -0.16,0.16 -0.25,0.3 -0.04,0.5 0.95,0.95 1.9,1.92 2.77,2.79 5.82,-5.78 11.6,-11.52 17.35,-17.23 -0.99,-1.01 -1.98,-2.03 -3,-3.06z" class="fil3" id="_1_0"></path>
     <path d="M62.92 76.18c0.02,0.51 0.04,0.96 0.07,1.41 0.02,0.29 -0.13,0.38 -0.39,0.38 -0.4,0 -0.8,0.01 -1.2,0.01 -4.01,0 -8.02,-0.01 -12.03,0l-0.06 0c-0.46,0 -0.6,-0.15 -0.59,-0.62 0.01,-1.2 -0.01,-1.2 1.2,-1.2 4.12,-0.01 8.24,-0.01 12.35,-0.01 0.2,0 0.4,0.01 0.65,0.03z" class="fil3"></path>
    </g>
   </g>
  </g>
  <path d="M18.76 55.65c0,-20.34 16.55,-36.89 36.89,-36.89 20.34,0 36.89,16.55 36.89,36.89 0,20.34 -16.55,36.89 -36.89,36.89 -20.34,0 -36.89,-16.55 -36.89,-36.89z" class="fil4"></path>
  <path d="M96.46 36.38c3.06,6.23 4.65,13.07 4.65,20.01 0,9.52 -2.99,18.8 -8.55,26.53" class="fil0 str1"></path>
  <path d="M18.72 82.9c-5.54,-7.73 -8.53,-17 -8.53,-26.51 0,-6.66 1.47,-13.24 4.29,-19.27" class="fil0 str1"></path>
 </g>
</svg>
