<svg xmlns="http://www.w3.org/2000/svg" xml:space="preserve" width="614px" height="614px" version="1.1" style="shape-rendering:geometricPrecision; text-rendering:geometricPrecision; image-rendering:optimizeQuality; fill-rule:evenodd; clip-rule:evenodd" viewBox="0 0 53.97 53.97" xmlns:xlink="http://www.w3.org/1999/xlink">
 <defs>
  <style type="text/css">
   
    .str0 {stroke:#F8D63A;stroke-width:0.7;stroke-miterlimit:2.61313}
    .str1 {stroke:#4F2A22;stroke-width:0.08;stroke-miterlimit:2.61313}
    .str4 {stroke:#FEFEFE;stroke-width:0.7;stroke-linecap:round;stroke-linejoin:round;stroke-miterlimit:2.61313}
    .str2 {stroke:#4F2A22;stroke-width:0.36;stroke-miterlimit:10}
    .str3 {stroke:#4F2A22;stroke-width:0.36;stroke-miterlimit:10}
    .fil0 {fill:none}
    .fil5 {fill:none;fill-rule:nonzero}
    .fil1 {fill:#4F2A22}
    .fil2 {fill:#FEFEFE;fill-rule:nonzero}
    .fil3 {fill:#4F2A22;fill-rule:nonzero}
    .fil4 {fill:black;fill-rule:nonzero}
   
  </style>
    <clipPath id="id0" style="clip-rule:nonzero">
     <path d="M9.1 26.99c0,-9.87 8.02,-17.89 17.89,-17.89 9.86,0 17.89,8.02 17.89,17.89 0,9.86 -8.03,17.89 -17.89,17.89 -9.87,0 -17.89,-8.03 -17.89,-17.89z"></path>
    </clipPath>
 </defs>
 <g id="Layer_x0020_1">
  <metadata id="CorelCorpID_0Corel-Layer"></metadata>
  <circle class="fil0 str0" cx="26.99" cy="26.99" r="26.64"></circle>
  <g id="_2112222044768">
   <path class="fil1" d="M1.19 26.99c0,-7.12 2.89,-13.57 7.56,-18.24 4.67,-4.67 11.12,-7.56 18.24,-7.56 7.11,0 13.56,2.89 18.23,7.56 4.67,4.67 7.57,11.12 7.57,18.24 0,7.11 -2.9,13.56 -7.57,18.23 -4.67,4.67 -11.12,7.57 -18.23,7.57 -7.12,0 -13.57,-2.9 -18.24,-7.57 -4.67,-4.67 -7.56,-11.12 -7.56,-18.23zm7.91 0c0,-9.87 8.02,-17.89 17.89,-17.89 9.86,0 17.89,8.02 17.89,17.89 0,9.86 -8.03,17.89 -17.89,17.89 -9.87,0 -17.89,-8.03 -17.89,-17.89z"></path>
   <circle class="fil0" cx="26.99" cy="26.99" r="19.98"></circle>
   <path class="fil2" d="M16.3 8.19l0.61 0.97c0.06,0.08 0.08,0.16 0.08,0.22 -0.01,0.07 -0.03,0.15 -0.08,0.23 -0.06,0.1 -0.15,0.22 -0.29,0.35 -0.13,0.14 -0.28,0.26 -0.44,0.36 -0.29,0.18 -0.59,0.3 -0.89,0.35 -0.31,0.04 -0.6,0 -0.87,-0.13 -0.28,-0.13 -0.52,-0.37 -0.74,-0.71 -0.21,-0.33 -0.31,-0.65 -0.31,-0.96 0,-0.31 0.08,-0.59 0.25,-0.86 0.16,-0.26 0.39,-0.48 0.68,-0.66 0.19,-0.12 0.37,-0.21 0.53,-0.26 0.17,-0.05 0.31,-0.06 0.43,-0.04 0.13,0.03 0.21,0.09 0.27,0.18 0.05,0.07 0.07,0.14 0.07,0.22 -0.01,0.07 -0.02,0.14 -0.05,0.2 -0.11,0 -0.24,0.01 -0.39,0.04 -0.14,0.04 -0.29,0.1 -0.45,0.2 -0.17,0.11 -0.3,0.24 -0.39,0.4 -0.09,0.16 -0.12,0.33 -0.11,0.51 0.01,0.19 0.08,0.37 0.2,0.56 0.12,0.21 0.27,0.35 0.43,0.44 0.16,0.09 0.32,0.13 0.49,0.12 0.17,-0.02 0.34,-0.08 0.5,-0.18 0.08,-0.05 0.15,-0.1 0.2,-0.16 0.05,-0.05 0.09,-0.1 0.12,-0.14l-0.35 -0.54 -0.54 0.34c-0.04,-0.01 -0.08,-0.04 -0.13,-0.08 -0.04,-0.04 -0.08,-0.09 -0.12,-0.14 -0.06,-0.1 -0.08,-0.18 -0.06,-0.26 0.01,-0.07 0.06,-0.13 0.13,-0.18l0.78 -0.49c0.09,-0.05 0.17,-0.07 0.24,-0.05 0.08,0.01 0.15,0.06 0.2,0.15z"></path>
   <path id="_1" class="fil2" d="M19.51 7.6c-0.03,0.04 -0.07,0.09 -0.12,0.13 -0.06,0.05 -0.13,0.09 -0.21,0.12 -0.1,0.04 -0.2,0.06 -0.28,0.06 -0.08,0 -0.15,-0.03 -0.19,-0.09 -0.24,-0.28 -0.45,-0.51 -0.61,-0.69 -0.16,-0.19 -0.3,-0.35 -0.4,-0.49l-0.03 0.01c0.08,0.22 0.14,0.42 0.21,0.6 0.06,0.18 0.12,0.36 0.18,0.52 0.06,0.18 0.12,0.35 0.18,0.53 0.06,0.17 0.13,0.37 0.19,0.58 -0.03,0.03 -0.08,0.06 -0.14,0.1 -0.05,0.03 -0.11,0.07 -0.17,0.09 -0.13,0.05 -0.24,0.07 -0.33,0.05 -0.1,-0.02 -0.16,-0.08 -0.2,-0.19 -0.03,-0.07 -0.07,-0.19 -0.12,-0.34 -0.05,-0.15 -0.1,-0.33 -0.17,-0.52 -0.06,-0.2 -0.13,-0.41 -0.2,-0.63 -0.07,-0.22 -0.13,-0.44 -0.2,-0.65 -0.06,-0.22 -0.13,-0.42 -0.18,-0.6 0.01,-0.05 0.05,-0.12 0.12,-0.19 0.06,-0.08 0.17,-0.14 0.31,-0.2 0.15,-0.06 0.29,-0.08 0.4,-0.06 0.11,0.01 0.21,0.06 0.3,0.16 0.09,0.1 0.2,0.23 0.32,0.37 0.12,0.14 0.24,0.28 0.36,0.42 0.13,0.15 0.23,0.28 0.33,0.39l0.03 -0.01c-0.02,-0.34 -0.04,-0.67 -0.04,-0.99 -0.01,-0.33 -0.02,-0.6 -0.02,-0.82 0.04,-0.05 0.09,-0.09 0.16,-0.13 0.06,-0.05 0.14,-0.09 0.22,-0.12 0.15,-0.05 0.27,-0.08 0.38,-0.07 0.11,0.01 0.19,0.05 0.24,0.13 0.03,0.06 0.09,0.16 0.16,0.29 0.07,0.13 0.15,0.29 0.23,0.47 0.09,0.17 0.18,0.36 0.27,0.55 0.1,0.19 0.19,0.38 0.28,0.57 0.09,0.18 0.16,0.35 0.23,0.49 0.07,0.15 0.12,0.27 0.16,0.35 -0.04,0.05 -0.08,0.1 -0.13,0.13 -0.05,0.04 -0.12,0.08 -0.21,0.11 -0.11,0.04 -0.21,0.06 -0.3,0.04 -0.09,-0.01 -0.17,-0.07 -0.22,-0.18 -0.12,-0.26 -0.23,-0.51 -0.33,-0.75 -0.1,-0.24 -0.2,-0.45 -0.28,-0.65 -0.08,-0.2 -0.15,-0.37 -0.21,-0.51l-0.03 0.01c0.01,0.16 0.02,0.37 0.03,0.63 0,0.25 0.01,0.58 0.03,0.98z"></path>
   <path id="_2" class="fil2" d="M24.69 5.41c0.07,0.37 0.05,0.7 -0.05,0.98 -0.1,0.29 -0.26,0.52 -0.49,0.7 -0.23,0.18 -0.5,0.3 -0.83,0.35 -0.32,0.06 -0.61,0.05 -0.89,-0.04 -0.28,-0.09 -0.51,-0.25 -0.7,-0.48 -0.19,-0.23 -0.32,-0.53 -0.39,-0.91 -0.07,-0.37 -0.05,-0.7 0.05,-0.99 0.1,-0.28 0.27,-0.51 0.5,-0.69 0.23,-0.18 0.5,-0.29 0.81,-0.35 0.32,-0.06 0.61,-0.04 0.89,0.04 0.28,0.09 0.52,0.25 0.71,0.48 0.19,0.23 0.32,0.53 0.39,0.91zm-0.85 0.15c-0.06,-0.35 -0.18,-0.6 -0.36,-0.75 -0.18,-0.15 -0.4,-0.21 -0.66,-0.16 -0.24,0.05 -0.43,0.17 -0.55,0.38 -0.11,0.2 -0.14,0.48 -0.08,0.83 0.06,0.35 0.19,0.6 0.37,0.75 0.18,0.16 0.4,0.21 0.65,0.16 0.25,-0.04 0.44,-0.17 0.55,-0.37 0.12,-0.21 0.15,-0.49 0.08,-0.84z"></path>
   <path id="_3" class="fil2" d="M26.68 5.93l-1.21 0.04c-0.03,-0.03 -0.05,-0.08 -0.07,-0.14 -0.02,-0.05 -0.03,-0.11 -0.03,-0.18 0,-0.12 0.02,-0.2 0.07,-0.26 0.06,-0.05 0.13,-0.08 0.22,-0.08l1.21 -0.04c0.02,0.03 0.04,0.08 0.06,0.13 0.02,0.06 0.03,0.12 0.04,0.18 0,0.12 -0.03,0.21 -0.08,0.26 -0.06,0.06 -0.13,0.09 -0.21,0.09z"></path>
   <path id="_4" class="fil2" d="M28.54 5.71l-0.83 -0.06 0.12 -1.51c0.02,-0.14 0.07,-0.25 0.15,-0.32 0.09,-0.07 0.2,-0.1 0.33,-0.09 0.08,0.01 0.15,0.02 0.22,0.04 0.08,0.01 0.13,0.03 0.16,0.04l-0.15 1.9zm-0.41 0.1l0.06 -0.67 1.64 0.14c0.02,0.04 0.04,0.08 0.05,0.14 0.02,0.06 0.02,0.12 0.01,0.19 -0.01,0.11 -0.04,0.2 -0.1,0.25 -0.05,0.05 -0.13,0.07 -0.22,0.07l-1.44 -0.12zm0.13 -1.41l0.05 -0.67 1.83 0.15c0.02,0.04 0.03,0.08 0.05,0.14 0.01,0.06 0.01,0.13 0.01,0.19 -0.01,0.12 -0.05,0.2 -0.1,0.25 -0.06,0.06 -0.14,0.08 -0.23,0.07l-1.61 -0.13zm-0.52 0.92l0.83 0.07 -0.14 1.68c-0.04,0.01 -0.09,0.02 -0.16,0.02 -0.08,0 -0.15,0 -0.23,-0.01 -0.16,-0.01 -0.28,-0.05 -0.34,-0.11 -0.06,-0.07 -0.09,-0.17 -0.07,-0.31l0.11 -1.34z"></path>
   <path id="_5" class="fil2" d="M31.69 5.76l0.35 0.08c0.18,0.04 0.33,0.03 0.46,-0.02 0.12,-0.06 0.2,-0.16 0.24,-0.32 0.04,-0.15 0.01,-0.28 -0.07,-0.39 -0.09,-0.1 -0.24,-0.18 -0.45,-0.23 -0.06,-0.01 -0.12,-0.02 -0.17,-0.03 -0.05,-0.01 -0.1,-0.01 -0.15,-0.01l-0.21 0.92zm0.28 0.73l-1.23 -0.29 0.43 -1.86c0.01,-0.07 0.04,-0.12 0.09,-0.15 0.05,-0.03 0.11,-0.05 0.18,-0.06 0.13,-0.01 0.27,-0.01 0.43,0.01 0.17,0.02 0.33,0.05 0.51,0.09 0.48,0.11 0.82,0.29 1.01,0.55 0.2,0.26 0.26,0.56 0.18,0.9 -0.05,0.22 -0.16,0.4 -0.31,0.54 -0.16,0.14 -0.35,0.24 -0.57,0.29 -0.22,0.04 -0.46,0.04 -0.72,-0.02zm-0.11 -0.23l0.77 0c0.05,0.13 0.11,0.26 0.17,0.39 0.07,0.13 0.12,0.26 0.18,0.38 0.06,0.12 0.11,0.24 0.15,0.34 0.05,0.1 0.08,0.19 0.11,0.26 -0.06,0.1 -0.14,0.17 -0.23,0.21 -0.1,0.04 -0.2,0.04 -0.3,0.02 -0.13,-0.03 -0.23,-0.08 -0.28,-0.16 -0.06,-0.07 -0.11,-0.17 -0.14,-0.28l-0.43 -1.16zm-1.05 -0.36l0.81 0.19 -0.32 1.39c-0.04,0 -0.09,0 -0.16,-0.01 -0.08,-0.01 -0.15,-0.02 -0.23,-0.04 -0.16,-0.03 -0.26,-0.09 -0.32,-0.16 -0.05,-0.07 -0.06,-0.18 -0.03,-0.32l0.25 -1.05z"></path>
   <path id="_6" class="fil2" d="M34.53 5.98l0.75 0.3 -0.82 2.14c-0.04,-0.01 -0.09,-0.02 -0.15,-0.03 -0.07,-0.02 -0.14,-0.04 -0.21,-0.06 -0.13,-0.05 -0.21,-0.13 -0.26,-0.23 -0.05,-0.11 -0.05,-0.22 0,-0.35l0.69 -1.77zm0.28 1.54l-0.76 -0.3 0.68 -1.75c0.05,-0.13 0.12,-0.22 0.23,-0.27 0.1,-0.04 0.21,-0.04 0.34,0.01 0.07,0.03 0.14,0.06 0.2,0.09 0.06,0.04 0.1,0.07 0.13,0.08l-0.82 2.14zm-0.22 -0.48l0.24 -0.62 1.55 0.6c0.01,0.04 0.01,0.09 0.01,0.15 -0.01,0.06 -0.02,0.12 -0.04,0.18 -0.05,0.11 -0.1,0.18 -0.17,0.21 -0.07,0.04 -0.15,0.04 -0.23,0l-1.36 -0.52zm-0.49 1.29l0.24 -0.62 1.71 0.66c0.01,0.04 0.01,0.09 0.01,0.15 0,0.06 -0.02,0.12 -0.04,0.18 -0.04,0.11 -0.1,0.18 -0.17,0.21 -0.07,0.04 -0.14,0.04 -0.23,0.01l-1.52 -0.59zm0.96 -2.5l0.24 -0.62 1.69 0.65c0.01,0.04 0.02,0.09 0.01,0.15 0,0.06 -0.02,0.12 -0.04,0.18 -0.04,0.11 -0.1,0.18 -0.16,0.21 -0.07,0.04 -0.15,0.04 -0.24,0.01l-1.5 -0.58z"></path>
   <path id="_7" class="fil2" d="M37.69 7.36l0.69 0.43 -1.23 1.94c-0.03,-0.01 -0.08,-0.03 -0.14,-0.06 -0.07,-0.02 -0.13,-0.06 -0.2,-0.1 -0.11,-0.07 -0.18,-0.16 -0.21,-0.27 -0.02,-0.12 0,-0.23 0.08,-0.34l1.01 -1.6zm-0.02 1.55l-0.69 -0.43 1.01 -1.59c0.07,-0.12 0.16,-0.19 0.27,-0.21 0.11,-0.03 0.23,0 0.34,0.07 0.07,0.04 0.12,0.09 0.18,0.13 0.05,0.05 0.08,0.08 0.11,0.11l-1.22 1.92zm-0.12 -0.5l0.35 -0.56 1.4 0.89c0,0.04 0,0.09 -0.02,0.15 -0.01,0.05 -0.04,0.11 -0.07,0.16 -0.06,0.1 -0.13,0.16 -0.21,0.18 -0.07,0.02 -0.15,0 -0.22,-0.04l-1.23 -0.78zm-0.74 1.16l0.36 -0.56 1.55 0.98c0,0.04 0,0.09 -0.02,0.15 -0.02,0.06 -0.04,0.12 -0.08,0.18 -0.06,0.09 -0.13,0.15 -0.2,0.17 -0.08,0.02 -0.15,0 -0.22,-0.04l-1.39 -0.88zm1.44 -2.26l0.35 -0.56 1.53 0.97c0.01,0.04 0,0.09 -0.02,0.15 -0.01,0.05 -0.04,0.11 -0.07,0.16 -0.07,0.1 -0.13,0.16 -0.21,0.18 -0.07,0.02 -0.15,0.01 -0.22,-0.04l-1.36 -0.86z"></path>
   <circle class="fil0 str1" cx="26.99" cy="27.35" r="23.6"></circle>
   <path class="fil2" d="M16 46.38l-0.62 0.96c-0.05,0.09 -0.11,0.14 -0.17,0.17 -0.06,0.02 -0.14,0.03 -0.24,0.02 -0.11,-0.01 -0.26,-0.04 -0.44,-0.11 -0.18,-0.06 -0.35,-0.15 -0.51,-0.25 -0.29,-0.19 -0.53,-0.41 -0.7,-0.66 -0.16,-0.26 -0.25,-0.54 -0.25,-0.84 0.01,-0.31 0.12,-0.63 0.34,-0.97 0.21,-0.33 0.45,-0.56 0.73,-0.69 0.28,-0.13 0.57,-0.18 0.88,-0.14 0.31,0.04 0.61,0.15 0.9,0.33 0.19,0.13 0.34,0.25 0.45,0.38 0.12,0.13 0.19,0.26 0.22,0.38 0.03,0.12 0.02,0.22 -0.04,0.31 -0.05,0.07 -0.1,0.12 -0.17,0.15 -0.07,0.03 -0.14,0.05 -0.21,0.04 -0.04,-0.1 -0.11,-0.2 -0.2,-0.32 -0.09,-0.12 -0.21,-0.23 -0.37,-0.33 -0.17,-0.11 -0.35,-0.17 -0.53,-0.18 -0.18,-0.02 -0.35,0.02 -0.51,0.11 -0.16,0.09 -0.3,0.23 -0.42,0.42 -0.14,0.2 -0.21,0.39 -0.22,0.58 -0.02,0.18 0.02,0.34 0.1,0.49 0.09,0.15 0.21,0.28 0.38,0.38 0.07,0.05 0.15,0.09 0.22,0.11 0.08,0.03 0.13,0.04 0.18,0.05l0.35 -0.54 -0.55 -0.35c0.01,-0.04 0.01,-0.09 0.03,-0.15 0.01,-0.06 0.04,-0.11 0.07,-0.17 0.07,-0.09 0.13,-0.15 0.21,-0.17 0.07,-0.01 0.14,0 0.22,0.05l0.78 0.5c0.08,0.05 0.13,0.12 0.15,0.19 0.02,0.08 0,0.16 -0.06,0.25zm2.83 2.23c-0.05,0.01 -0.11,0.02 -0.18,0.01 -0.07,0 -0.14,-0.02 -0.23,-0.05 -0.1,-0.04 -0.18,-0.09 -0.25,-0.15 -0.06,-0.05 -0.08,-0.12 -0.08,-0.19 0.01,-0.37 0.02,-0.68 0.03,-0.92 0,-0.25 0.01,-0.46 0.03,-0.63l-0.03 -0.01c-0.09,0.21 -0.18,0.4 -0.25,0.57 -0.08,0.18 -0.15,0.35 -0.22,0.52 -0.07,0.16 -0.15,0.33 -0.22,0.5 -0.08,0.18 -0.16,0.36 -0.26,0.56 -0.04,0 -0.1,-0.01 -0.16,-0.02 -0.07,-0.01 -0.14,-0.03 -0.2,-0.05 -0.13,-0.05 -0.22,-0.12 -0.28,-0.19 -0.05,-0.07 -0.06,-0.16 -0.02,-0.27 0.03,-0.08 0.08,-0.19 0.15,-0.33 0.07,-0.15 0.14,-0.31 0.23,-0.5 0.09,-0.19 0.18,-0.39 0.28,-0.6 0.09,-0.21 0.19,-0.41 0.29,-0.62 0.1,-0.2 0.19,-0.39 0.27,-0.56 0.05,-0.03 0.12,-0.05 0.22,-0.06 0.09,-0.01 0.21,0.01 0.36,0.07 0.15,0.06 0.26,0.13 0.34,0.22 0.07,0.08 0.11,0.19 0.11,0.32 0,0.14 0,0.31 -0.01,0.49 -0.01,0.19 -0.01,0.37 -0.02,0.56 -0.01,0.19 -0.02,0.36 -0.02,0.51l0.02 0.01c0.22,-0.26 0.43,-0.52 0.64,-0.76 0.22,-0.25 0.4,-0.46 0.54,-0.62 0.06,-0.01 0.13,0 0.21,0.01 0.08,0.01 0.16,0.04 0.24,0.07 0.15,0.06 0.26,0.12 0.33,0.2 0.08,0.08 0.1,0.16 0.09,0.26 -0.01,0.07 -0.04,0.17 -0.08,0.32 -0.04,0.15 -0.09,0.31 -0.14,0.5 -0.06,0.19 -0.11,0.39 -0.18,0.6 -0.06,0.2 -0.12,0.4 -0.18,0.6 -0.06,0.19 -0.11,0.37 -0.16,0.52 -0.05,0.15 -0.09,0.28 -0.12,0.37 -0.06,0.01 -0.13,0.01 -0.19,0 -0.06,0 -0.13,-0.02 -0.22,-0.06 -0.11,-0.04 -0.19,-0.1 -0.25,-0.17 -0.06,-0.07 -0.08,-0.17 -0.04,-0.28 0.09,-0.28 0.18,-0.53 0.26,-0.78 0.09,-0.24 0.17,-0.47 0.24,-0.67 0.07,-0.2 0.13,-0.37 0.18,-0.52l-0.02 -0.01c-0.1,0.13 -0.24,0.29 -0.41,0.48 -0.17,0.19 -0.38,0.44 -0.64,0.75zm6.04 0.63c-0.06,0.38 -0.19,0.68 -0.39,0.91 -0.19,0.23 -0.42,0.39 -0.7,0.48 -0.28,0.09 -0.58,0.1 -0.9,0.05 -0.32,-0.06 -0.59,-0.18 -0.82,-0.36 -0.23,-0.18 -0.4,-0.41 -0.49,-0.69 -0.1,-0.28 -0.12,-0.61 -0.05,-0.99 0.07,-0.37 0.2,-0.68 0.39,-0.91 0.19,-0.23 0.43,-0.39 0.71,-0.47 0.27,-0.09 0.57,-0.11 0.88,-0.05 0.32,0.06 0.59,0.17 0.82,0.35 0.23,0.18 0.4,0.41 0.5,0.69 0.1,0.29 0.12,0.62 0.05,0.99zm-0.85 -0.15c0.07,-0.35 0.04,-0.62 -0.08,-0.83 -0.12,-0.21 -0.3,-0.33 -0.56,-0.38 -0.24,-0.04 -0.46,0.01 -0.64,0.16 -0.19,0.15 -0.31,0.4 -0.37,0.75 -0.06,0.36 -0.04,0.64 0.08,0.84 0.12,0.21 0.3,0.33 0.56,0.38 0.25,0.04 0.47,-0.01 0.65,-0.16 0.18,-0.15 0.3,-0.41 0.36,-0.76zm3.19 0.78l-1.21 -0.03c-0.02,-0.03 -0.04,-0.08 -0.05,-0.14 -0.02,-0.06 -0.03,-0.12 -0.03,-0.18 0.01,-0.12 0.04,-0.2 0.09,-0.26 0.06,-0.05 0.13,-0.07 0.22,-0.07l1.21 0.03c0.02,0.03 0.04,0.08 0.06,0.14 0.02,0.06 0.02,0.12 0.02,0.18 0,0.12 -0.03,0.2 -0.09,0.26 -0.06,0.05 -0.13,0.08 -0.22,0.07zm2.4 -0.45l-0.83 0.1 -0.19 -1.5c-0.02,-0.14 0.01,-0.25 0.08,-0.34 0.07,-0.09 0.17,-0.14 0.31,-0.16 0.07,-0.01 0.15,-0.01 0.22,-0.01 0.07,0 0.13,0 0.16,0.01l0.25 1.9zm-0.38 0.17l-0.09 -0.66 1.64 -0.21c0.03,0.03 0.06,0.08 0.08,0.13 0.03,0.06 0.04,0.12 0.05,0.18 0.02,0.12 0,0.21 -0.04,0.27 -0.05,0.06 -0.12,0.1 -0.21,0.11l-1.43 0.18zm-0.17 -1.4l-0.08 -0.67 1.81 -0.23c0.03,0.03 0.05,0.07 0.08,0.13 0.02,0.05 0.04,0.12 0.05,0.18 0.01,0.12 0,0.21 -0.05,0.27 -0.04,0.06 -0.11,0.1 -0.2,0.11l-1.61 0.21zm-0.32 1.01l0.83 -0.1 0.21 1.67c-0.03,0.01 -0.08,0.03 -0.15,0.05 -0.07,0.02 -0.15,0.03 -0.22,0.04 -0.17,0.02 -0.29,0.01 -0.36,-0.04 -0.08,-0.05 -0.12,-0.15 -0.14,-0.29l-0.17 -1.33zm4.26 -0.87l0.35 -0.1c0.17,-0.05 0.3,-0.13 0.39,-0.24 0.08,-0.11 0.1,-0.24 0.06,-0.39 -0.04,-0.16 -0.13,-0.26 -0.25,-0.31 -0.13,-0.05 -0.3,-0.04 -0.51,0.02 -0.06,0.01 -0.11,0.03 -0.16,0.05 -0.05,0.02 -0.09,0.04 -0.14,0.06l0.26 0.91zm0.6 0.5l-1.22 0.35 -0.52 -1.84c-0.02,-0.07 -0.02,-0.13 0.01,-0.18 0.03,-0.05 0.07,-0.09 0.13,-0.13 0.1,-0.08 0.23,-0.15 0.38,-0.21 0.15,-0.06 0.31,-0.12 0.48,-0.16 0.48,-0.14 0.87,-0.14 1.16,-0.01 0.3,0.13 0.49,0.37 0.59,0.71 0.06,0.21 0.06,0.42 -0.01,0.62 -0.07,0.2 -0.19,0.37 -0.36,0.52 -0.17,0.15 -0.39,0.26 -0.64,0.33zm-0.21 -0.14l0.68 -0.38c0.11,0.09 0.22,0.18 0.34,0.26 0.12,0.09 0.23,0.17 0.34,0.25 0.11,0.08 0.21,0.16 0.29,0.22 0.09,0.07 0.16,0.13 0.22,0.18 0,0.11 -0.04,0.21 -0.1,0.29 -0.06,0.08 -0.15,0.14 -0.25,0.17 -0.13,0.04 -0.24,0.03 -0.32,0 -0.09,-0.04 -0.17,-0.1 -0.26,-0.18l-0.94 -0.81zm-1.09 0.19l0.8 -0.23 0.39 1.37c-0.03,0.02 -0.08,0.05 -0.15,0.08 -0.06,0.03 -0.13,0.05 -0.21,0.07 -0.16,0.05 -0.28,0.05 -0.36,0.01 -0.08,-0.03 -0.14,-0.12 -0.18,-0.27l-0.29 -1.03zm3.3 -2.05l0.73 -0.37 1.04 2.04c-0.02,0.02 -0.06,0.05 -0.12,0.09 -0.05,0.05 -0.12,0.08 -0.18,0.12 -0.13,0.06 -0.24,0.07 -0.35,0.04 -0.11,-0.04 -0.19,-0.11 -0.25,-0.23l-0.87 -1.69zm1.33 0.81l-0.72 0.37 -0.86 -1.68c-0.06,-0.12 -0.08,-0.24 -0.04,-0.34 0.03,-0.11 0.11,-0.19 0.23,-0.25 0.07,-0.04 0.14,-0.07 0.2,-0.09 0.07,-0.02 0.12,-0.03 0.15,-0.04l1.04 2.03zm-0.49 -0.16l-0.3 -0.59 1.47 -0.75c0.04,0.02 0.08,0.05 0.12,0.09 0.04,0.04 0.08,0.09 0.11,0.15 0.05,0.11 0.07,0.19 0.04,0.27 -0.02,0.07 -0.07,0.13 -0.15,0.17l-1.29 0.66zm0.63 1.23l-0.31 -0.59 1.64 -0.84c0.04,0.02 0.07,0.05 0.12,0.09 0.04,0.05 0.08,0.1 0.11,0.16 0.05,0.1 0.07,0.19 0.04,0.26 -0.02,0.08 -0.07,0.13 -0.15,0.17l-1.45 0.75zm-1.23 -2.39l-0.3 -0.58 1.62 -0.83c0.03,0.02 0.07,0.05 0.11,0.09 0.04,0.04 0.08,0.09 0.11,0.15 0.05,0.1 0.07,0.19 0.05,0.26 -0.02,0.08 -0.07,0.14 -0.15,0.18l-1.44 0.73zm2.85 -1.21l0.67 -0.47 1.33 1.87c-0.02,0.03 -0.06,0.07 -0.11,0.11 -0.05,0.05 -0.1,0.1 -0.17,0.14 -0.11,0.08 -0.22,0.11 -0.33,0.09 -0.11,-0.02 -0.21,-0.08 -0.29,-0.19l-1.1 -1.55zm1.44 0.62l-0.67 0.47 -1.09 -1.54c-0.08,-0.11 -0.11,-0.22 -0.09,-0.34 0.02,-0.11 0.09,-0.2 0.2,-0.28 0.06,-0.04 0.12,-0.08 0.18,-0.11 0.07,-0.03 0.11,-0.05 0.14,-0.07l1.33 1.87zm-0.52 -0.09l-0.38 -0.54 1.35 -0.96c0.04,0.02 0.09,0.04 0.13,0.08 0.05,0.03 0.09,0.08 0.13,0.13 0.07,0.09 0.1,0.18 0.09,0.26 -0.02,0.07 -0.06,0.13 -0.13,0.19l-1.19 0.84zm0.8 1.12l-0.38 -0.54 1.5 -1.07c0.03,0.02 0.08,0.04 0.13,0.08 0.05,0.04 0.09,0.08 0.13,0.14 0.07,0.09 0.09,0.18 0.08,0.25 -0.01,0.08 -0.05,0.14 -0.12,0.19l-1.34 0.95zm-1.55 -2.18l-0.38 -0.54 1.47 -1.05c0.05,0.01 0.09,0.04 0.13,0.07 0.05,0.04 0.09,0.08 0.13,0.13 0.07,0.1 0.1,0.19 0.09,0.26 -0.01,0.08 -0.05,0.14 -0.13,0.2l-1.31 0.93z"></path>
   <path class="fil2" d="M9.1 26.99c0,-9.87 8.02,-17.89 17.89,-17.89 9.86,0 17.89,8.02 17.89,17.89 0,9.86 -8.03,17.89 -17.89,17.89 -9.87,0 -17.89,-8.03 -17.89,-17.89z"></path>
   <g style="clip-path:url(#id0)">
    <g>
     <path id="_1_0" class="fil3 str2" d="M16.27 16.15l7.09 7.1c-0.09,0.07 -0.17,0.15 -0.26,0.23 -0.08,0.09 -0.16,0.17 -0.23,0.26l-7.1 -7.1 0.5 -0.49z"></path>
     <path class="fil3 str3" d="M37.75 37.64l-0.49 0.49 -7.09 -7.09c0.08,-0.08 0.17,-0.16 0.25,-0.24 0.09,-0.09 0.16,-0.17 0.24,-0.25l7.09 7.09z"></path>
     <path class="fil4" d="M30.62 23.29c-0.31,-1 -0.58,-1.93 -0.58,-2.78l3.35 3.35c-0.85,0 -1.77,-0.27 -2.77,-0.57zm-0.54 4.29l-3.76 -3.76c1.04,-0.18 2.16,0.09 3.32,0.44 0.35,1.16 0.63,2.28 0.44,3.32zm-1 1.87c-0.22,0.22 -0.44,0.38 -0.66,0.51l-4.48 -4.48c0.14,-0.22 0.3,-0.44 0.51,-0.65 0.21,-0.21 0.42,-0.38 0.64,-0.52l4.51 4.5c-0.14,0.22 -0.32,0.43 -0.52,0.64zm-5.03 0.4c-0.33,-1.11 -0.62,-2.13 -0.53,-3.07l3.61 3.6c-0.95,0.09 -1.97,-0.19 -3.08,-0.53zm-0.46 4.04l-3.57 -3.58c0.94,-0.09 1.96,0.18 3.06,0.52 0.33,1.09 0.6,2.11 0.51,3.06zm12.8 -10.9c-0.23,-0.24 -0.62,-0.24 -0.85,0 -0.25,0.24 -0.5,0.42 -0.75,0.55l-4.43 -4.43c0.13,-0.25 0.31,-0.5 0.55,-0.74 0.24,-0.24 0.24,-0.62 0,-0.86 -0.24,-0.23 -0.62,-0.23 -0.86,0 -1.61,1.62 -1.33,3.56 -0.82,5.37 -1.87,-0.49 -3.86,-0.68 -5.64,1.09 -1.68,1.68 -1.43,3.64 -0.92,5.48 -1.85,-0.5 -3.82,-0.73 -5.53,0.98 -0.24,0.24 -0.24,0.62 0,0.86 0.23,0.23 0.62,0.23 0.85,0 0.24,-0.24 0.49,-0.42 0.73,-0.57l4.46 4.46c-0.15,0.25 -0.33,0.49 -0.57,0.73 -0.23,0.24 -0.23,0.62 0,0.86 0.24,0.24 0.62,0.24 0.86,0 1.71,-1.72 1.49,-3.69 0.99,-5.54 1.83,0.51 3.8,0.76 5.47,-0.92 1.77,-1.78 1.59,-3.77 1.1,-5.64 1.8,0.51 3.74,0.8 5.36,-0.82 0.24,-0.23 0.24,-0.62 0,-0.86z"></path>
    </g>
   </g>
   <path class="fil5" d="M9.1 26.99c0,-9.87 8.02,-17.89 17.89,-17.89 9.86,0 17.89,8.02 17.89,17.89 0,9.86 -8.03,17.89 -17.89,17.89 -9.87,0 -17.89,-8.03 -17.89,-17.89z"></path>
   <path class="fil0 str4" d="M42.63 11.82c4.1,4.13 6.4,9.71 6.4,15.53 0,5.25 -1.88,10.34 -5.29,14.33"></path>
   <path class="fil0 str4" d="M11 42.52c-3.89,-4.09 -6.06,-9.53 -6.06,-15.17 0,-5.53 2.08,-10.86 5.83,-14.93"></path>
  </g>
 </g>
</svg>
