<svg viewBox="0 0 500 500" xmlns="http://www.w3.org/2000/svg" data-sanitized-data-name="Layer 1" data-name="Layer 1" id="Layer_1">
  <defs>
    <style>
      .cls-1 {
        fill: #7b3623;
      }

      .cls-2, .cls-3, .cls-4 {
        fill: none;
      }

      .cls-3 {
        stroke: #f9d53b;
        stroke-width: 2.99px;
      }

      .cls-3, .cls-4 {
        stroke-miterlimit: 10;
      }

      .cls-4 {
        stroke: #4f2a22;
        stroke-width: 8px;
      }

      .cls-5 {
        fill: #4f2a22;
      }
    </style>
  </defs>
  <g>
    <path d="m292.66,237.9c.18,0,.35,0,.53.03h-1.05c.17-.02.35-.03.53-.03" class="cls-1"></path>
    <path d="m209.73,237.92c.1,0,.21,0,.31.01h-.62c.1,0,.21-.01.31-.01" class="cls-1"></path>
    <path d="m209.42,237.93c-.08,0-.16.01-.24.02v-.02h.24" class="cls-1"></path>
    <circle r="230.5" cy="250" cx="250" class="cls-4"></circle>
    <circle r="223" cy="250" cx="250" class="cls-2"></circle>
    <g>
      <path d="m207.47,107.5h7.99c0,1.02,0,1.95,0,2.88.04,10.77-.07,21.55.17,32.32.25,11.04,1.77,21.91,7.54,31.6,2.34,3.93,5.53,7.36,8.68,11.46,4.24-7.39,9.7-12.05,17.26-14.38-1.9-1.64-3.69-2.98-5.23-4.55-6.11-6.23-9.51-13.8-9.54-22.47-.04-11.74.51-23.48.82-35.21.01-.56.16-1.11.25-1.66h7.35c0,4.57.06,8.9-.01,13.24-.13,7.08-.36,14.16-.52,21.25-.21,9.05,3.18,16.39,10.57,22.1.53-.77,1.03-1.44,1.47-2.15,22.06-35.23,72.08-34.09,92.63,2.07.65,1.15,2.06,2.31,3.32,2.61,8.76,2.13,13.63,9.01,12.75,18.11-.1.99.4,2.44,1.15,3.05,15.79,12.95,14.18,35.57-3.34,46.07-.33.2-.64.41-.91.57.89,4.73,1.99,9.34,2.6,14.01,2.4,18.54-2.4,34.98-14.95,48.95-1.68,1.87-2.08,3.21-1.11,5.75,3.11,8.12-1.37,17.03-9.7,19.92-1.61.56-2.44,1.37-3.08,2.98-6.16,15.64-23.99,22.2-38.77,14.22-2.2-1.19-3.39-.78-4.88,1.03-10.81,13.19-29.91,13.75-41.72,1.39-1.04-1.09-2.65-1.9-4.14-2.28-17.81-4.54-31.83-14.78-43.43-28.67-2.98-3.57-5.75-7.33-8.67-10.95-3.69-4.57-10.22-5.04-14.23-.7-1.12,1.21-1.5,3.49-1.52,5.28-.18,16.69-.2,33.39-.27,50.08,0,1.24,0,2.48,0,3.88h-7.82c0-3.71-.01-7.35,0-10.99.06-15.04.18-30.09.17-45.13,0-3.67,1.34-6.59,3.95-9.01,6.56-6.11,19.03-7.69,25.95,1.67,6.58,8.9,13.47,17.56,22.37,24.36,6.34,4.84,13.18,8.71,20.93,11.09-.22-3.78-.44-7.31-.66-11.05h7.67c.22,2.36.29,4.76.69,7.1,1.38,8.05,7.52,14.35,15.39,15.94,7.8,1.58,15.78-1.76,20.29-8.43.84-1.24,1.04-2.14.07-3.57-3.85-5.66-5.18-12-4.58-19.01h7.85c-.47,7.19,1.06,13.7,6.75,18.61,3.34,2.88,7.22,4.52,11.6,4.86,8.38.67,16.19-4.34,19.49-12.43-2.1-1.32-4.21-2.65-6.66-4.18,1.52-2.28,2.94-4.39,4.34-6.5,7.56,4.36,11.14,4.33,14.21.02,2.94-4.14,1.58-7.78-5.13-13.29,1.35-2.03,2.72-4.08,4.16-6.24.9.44,1.65.81,2.36,1.16,16.34-15.34,19.26-39.06,12.28-57.07h-8.06v-7.71c11.96.39,20.63-4.29,23.06-16.76,1.53-7.85-1.79-14.16-8.21-19.24-4.28,3.71-9.23,5.06-14.93,4.13v-7.33c1.86-.18,3.6-.2,5.29-.53,4.08-.82,6.88-4.66,6.34-8.46-.61-4.26-4.03-7.44-8.29-6.77-3.33.53-4.24-1.01-5.43-3.48-7.76-16.09-20.68-25.32-38.41-26.69-18.41-1.43-32.37,6.75-42.26,22.13-.67,1.05-1.22,2.17-1.81,3.24,1.96,1.38,2.27,3.47,1.29,8.44-7.43-.35-14.15,1.45-19.01,7.67-3.04,3.9-4.36,8.35-4.14,13.3.47,10.93,8.01,17.04,23.33,18.68v7.77c-2.82-.16-5.65-.03-8.33-.58-2.02-.42-2.73.33-3.56,1.85-9.27,16.86-10.07,34.13-2.32,51.68,1.16,2.63.6,3.89-1.28,5.53-6.7,5.84-15.75,6.03-22.86.2-4.5-3.69-8.72-7.73-13.3-11.3-6.21-4.84-13.14-8.36-21.17-8.75-17.29-.85-32.24,10.77-36.05,28.02-.73,3.29-1.11,6.72-1.13,10.08-.11,17.86-.05,35.72-.05,53.58,0,1.06,0,2.12,0,3.37h-7.5c-.11-.47-.32-.91-.32-1.36.04-20.19-.38-40.39.3-60.55.75-21.97,18.53-39.64,40.47-41.15,9.75-.67,18.67,2.4,26.52,7.96,5.92,4.19,11.32,9.1,16.9,13.76,3.29,2.75,6.79,3.51,11.03,1.49-7.52-19.87-6.06-39.09,4.53-57.76-.71-.57-1.44-1.15-2.17-1.73-8.03-6.3-11.55-14.55-10.87-24.7.06-.96-.39-2.35-1.1-2.89-11.36-8.65-16.57-20.7-18.97-34.25-2.46-13.85-1.49-27.86-1.72-41.82-.05-2.8,0-5.6,0-8.75Z" class="cls-5"></path>
      <path d="m259.95,258.05c2.46-.62,4.79-1.21,7.43-1.88,2.2,8.56,5.65,16.41,13.85,20.83,8.44,4.55,16.72,1.75,25.08-1.4.94,2.47,1.79,4.69,2.63,6.9-21.49,11.45-43.42,1.9-48.98-24.44Z" class="cls-5"></path>
      <path d="m292.34,179.77c-2.02-1.95-3.75-3.63-5.47-5.29,8.87-12.42,24.67-12.49,34.38-.07-1.81,1.66-3.64,3.35-5.65,5.2-3.12-3.14-6.32-6.79-11.48-6.66-5.03.13-8.56,3.22-11.78,6.82Z" class="cls-5"></path>
      <path d="m174.97,237.63c.91-2.57,1.73-4.89,2.63-7.44,5.79,2.04,11.31,3.98,17.12,6.02-.86,2.49-1.67,4.81-2.58,7.46-5.77-2.03-11.35-3.99-17.17-6.04Z" class="cls-5"></path>
      <path d="m205.92,197.91c2.49-1.21,4.64-2.26,7.11-3.46,2.67,5.51,5.27,10.86,7.96,16.4-2.32,1.15-4.47,2.22-7.05,3.5-2.64-5.41-5.24-10.74-8.01-16.43Z" class="cls-5"></path>
      <path d="m351.52,123.84c1.53,1.52,3.29,3.27,5.04,5-4.31,4.19-8.59,8.35-12.97,12.61-1.47-1.49-3.23-3.28-5.1-5.18,4.31-4.11,8.57-8.18,13.03-12.44Z" class="cls-5"></path>
      <path d="m330.83,106.08c2.63,1.1,4.83,2.03,7.28,3.06-2.2,5.37-4.32,10.53-6.58,16.05-2.42-.97-4.7-1.87-7.33-2.92,2.22-5.42,4.37-10.65,6.64-16.19Z" class="cls-5"></path>
      <path d="m182.88,211.4c1.77-1.97,3.37-3.77,5.26-5.88,4.37,3.91,8.66,7.73,13.01,11.62-1.78,2.01-3.38,3.82-5.22,5.89-4.31-3.84-8.54-7.61-13.05-11.63Z" class="cls-5"></path>
      <path d="m311.11,125.42h-7.46v-17.83h7.46v17.83Z" class="cls-5"></path>
    </g>
  </g>
  <circle r="222.5" cy="250" cx="250" class="cls-3"></circle>
</svg>