<svg viewBox="0 0 500 500" xmlns="http://www.w3.org/2000/svg" data-name="Layer 1" id="Layer_1">
  <defs>
    <style>
      .cls-1 {
        fill: #4f2a22;
        stroke-width: 1.5px;
      }

      .cls-1, .cls-2, .cls-3 {
        stroke-miterlimit: 10;
      }

      .cls-1, .cls-3 {
        stroke: #4f2a22;
      }

      .cls-4 {
        fill: #7b3623;
      }

      .cls-5, .cls-2, .cls-3 {
        fill: none;
      }

      .cls-2 {
        stroke: #f9d53b;
        stroke-width: 2.99px;
      }

      .cls-3 {
        stroke-width: 8px;
      }
    </style>
  </defs>
  <path d="m30.66,227.4c.18,0,.35,0,.53.03h-1.05c.17-.02.35-.03.53-.03" class="cls-4"></path>
  <g>
    <circle r="230.5" cy="250" cx="250" class="cls-3"></circle>
    <circle r="223" cy="250" cx="250" class="cls-5"></circle>
    <circle r="222.5" cy="250" cx="250" class="cls-2"></circle>
    <g>
      <path d="m172.22,192.17c-1.12,3.7-2.21,7.06-3.13,10.47-.26.97-.3,2.18.03,3.11,1.96,5.56,2.17,11.26,1.89,17.07-.06,1.25.34,2.89,1.16,3.74,11.56,12.05,28.23,7.64,36.71-.47,1.91-1.83,3.86-3.61,5.97-5.58-4.53-2.65-9.36-1.99-14.2-1.71-5.39.31-10.84.74-16.17.21-2.87-.28-5.65-2.29-8.24-3.91-.65-.4-.9-2.64-.39-3.37.5-.72,2.69-1.21,3.32-.73,6.6,5.09,13.9,3.32,21.13,2.51,6.59-.73,13.06-.75,18.83,3.31,4.38,3.08,5.64,7.7,6.55,12.58,1.4,7.47,4.52,13.91,11.42,17.86,4.31,2.47,8.92,3.35,13.73,1.67,1.98-.69,3.66-.63,4.34,1.51.72,2.28-1.06,3.16-2.86,3.63-2.12.55-4.3.9-6.47,1.35-.83,6.59,5.2,16.97,11.47,19.41,1.06.41,2.4.28,3.59.16,8.38-.81,16.8-1.39,25.12-2.64,4.08-.61,8.2-2.05,11.86-3.96,2.22-1.16,3.85-3.79,5.23-6.07,1.04-1.7,1.88-3.21,3.99-2.34,1.97.81,1.7,2.52,1.1,4.25-1.54,4.45-4.53,7.55-8.7,9.56-1.78.86-3.65,1.53-5.3,2.21,0,1.87.33,3.71-.12,5.33-.3,1.07-1.6,2.32-2.66,2.55-.64.14-2.46-1.6-2.39-2.37.39-4.09-1.8-3.86-4.71-3.5-7.01.87-14.06,1.49-21.37,2.24.75,1.65,1.48,3.2,2.16,4.77.77,1.76.67,3.62-1.4,3.96-1.03.17-2.87-.98-3.41-2.02-2.68-5.22-5.27-6.65-10.95-5.57-11.65,2.21-20.03,8.11-22.76,20.28-.41,1.82-.45,3.74-.47,5.62-.06,8.21.05,16.43-.1,24.63-.1,5.51,1.39,10.37,5.44,14.13,4.84,4.49,6.87,9.83,6.21,16.4-.31,3.08.15,6.23-.17,9.3-.11,1.09-1.5,2.06-2.3,3.08-.97-1-2.68-1.95-2.77-3.02-.33-4.19.15-8.45-.25-12.63-.23-2.37-.95-5.27-2.54-6.83-6.94-6.79-9.76-14.81-8.95-24.38.28-3.31.01-6.65.05-9.98.1-9.26-1.17-18.71,4.49-27.23-10.77-1.52-19.95-5.48-27.65-12.37-7-6.27-10.33-14.06-7.87-23.56,1.03-3.99,3.29-7.63,6.97-9.33,3.8-1.76,4.4-4.68,5.12-8.59-9.66,3.5-18.85,3.54-27.53-1.74.62,4.69,1.15,9.05,1.82,13.38.16,1.05.76,2.05,1.24,3.04,3.49,7.1,5.18,14.87,7.89,22.25,2.5,6.82-.36,13.53-6.46,18.51,4.82,6.22,4.63,13.17,3.2,20.31-.38,1.89-.86,3.67-3.28,3.19-2.27-.46-2.15-2.1-1.99-4.12.32-3.93.6-7.97,0-11.82-.61-4.02-2.32-4.73-6.19-3.9-8.63,1.84-17.65-3.25-20.79-12.08-.84-2.35-2.12-3.83-4.07-5.27-6.1-4.51-8.17-10.72-7.1-18.17.16-1.15-.34-2.76-1.13-3.61-4.46-4.79-6.28-10.24-5.23-16.77.25-1.53-.16-3.47-.96-4.81-4.44-7.48-5.37-15.07-1.66-23.14.54-1.17.47-3.02-.07-4.21-3.31-7.26-2.49-14.03,2.18-20.33,1.19-1.6,1.37-2.85.81-4.78-1.98-6.87-.59-13.08,4.1-18.61,1.19-1.41,2.11-3.35,2.4-5.16,1.23-7.73,8.7-14.33,17.21-15.17,8.67-.85,16.64,1.93,24.66,4.42,13.32,4.14,26.62,8.31,40.59,9.77,1.02.11,1.86,1.9,2.79,2.92-1.15.75-2.43,2.29-3.44,2.13-7.64-1.21-15.23-2.74-22.83-4.19-1.15-.22-2.28-.55-3.75-.92.25,1.9.86,3.6.54,5.11-.26,1.23-1.63,2.22-2.51,3.31-.89-.93-1.93-1.76-2.62-2.83-.44-.69-.38-1.71-.5-2.59-.47-3.37-2.02-5.58-5.63-6.4-4.08-.93-8.04-2.37-12.63-3.76.28,1.54.86,2.75.6,3.74-.34,1.3-1.33,2.43-2.04,3.64-1.04-.87-2.68-1.56-3.02-2.65-1.91-6.14-2.78-6.86-9.18-6.41-7.07.5-11.87,5.08-13.04,11.88-.35,2.05-1.46,4.2-2.82,5.8-4.95,5.84-5.62,10.37-2.49,17.37.46,1.04.05,3.08-.74,3.96-6.23,7.03-6.81,11.66-2.47,19.79.59,1.11.57,3.08-.02,4.19-4.52,8.48-4.08,14.74,1.53,22.25.82,1.1,1.15,3.1.81,4.46-1.75,6.91-.35,11.58,5.32,15.69,1.74,1.26,2.02,2.57,1.38,4.55-2.54,7.76-.39,12.71,6.81,16.9,1.11.65,1.98,2.26,2.33,3.59,2.53,9.66,11.4,14.09,19.67,9.7,7.45-3.96,9.28-13.31,4.16-20.31-1.08-1.47-1.42-3.5-2-5.3-.98-3.03-1.89-6.08-2.82-9.13-.76-2.49-1.56-4.96-2.27-7.46-1.62-5.71-3.24-11.41-4.75-17.15-.43-1.64-.94-3.46-.66-5.07,1.13-6.5.66-12.76-1.65-18.96-.47-1.27-.31-3.07.2-4.38,2.17-5.54,3.43-11.16,3.09-17.15-.06-.98,1.04-2.69,1.87-2.88.89-.2,2.24.83,3.14,1.61,2.43,2.13,4.42,4.98,7.17,6.49,3.25,1.79,6.97.93,10.1-1.13,2.17-1.42,3.63-1.23,5.36.82,4.73,5.61,12.27,6.86,18.6,3.05,2.17-1.31,3.51-1.05,5.62.28,2.52,1.59,5.59,2.43,8.52,3.21,1.78.47,3.36.86,3.28,2.96-.08,2.21-1.74,2.69-3.56,2.41-2.17-.33-4.6-.38-6.41-1.44-3.41-1.99-6.38-1.93-10.1-.68-6.46,2.17-12.4.06-17.77-3.89-.77-.56-2.07-1.23-2.76-.95-6.29,2.57-12.12,1.75-17.69-2.09Zm27.79,57.5c-3.71,2.39-5.39,5.56-5.67,9.49-.41,5.84,1.98,10.62,6.11,14.51,7.53,7.09,16.65,10.8,26.86,11.83,1.02.1,2.35-.52,3.17-1.23,4.83-4.15,10.42-6.63,16.62-7.86.68-.14,1.32-.48,1.49-.54-2.86-4.84-5.62-9.54-8.4-14.25-5.93,7.63-13.83,11.57-23.88,8.68-9.98-2.87-15.21-10.04-16.31-20.64Zm18.98-25c-4.52,2.73-7.74,6.15-10.05,10.4-3.59,6.61-4.9,13.54-2.01,20.75,2.67,6.66,9.81,10.68,17.19,9.95,6.22-.61,12.32-6.02,13.43-11.65-3.77-2.81-7.44-5.54-11.53-8.59-1.72,2.55-3.34,5.31-5.35,7.74-.69.84-2.36.87-3.58,1.27-.34-1.24-1.3-2.76-.88-3.66,1.09-2.38,2.38-4.95,4.32-6.6,3.01-2.57,2.85-4.89,1.5-8.21-1.43-3.52-2.01-7.39-3.03-11.41Z" class="cls-1"></path>
      <path d="m303.74,249.98c-35.48-.1-63.78-28.71-63.62-64.3.16-35.19,29.06-63.87,64.11-63.62,35.33.25,63.91,29.13,63.77,64.44-.14,35.11-28.96,63.59-64.26,63.49Zm53.61-87.52c-8.89-23.81-39.48-42.36-71.11-32.21-31.61,10.14-48.63,44.29-37.63,75.12,11.2,31.41,45.76,47.45,76.48,35.4,15.41-6.05,26.36-16.85,32.94-32,4.35-10.01,5.88-23.42,3.53-29.01-1.17.87-2.3,1.74-3.46,2.58-1.17.85-2.29,1.76-3.54,2.47-3.71,2.1-8.02,1.19-10.72-2.17-2.54-3.16-2.57-8.24.59-10.88,4-3.34,8.46-6.13,12.92-9.3Zm-7.45,18.19c.89-.12,1.31-.05,1.54-.22,2.91-2.18,5.92-4.28,8.61-6.71.59-.53.49-2.85-.13-3.42-.83-.75-2.85-1.22-3.72-.71-2.75,1.61-5.31,3.61-7.7,5.73-.71.63-1.05,2.3-.76,3.25.28.93,1.58,1.56,2.17,2.08Z" class="cls-1"></path>
      <path d="m257.65,321.51c0,4.6-.03,8.69,0,12.77.05,5.19-1.5,9.89-4.81,13.83-3.26,3.87-4.74,8.13-4.45,13.16.19,3.32.02,6.66.04,9.98.01,1.85-.51,3.69-2.59,3.37-1.05-.16-2.59-1.95-2.64-3.07-.24-5.09-.59-10.28.19-15.27.55-3.54,2.39-7.12,4.46-10.13,2.88-4.19,4.7-8.42,4.51-13.56-.18-4.77-.1-9.54-.02-14.31.06-3.52,1.86-4.62,4.91-2.92,5.07,2.83,9.81,2.34,14.14-1.35,1.76-1.5,3.16-1.76,5.33-.72,5.62,2.7,11.28,1.16,14.92-4.04,1.69-2.41,3.02-2.59,5.97-1.75,2.85.81,6.33-.58,9.52-1.09.62-.1,1.23-.53,1.74-.94,4.75-3.87,9.6-7.62,14.15-11.7,2.74-2.46,3.56-5.96,3.84-9.64.13-1.72.72-3.71,1.79-4.99,4.42-5.24,5.17-11.02,3.55-17.46-.31-1.23.1-2.89.73-4.04,1.31-2.37,2.87-4.64,4.57-6.74.76-.94,2.12-1.39,3.2-2.07.59,1.24,1.67,2.5,1.63,3.71-.05,1.44-.71,3.25-1.75,4.19-3.07,2.78-2.53,6.11-2.32,9.62.35,5.73-1.2,10.93-4.91,15.46-.7.85-1.12,2.14-1.2,3.26-.57,7.33-3.99,12.75-10.4,16.36-1.3.73-2.48,1.79-3.5,2.9-5.66,6.2-12.23,10.12-21.04,8.96-.87-.11-2.1.49-2.77,1.16-5.13,5.13-11.15,6.41-18.04,4.59-.92-.24-2.25-.27-2.97.22-4.7,3.22-9.73,4.01-15.8,2.24Z" class="cls-1"></path>
      <path d="m235.68,209.22c.66,1.2,1.71,2.33,1.9,3.6.81,5.47,1.35,10.98,2.02,16.48.31,2.6,1.06,4.84,3.6,6.34.84.49.91,2.29,1.34,3.48-1.25.38-2.73,1.39-3.72,1.03-3.8-1.37-5.63-4.66-6.21-8.4-.97-6.23-1.67-12.51-2.2-18.79-.1-1.21,1.12-2.54,1.73-3.81.51.02,1.02.04,1.53.07Z" class="cls-1"></path>
      <path d="m284.02,188.3c-1.72,1.56-3.18,2.88-4.92,4.46,4.62,4.17,9.04,8.17,13.73,12.42,12.26-11.39,25.28-23.5,38.51-35.79-2.45-2.13-4.61-4-7.09-6.14-3.37,3.57-7.22,7.63-11.05,11.69-2.59,2.74-5.16,5.49-7.73,8.25-1.29,1.38-2.96,2.2-4.19.47-.61-.86-.43-3.13.3-3.94,6.75-7.49,13.71-14.8,20.58-22.18,1.69-1.81,3.28-1.99,5.07-.11,2.98,3.14,5.96,6.27,9.05,9.28,2.23,2.18,1.76,3.86-.36,5.81-11.18,10.28-22.29,20.63-33.42,30.95-2.68,2.49-5.42,4.91-8.04,7.46-1.79,1.75-3.31,1.79-5.08-.06-4.99-5.19-10.04-10.33-15.13-15.44-2-2.01-1.98-3.71.18-5.58,2.42-2.11,4.73-4.35,7.04-6.58,1.87-1.81,3.56-1.9,5.37.14,2.27,2.58,4.83,4.92,6.92,7.63.71.93.97,3.1.38,3.96-1.18,1.69-2.87,1.04-4.19-.4-1.87-2.03-3.77-4.02-5.92-6.3Z" class="cls-1"></path>
      <path d="m340.11,213.16c0,6.66-11.79,15.74-17.59,14.28-3.34-.84-5.5-2.95-6.23-6.2-.71-3.2.02-6.21,2.75-8.36,2.69-2.12,5.41-4.24,8.24-6.17,2.71-1.84,5.67-1.76,8.48-.21,2.84,1.57,4.2,4.13,4.34,6.67Zm-5.34.95c0-2.47-2.5-4.15-4.41-2.91-2.84,1.84-5.57,3.93-8.07,6.22-.65.6-.69,2.55-.22,3.48.39.77,2.4,1.63,2.91,1.29,3.26-2.18,6.33-4.66,9.42-7.09.29-.22.3-.79.36-.98Z" class="cls-1"></path>
      <path d="m279.56,213.11c2.9,1.26,7.63,2.85,11.86,5.3,3.22,1.87,3.74,6.78,1.94,10.17-1.78,3.34-5.67,5.28-9.23,4.2-3.58-1.09-7.12-2.41-10.51-3.98-3.61-1.67-5.25-5.73-4.23-9.47,1.07-3.95,4.24-6.34,10.18-6.22Zm-2.3,4.83c-.93.88-2.34,1.6-2.55,2.57-.21,1.01.42,2.89,1.23,3.3,3.05,1.53,6.26,2.8,9.54,3.74.85.24,2.69-.83,3.1-1.74.4-.9-.06-3.07-.79-3.44-3.22-1.65-6.67-2.86-10.53-4.42Z" class="cls-1"></path>
      <path d="m261.4,190.63c-4.32-.28-6.92-1.75-8.43-4.78-1.57-3.16-1.3-6.37.92-9.03,2.26-2.71,4.81-5.21,7.48-7.51,3.49-3.02,8.36-2.7,11.41.44,3.15,3.24,3.3,8.24.16,11.7-2.15,2.38-4.36,4.74-6.83,6.77-1.54,1.26-3.62,1.88-4.71,2.42Zm5.83-18.15c-.75.16-1.18.12-1.38.31-2.76,2.69-5.6,5.31-8.1,8.23-.46.53.17,2.76.96,3.37.74.59,2.75.59,3.49-.02,2.48-2.02,4.76-4.32,6.84-6.75.62-.73.71-2.36.37-3.34-.29-.83-1.55-1.33-2.17-1.81Z" class="cls-1"></path>
      <path d="m288.11,140.1c.79.28,2.38.55,3.64,1.35,2.88,1.85,5.71,3.81,8.34,5.99,3.59,2.98,4.14,7.72,1.57,11.29-2.66,3.7-7.47,4.67-11.47,2.12-2.79-1.78-5.49-3.73-8.08-5.81-3.01-2.41-3.83-6.05-2.47-9.57,1.17-3.02,4.51-5.34,8.47-5.38Zm9.74,13.48c-.11-.34-.13-1.07-.49-1.34-3.08-2.27-6.16-4.58-9.43-6.57-.55-.33-2.32.58-2.94,1.37-.51.65-.59,2.52-.1,2.92,2.95,2.42,6,4.78,9.27,6.73,1.66.98,3.74-.92,3.69-3.12Z" class="cls-1"></path>
      <path d="m306.26,235.75c-1.03-1.12-2.42-1.95-2.5-2.89-.08-.94.98-2.2,1.87-2.93.97-.8,2.26-1.46,3.49-1.63,1.21-.17,2.84-.01,3.67.71.48.42.19,2.74-.49,3.31-1.63,1.35-3.69,2.16-6.03,3.43Z" class="cls-1"></path>
      <path d="m311.7,136.23c1.21,1.13,2.67,1.86,2.81,2.79.14.9-.91,2.22-1.77,2.96-1.05.89-2.39,1.65-3.72,1.93-1.07.23-2.65.02-3.36-.66-.53-.51-.5-2.59.07-3.09,1.66-1.47,3.71-2.5,5.97-3.93Z" class="cls-1"></path>
      <path d="m342.03,153.39c-.36.4-.87,1.44-1.65,1.71-.79.27-2,.04-2.75-.43-1.38-.86-2.68-1.94-3.76-3.15-.57-.64-.94-1.81-.78-2.63.12-.67,1.06-1.45,1.8-1.7,2.36-.8,7.23,3.14,7.15,6.2Z" class="cls-1"></path>
      <path d="m264.69,152.98c.9-.93,1.77-2.58,2.99-2.92,2.11-.58,2.71,1.14,2.88,3.03.1,1.06.87,2.11.8,3.12-.08,1.17-.74,2.31-1.15,3.46-1.22-.43-2.88-.52-3.54-1.38-.96-1.23-1.19-3.03-1.99-5.31Z" class="cls-1"></path>
      <path d="m354.36,204.77c-1.24,1.43-1.78,2.62-2.59,2.85-.84.24-2.23-.16-2.87-.79-1.21-1.2-2.24-2.68-2.97-4.22-.39-.82-.36-2.29.15-2.95.51-.65,2.35-1.21,2.75-.85,1.94,1.74,3.58,3.8,5.53,5.96Z" class="cls-1"></path>
      <path d="m261.07,208.69c-1.18-1.08-2.74-1.87-2.74-2.66,0-1.1.97-2.42,1.89-3.23.94-.82,2.27-1.36,3.52-1.62,1.02-.21,2.78-.19,3.11.38.53.89.63,2.86.03,3.43-1.53,1.43-3.55,2.33-5.81,3.7Z" class="cls-1"></path>
    </g>
  </g>
</svg>