<svg viewBox="0 0 500 500" xmlns="http://www.w3.org/2000/svg" data-sanitized-data-name="Layer 1" data-name="Layer 1" id="Layer_1">
  <defs>
    <style>
      .cls-1, .cls-2, .cls-3 {
        fill: none;
      }

      .cls-2 {
        stroke: #f9d53b;
        stroke-width: 2.99px;
      }

      .cls-2, .cls-3 {
        stroke-miterlimit: 10;
      }

      .cls-3 {
        stroke: #4f2a22;
        stroke-width: 8px;
      }

      .cls-4 {
        fill: #4f2a22;
      }
    </style>
  </defs>
  <g>
    <circle r="230.5" cy="250" cx="250" class="cls-3"></circle>
    <circle r="223" cy="250" cx="250" class="cls-1"></circle>
    <g>
      <path d="m157.03,220.03c4.05,0,7.76-.02,11.47,0,4.07.03,5.57,1.54,5.57,5.63,0,21.1,0,42.21,0,63.31,0,1.08,0,2.15,0,3.42h21.72c-2.09-3.91-4.62-7.78-6.29-11.98-2.77-6.99-1.36-14.08.38-21.13,2.84-11.52,4.78-23.32,8.37-34.59,7.73-24.33,23.58-41.74,47.13-51.94.24-.11.45-.29.93-.59-5.47-11.45-5.51-22.87,1.14-33.92,4.71-7.82,11.64-12.9,20.44-15.25,17.68-4.71,35.89,5.52,41.3,23.12,5.3,17.26-3.84,38.24-25.1,43.39.57,5.28,1.66,10.46,1.55,15.61-.15,7.24-3.59,13.39-8.31,18.8-1.79,2.05-3.41,4.27-5.28,6.24-1.26,1.34-1.38,2.42-.51,4.07,3.73,7.1,9.46,11.55,17.19,13.57,6.86,1.79,10.19,5.76,9.76,11.78-.13,1.84-.93,3.63-1.5,5.71,1.24.58,2.72,1.21,4.14,1.95,14.15,7.36,22.35,18.91,23.59,34.85,1.17,15.04,1.79,30.13,2.6,45.2.23,4.38,2.51,7.04,6.55,8.39,4.04,1.35,8.08,2.67,12.12,4,5.49,1.82,8.01,5.66,7.17,10.91-.72,4.47-4.58,7.46-9.96,7.5-9.64.06-19.29.07-28.93-.02-7.23-.06-12.1-4.2-13.36-11.47-2.31-13.31-4.48-26.65-6.68-39.98-1.16-6.98-2.24-13.97-3.44-20.94-.2-1.17-.87-2.26-1.7-3.39-2.6,9.6-5.92,18.68-12.06,26.51-6.32,8.06-14.36,13.2-24.93,14.73,1,4.13,1.95,8.14,2.95,12.14,1.31,5.27,2.69,10.53,4,15.81,1.09,4.39-.66,6.6-5.26,6.6-33.21.01-66.41.01-99.62,0-4.21,0-5.69-1.53-5.69-5.78,0-13.1-.03-26.2.03-39.3,0-1.7-.39-2.45-2.19-3.01-9.01-2.78-14.81-10.75-14.83-20.29-.04-32.57-.03-65.13-.01-97.7,0-7.61,5.37-13.24,12.55-13.34,7.05-.09,12.73,5.54,13.02,13,.1,2.63.02,5.27.02,8.34Zm112.13-.2c8.2-7.03,10.54-18.76,5.58-27.78-.54-.98-1.88-1.91-2.99-2.12-6.28-1.19-12.18-3.33-16.88-7.68-2.46-2.28-4.6-2.38-7.3-1.18-.91.4-1.88.69-2.76,1.15-19.03,9.91-32.45,24.82-38.53,45.47-3.8,12.92-6.38,26.21-9.27,39.39-1.85,8.42,1.12,15.39,7.61,20.84,3.81,3.2,8.31,4.69,13.33,4.68,22.47-.03,44.93-.02,67.4,0,7.14,0,12.44,4.05,13.62,10.53,1.23,6.78,2.26,13.59,3.4,20.38,2.34,13.94,4.66,27.89,7.05,41.83.54,3.12,1.85,4.16,5,4.16,9.46.02,18.92.01,28.38,0,.65,0,1.3-.18,1.95-.28-.85-1.05-1.78-1.52-2.75-1.85-3.95-1.33-7.93-2.56-11.86-3.94-6.47-2.28-11.02-8.32-11.37-14.94-.75-14.61-1.52-29.23-2.24-43.84-.76-15.34-10.1-27.51-24.89-31.88-8.68-2.57-17.56-4.49-26.21-7.14-6.96-2.14-13.93-3.15-21.17-2.59-1.69.13-3.4.02-5.48.02,0-2.2.15-4.1-.04-5.98-.2-1.88.31-2.74,2.3-2.6,1.2.08,2.42-.09,4.05-.17-6.74-7.97-9.5-16.75-8.67-26.62.46-5.52,1.02-11.04,1.51-16.55.69-7.71,7.4-13.98,15.11-14.11,8.35-.15,15.18,5.5,16.06,13.55.32,2.95.05,5.97.05,9.27Zm-111.9,8.91v140.64h92.43c-2.17-8.65-4.29-17.11-6.44-25.67h-30.69v-8.2c1.38-.06,2.63-.17,3.88-.17,9.64-.01,19.28-.09,28.93.02,8.79.09,16.49-2.46,22.6-8.93,6.63-7.02,9.99-15.63,12.05-25.19-1.57,0-2.92,0-4.27,0-34.57,0-69.13,0-103.7,0-5.37,0-6.6-1.21-6.6-6.55,0-20.92,0-41.84,0-62.75,0-1.04,0-2.09,0-3.19h-8.19Zm93.74-72.81c-.07,14.05,11.26,25.62,25.22,25.77,14.18.15,26.01-11.55,25.97-25.68-.04-14.02-11.5-25.54-25.46-25.59-14.22-.05-25.66,11.29-25.73,25.5Zm-102.55,165.74c0-1.4,0-2.45,0-3.5,0-30.1,0-60.19,0-90.29,0-5.27.03-10.55-.01-15.82-.02-2.88-1.66-4.65-4.17-4.7-2.55-.05-4.19,1.61-4.4,4.5-.04.54-.02,1.09-.02,1.64,0,31.46-.02,62.92,0,94.38,0,1.45.11,2.92.4,4.33.92,4.48,3.55,7.55,8.21,9.45Zm96.54-92.32c-.31,13.16,7.03,23.6,18.26,26.51,7.61,1.97,15.37,3.38,23.08,4.97,1.38.28,3.08.6,3.54-1.44.46-2.02-.89-2.73-2.56-3.1-.53-.12-1.05-.28-1.57-.44-12.94-3.95-21.56-12.29-24.42-25.58-1.1-5.11-.49-10.62-.43-15.94.06-5.03-2.28-8.36-6.53-8.77-4.35-.42-7.62,2.56-8.1,7.6-.54,5.78-.92,11.58-1.27,16.18Z" class="cls-4"></path>
      <path d="m341.8,214.13c7.35-4.89,14.51-9.66,22.02-14.65,1.59,2.36,3.12,4.65,4.75,7.08-8.69,5.78-17.19,11.5-25.76,17.09-2.16,1.41-4.34.78-5.9-1.45-2.03-2.89-3.95-5.84-6.05-8.98-7.34,4.88-14.56,9.67-22.04,14.64-1.6-2.37-3.09-4.59-4.75-7.04,4.33-2.89,8.52-5.69,12.71-8.49,3.99-2.67,7.97-5.37,11.97-8.03,3.15-2.1,5.2-1.7,7.34,1.41,1.89,2.75,3.75,5.52,5.72,8.42Z" class="cls-4"></path>
      <path d="m315.15,232.99c7.21,0,14.21,0,21.2,0,2.27,0,3.48,1.36,4.17,3.28.88,2.47,1.72,4.97,2.43,7.5.41,1.46,1.14,1.96,2.68,1.93,5.26-.1,10.53-.04,16.02-.04v8.6c-7.19,0-14.34.16-21.48-.14-1.28-.05-2.88-1.77-3.62-3.11-1.12-2.03-1.86-4.35-2.31-6.64-.52-2.64-1.93-3.16-4.37-3.07-4.87.19-9.76.06-14.71.06v-8.35Z" class="cls-4"></path>
      <path d="m263.56,305.71v8.01h-97.95v-8.01h97.95Z" class="cls-4"></path>
    </g>
  </g>
  <circle r="222.5" cy="250" cx="250" class="cls-2"></circle>
</svg>