<svg viewBox="0 0 500 500" xmlns="http://www.w3.org/2000/svg" data-name="Layer 1" id="Layer_1">
  <defs>
    <style>
      .cls-1, .cls-2, .cls-3 {
        fill: none;
      }

      .cls-2 {
        stroke: #f9d53b;
        stroke-width: 2.99px;
      }

      .cls-2, .cls-3 {
        stroke-miterlimit: 10;
      }

      .cls-3 {
        stroke: #4f2a22;
        stroke-width: 8px;
      }

      .cls-4 {
        fill: #4f2a22;
      }
    </style>
  </defs>
  <circle r="230.5" cy="250" cx="250" class="cls-3"></circle>
  <circle r="223" cy="250" cx="250" class="cls-1"></circle>
  <circle r="222.5" cy="250" cx="250" class="cls-2"></circle>
  <g>
    <path d="m154.72,283.82c-8.29-5.49-12.6-13.03-12.6-22.62,0-9.5,4.33-16.93,12.49-22.3-.62-.52-1.01-.89-1.44-1.2-8.63-6.29-12.95-17.01-10.49-26.87,2.78-11.18,10.03-17.94,21.27-20.27,2.44-.51,5.03-.47,7.55-.47,17.37-.03,34.74,0,52.11-.01.59,0,1.19-.12,2.26-.24-.71-.61-1.01-.93-1.37-1.17-16.82-11.33-26.52-27.11-29.37-47.13-.44-3.12-.5-6.3-.65-9.46-.14-2.99,1.3-4.81,3.73-4.88,2.29-.06,3.62,1.58,3.92,4.55.52,5.09.45,10.36,1.83,15.21,6.54,22.96,21.7,37.1,45.13,41.78,6.2,1.24,12.7,1.08,19.08,1.28,6.25.2,12.52.03,18.78.06,2.88.01,4.44,1.3,4.49,3.62.05,2.27-1.74,3.89-4.56,3.9-9.28.04-18.57.02-27.85.02-30.03,0-60.06,0-90.09,0-10.81,0-19.02,7.87-19.26,18.44-.22,9.97,7.78,18.57,18.28,18.82,14.13.33,28.26.11,42.4.12,8.01,0,16.03,0,24.35,0,0,2.16.06,4.38-.06,6.59-.02.34-.82.87-1.28.91-1.61.11-3.23.04-4.85.04-20.04.02-40.08.03-60.13.08-10.41.03-18.69,8.39-18.72,18.82-.02,9.86,8.33,18.4,18.44,18.51,13.29.15,26.58.06,39.87.06,8.23,0,16.46.03,24.68-.04,1.75-.01,2.61.45,2.62,2.33,0,1.66.3,3.32.49,5.26-1.27,0-2.3,0-3.33,0-21.1,0-42.19,0-63.29,0-10.89,0-19.21,7.91-19.46,18.54-.23,10.01,7.94,18.61,18.48,18.92,9.84.29,19.69.15,29.53.1,13.22-.08,24.06,5.02,32.51,15.06,6.85,8.15,9.72,17.76,9.43,28.34-.08,2.84-1.51,4.3-3.86,4.32-2.13.01-3.45-1.5-3.66-4.27-.09-1.12.04-2.27-.16-3.37-.71-3.78-1.08-7.69-2.37-11.27-4.44-12.3-17.4-21.21-30.47-21.27-9.7-.04-19.41.11-29.11-.04-11.77-.18-20.72-5.18-25.75-16.13-5.08-11.05-1-24.99,9.11-31.78.34-.23.69-.47,1.36-.92Z" class="cls-4"></path>
    <path d="m241.29,255.61c0-7.59-.03-15.19.01-22.78.02-3.62,1.08-4.75,4.97-5.11,9.4-.89,18.31-3.54,26.94-7.23,7.67-3.27,14.68-7.65,21.29-12.72,5.08-3.9,5.21-3.97,10.35-.07,8.4,6.37,17.41,11.58,27.36,15.13,6.57,2.34,13.28,4.03,20.22,4.85,4.9.58,5.6,1.96,5.56,6.13-.12,12.52.09,25.04-.07,37.56-.39,30.55-12.09,55.92-35.3,75.84-6.15,5.28-13.03,9.54-20.32,13.12-1.88.92-3.58.84-5.42-.07-14.19-6.98-26.12-16.73-35.65-29.35-13.57-17.96-19.92-38.32-19.89-60.74,0-4.85,0-9.7,0-14.56-.02,0-.04,0-.06,0Zm109.49,1.09c-.11,0-.22,0-.33-.01,0-6.47-.04-12.94.03-19.41.02-1.64-.44-2.32-2.18-2.58-11.28-1.68-22.02-5.15-31.98-10.7-5.2-2.9-10.12-6.32-15.1-9.6-1.18-.78-1.96-.94-3.1.09-1.4,1.26-3.03,2.28-4.6,3.35-12.72,8.69-26.66,14.38-41.88,16.74-2.23.35-2.71,1.04-2.69,3.1.08,11.68.04,23.35.02,35.03-.01,9.79,1.65,19.34,4.91,28.52,8.04,22.63,22.75,39.62,43.91,51.03,1.32.71,2.36.71,3.7,0,11.61-6.24,21.64-14.35,29.72-24.81,10.15-13.15,16.54-27.92,18.35-44.41.96-8.71.85-17.54,1.23-26.31Z" class="cls-4"></path>
    <path d="m241.82,310.18h-10.67c2.38,1.7,4.26,2.91,5.99,4.29,15.52,12.45,24.07,28.6,25.52,48.46.16,2.23.18,4.5-.03,6.72-.2,2.15-1.71,3.26-3.73,3.18-2.01-.08-3.32-1.29-3.51-3.48-.29-3.43-.29-6.89-.74-10.29-2.98-22.81-21.4-42.77-43.89-47.34-5.12-1.04-10.43-1.43-15.66-1.6-8.08-.25-16.17,0-24.25-.11-1.35-.02-3.01-.51-3.95-1.4-2.06-1.93-.85-5.29,1.95-5.8,1.23-.22,2.52-.23,3.78-.23,20.6,0,41.19,0,61.79.03,4.86,0,4.86.04,6.45,4.71.26.78.53,1.55.97,2.85Z" class="cls-4"></path>
    <path d="m312.55,205.05c-1.72-1.28-3.35-2.39-4.82-3.67-.51-.44-.99-1.47-.83-2.04,3.8-12.96-6.13-24.5-19.18-24.4-9.21.08-18.42-.03-27.62.05-14.13.12-25.48-5.53-34.11-16.55-6.08-7.77-8.38-16.86-8.32-26.62.01-2.13.7-3.9,2.99-4.52,1.61-.43,3.14.12,3.81,1.52.64,1.32.9,2.97.86,4.46-.18,6.84,1.7,13.09,5.42,18.72,6.55,9.89,15.92,15.09,27.74,15.44,9.69.29,19.4.13,29.09.1,9.5-.03,17.19,3.58,22.87,11.25,5.45,7.36,6.4,19.1,2.08,26.27Z" class="cls-4"></path>
    <path d="m273.48,213.41c-5.76,1.9-11.47,4.01-17.31,5.63-2.85.79-5.95.94-8.94.95-24.6.08-49.2.05-73.8.05-1.41,0-2.82.04-4.21-.08-1.97-.17-3.02-1.47-3.26-3.3-.24-1.83.67-3.16,2.41-3.72.98-.32,2.06-.46,3.1-.46,32.89,0,65.79.02,98.68.04,1.03,0,2.05,0,3.08,0,.08.29.16.59.25.88Z" class="cls-4"></path>
    <path d="m234.67,265.13c-1.77,0-3.37,0-4.97,0-19.46,0-38.91.02-58.37-.01-1.1,0-2.25-.15-3.28-.51-1.58-.55-2.28-1.87-2.09-3.5.2-1.74,1.1-3.05,2.95-3.39.75-.14,1.54-.11,2.31-.11,20.3,0,40.6.03,60.89-.04,2.03,0,2.79.55,2.58,2.59-.15,1.53-.03,3.08-.03,4.97Z" class="cls-4"></path>
    <path d="m328.14,283.22c0,2.81,0,5.62,0,8.43,0,3-1.49,4.52-4.52,4.54-2.95.01-5.9.07-8.85-.05-1.63-.06-2.25.37-2.14,2.12.18,2.94.12,5.9.13,8.85,0,2.86-1.56,4.46-4.38,4.47-5.62.02-11.25.03-16.87.02-3.51,0-4.8-1.28-4.84-4.84-.03-3.02,0-6.05.05-9.07.03-1.29-.42-1.66-1.75-1.6-3.23.14-6.46.1-9.69.06-2.55-.04-4.12-1.74-4.12-4.33,0-5.55,0-11.11.02-16.66.02-3.67,1.33-4.97,4.94-4.97,2.95,0,5.9-.06,8.85.04,1.45.05,1.79-.52,1.76-1.85-.07-3.16-.07-6.33,0-9.49.05-2.81,1.36-4.21,4.14-4.24,5.9-.07,11.81-.05,17.71.02,2.59.03,3.98,1.39,4.1,4.09.15,3.16.15,6.33.07,9.49-.04,1.47.4,1.98,1.91,1.93,3.02-.1,6.04-.04,9.06.03,3.16.07,4.34,1.25,4.39,4.35.05,2.88.01,5.76.01,8.65.01,0,.02,0,.03,0Zm-49.42-5.45c0,3.24.08,6.05-.03,8.85-.06,1.57.61,1.91,1.99,1.88,3.02-.07,6.04-.08,9.06,0,3.07.08,4.47,1.54,4.51,4.6.03,3.09.04,6.18-.03,9.27-.03,1.29.44,1.75,1.72,1.72,2.39-.06,4.78-.09,7.16,0,1.44.06,2.01-.37,1.96-1.88-.11-2.88-.08-5.76-.05-8.64.03-3.64,1.55-5.12,5.12-5.1,3.41.02,6.82,0,10.38,0,0-3.36-.02-6.43,0-9.51,0-1.25-.74-1.25-1.68-1.24-3.02.05-6.04.07-9.06.03-3.24-.04-4.76-1.57-4.78-4.8-.01-3.02.03-6.04.12-9.06.03-1.12-.21-1.71-1.49-1.68-2.53.06-5.06.03-7.58-.02-1.33-.03-1.87.44-1.82,1.86.1,2.95.05,5.9.03,8.85-.03,3.61-1.37,4.88-5.03,4.86-3.42-.02-6.84,0-10.5,0Z" class="cls-4"></path>
  </g>
</svg>