<svg viewBox="0 0 500 500" xmlns="http://www.w3.org/2000/svg" data-name="Layer 1" id="a">
  <defs>
    <style>
      .b {
        stroke: #f9d53b;
        stroke-width: 3px;
      }

      .b, .c {
        fill: none;
        stroke-miterlimit: 10;
      }

      .c {
        stroke: #4f2a22;
        stroke-width: 8px;
      }

      .d {
        fill: #4f2a22;
      }
    </style>
  </defs>
  <circle r="230.5" cy="250.5" cx="248" class="c"></circle>
  <circle r="223" cy="250.5" cx="248" class="b"></circle>
  <g>
    <path d="m295.36,225.85c.18,0,.35,0,.53.03h-1.05c.17-.02.35-.03.53-.03" class="d"></path>
    <path d="m212.43,225.86c.1,0,.21,0,.31.01h-.62c.1,0,.21-.01.31-.01" class="d"></path>
    <path d="m212.12,225.88c-.08,0-.16.01-.24.02v-.02h.24" class="d"></path>
    <path d="m245.22,249.22c1.27,1.53,3.54,1.75,5.08.48.17-.14.33-.3.48-.48l5.41-6.51c1.26-1.55,1.02-3.82-.53-5.07-1.15-.94-2.76-1.07-4.05-.34v-12.03c0-1.99-1.61-3.61-3.61-3.61s-3.61,1.61-3.61,3.61v12.03c-1.73-.98-3.93-.38-4.92,1.36-.73,1.29-.6,2.9.34,4.05l5.41,6.51Z" class="d"></path>
    <path d="m350.88,280.12l1.42-22.16c.03-.28.03-.55,0-.83,4.49-13.45,5.19-28.35,1.8-40.21-4.85-16.9-17.76-27.71-30.38-38.35-13.63-11.52-26.56-22.4-28.85-40.32-.26-1.99-2.08-3.4-4.08-3.14-1.99.26-3.4,2.08-3.14,4.08,2.69,20.7,17.31,33,31.43,44.9,12.24,10.31,23.8,20.05,28,34.8,3.08,10.82,2.2,25.24-2.29,37.61-.09.23-.15.48-.18.72-18.72,26.6-55.46,32.98-82.06,14.26-4.85-3.41-9.16-7.54-12.77-12.24-1.21-1.58-3.47-1.89-5.05-.68-.26.2-.48.42-.68.68-19.83,25.79-56.82,30.62-82.61,10.79-4.55-3.5-8.56-7.64-11.91-12.3.01-.44-.06-.87-.2-1.28-4.49-12.32-5.37-26.72-2.33-37.56,4.2-14.75,15.76-24.49,28-34.8,14.17-11.9,28.78-24.22,31.5-44.9.26-1.99-1.15-3.82-3.14-4.08-1.99-.26-3.82,1.15-4.08,3.14h0c-2.33,17.91-15.25,28.85-28.85,40.32-12.62,10.64-25.53,21.46-30.35,38.35-3.39,11.96-2.65,26.94,1.91,40.46-.11.38-.15.78-.13,1.17l1.39,21.64c-4.65,4.89-5.28,12.57-5.28,18.88,0,10.44,2.83,17.74,8.2,21.28l10.91,42.83c.4,1.61,1.84,2.74,3.5,2.74h78.04c1.74.04,3.25-1.17,3.61-2.87l4.9-23.35,4.92,23.35c.36,1.7,1.87,2.9,3.61,2.87h78.02c1.65,0,3.09-1.12,3.5-2.72l10.91-42.83c5.9-3.86,9.86-12.15,9.86-21.3.22-7.01-2.34-13.81-7.1-18.95Zm-103.97-13c3.22,3.69,6.85,7.01,10.82,9.9-2.49,2.67-5.98,4.17-9.63,4.15-4.18.07-8.12-1.89-10.58-5.27,3.41-2.61,6.56-5.55,9.39-8.78Zm96.34,47.64c-.95.46-1.65,1.32-1.91,2.34l-10.6,41.6h-72.29l-6.37-30.17c-.34-1.59-1.7-2.75-3.32-2.85l-2.94-.16c-1.78-.1-3.36,1.11-3.73,2.85l-6.38,30.33h-72.29l-10.6-41.6c-.26-1.02-.96-1.88-1.91-2.34-4.96-2.42-5.7-10.86-5.7-15.69,0-7.79,1.28-12.44,4.04-14.62.93-.73,1.44-1.87,1.37-3.05l-.78-11.99c21.5,22.05,55.34,26.42,81.74,10.57,6.66,9.14,19.48,11.15,28.62,4.49,1.39-1.01,2.64-2.19,3.73-3.51,26.41,14.82,59.49,9.92,80.46-11.94l-.83,12.39c-.07,1.18.43,2.31,1.35,3.05,3.61,2.89,5.84,8.49,5.84,14.62.02,7.09-3.07,13.52-7.48,15.69h-.02Z" class="d"></path>
    <path d="m247.99,197.88c1.99,0,3.61-1.61,3.61-3.61v-55.56c0-1.99-1.61-3.61-3.61-3.61s-3.61,1.61-3.61,3.61v55.54c0,1.99,1.6,3.61,3.59,3.62,0,0,.01,0,.02,0Z" class="d"></path>
    <path d="m251,297.2c-1.1-1.66-3.34-2.11-5-1-.4.26-.74.61-1,1l-3.61,5.41c-1.11,1.66-.66,3.9,1,5,.59.39,1.28.61,1.99.61v7.21c0,1.99,1.61,3.61,3.61,3.61s3.61-1.61,3.61-3.61v-7.21h0c1.99,0,3.6-1.62,3.6-3.61,0-.71-.21-1.4-.61-1.99l-3.59-5.41Z" class="d"></path>
    <path d="m231.33,297.4l-5.7.69c-1.97.27-3.35,2.09-3.08,4.06.07.48.22.93.47,1.35l-4.38,3.61c-1.48,1.33-1.6,3.61-.27,5.09,1.26,1.41,3.4,1.6,4.89.44l4.54-3.79c.41.38.89.65,1.42.81.33.1.67.14,1.01.14,1.61,0,3.02-1.07,3.46-2.61l1.55-5.41c.44-1.94-.78-3.87-2.72-4.31-.39-.09-.79-.11-1.19-.07Z" class="d"></path>
    <path d="m272.97,303.6c1.01-1.71.45-3.93-1.27-4.94-.41-.24-.87-.4-1.35-.47l-5.7-.79c-1.98-.24-3.77,1.17-4.01,3.15-.06.48-.02.97.12,1.43l1.55,5.41c.43,1.55,1.84,2.62,3.44,2.63.34,0,.68-.05,1.01-.14.53-.16,1.02-.44,1.42-.81l4.54,3.79c1.58,1.22,3.84.93,5.06-.65,1.16-1.49.96-3.63-.44-4.89l-4.38-3.71Z" class="d"></path>
    <path d="m181.94,206.27c1.41-1.41,1.4-3.7-.01-5.1-1.34-1.33-3.48-1.41-4.91-.17-.31.29-30.98,29.52-5.41,59.09,1.17,1.61,3.42,1.98,5.04.81,1.61-1.17,1.98-3.42.81-5.04-.13-.18-.28-.35-.44-.5-20.99-24.29,3.86-48.13,4.92-49.1Z" class="d"></path>
  </g>
</svg>